<svg id="Layer_1" data-name="Layer 1" xmlns="http://www.w3.org/2000/svg" viewBox="0 0 360 360"><defs><style>.cls-1{fill:#0d1426;}.cls-2,.cls-4{fill:#fff;}.cls-2{stroke:#a73a39;stroke-miterlimit:10;stroke-width:6px;}.cls-3{fill:#a73a39;}</style></defs><rect class="cls-1" width="360" height="360"/><rect class="cls-2" x="20" y="20" width="320" height="320"/><path class="cls-3" d="M103.89,203.41a13,13,0,0,1-4.64-.83,11.12,11.12,0,0,1-3.83-2.43,11.6,11.6,0,0,1-2.58-3.9,13.73,13.73,0,0,1-.94-5.2,13.22,13.22,0,0,1,.94-5,12.2,12.2,0,0,1,2.58-3.93,11.65,11.65,0,0,1,3.81-2.55,12,12,0,0,1,4.66-.91,8.88,8.88,0,0,1,2.29.29,11.52,11.52,0,0,1,2.17.79,13.76,13.76,0,0,1,2,1.17,16.17,16.17,0,0,1,1.29,1l2-2.39h2.24V203H113.6l-2-2.78c-.41.35-.84.67-1.28,1a13.17,13.17,0,0,1-2,1.15,11.85,11.85,0,0,1-2.16.78A9.32,9.32,0,0,1,103.89,203.41Zm0-17.83a5.49,5.49,0,0,0-2,.36,4.5,4.5,0,0,0-1.58,1,4.92,4.92,0,0,0-1.06,1.7,7.28,7.28,0,0,0,0,4.76,4.92,4.92,0,0,0,1.06,1.7,4.5,4.5,0,0,0,1.58,1,5.49,5.49,0,0,0,2,.36,4.28,4.28,0,0,0,1.93-.45,5.62,5.62,0,0,0,1.63-1.22,6.17,6.17,0,0,0,1.11-1.77,5.44,5.44,0,0,0,.4-2,5.57,5.57,0,0,0-.4-2,6.26,6.26,0,0,0-1.11-1.76,5.62,5.62,0,0,0-1.63-1.22A4.28,4.28,0,0,0,103.89,185.58Z"/><path class="cls-4" d="M103.89,179.24a8.66,8.66,0,0,1,2.14.27,11.15,11.15,0,0,1,2.07.75,13,13,0,0,1,1.9,1.13,16.34,16.34,0,0,1,1.7,1.39l2.21-2.64h1.37V202.4h-1.37l-2.21-3.06A19,19,0,0,1,110,200.7a12.51,12.51,0,0,1-1.91,1.11,11.68,11.68,0,0,1-2,.74,8.52,8.52,0,0,1-2.13.27,12.48,12.48,0,0,1-4.43-.79,10.48,10.48,0,0,1-3.62-2.31A10.64,10.64,0,0,1,93.39,196a13,13,0,0,1-.89-5,12.4,12.4,0,0,1,.89-4.78,11.35,11.35,0,0,1,2.45-3.74,10.91,10.91,0,0,1,3.62-2.42,11.33,11.33,0,0,1,4.43-.87m0,17.87a4.9,4.9,0,0,0,2.2-.51,6.26,6.26,0,0,0,1.8-1.35,6.71,6.71,0,0,0,1.22-1.94,6,6,0,0,0,0-4.52,6.71,6.71,0,0,0-1.22-1.94,6.26,6.26,0,0,0-1.8-1.35,4.9,4.9,0,0,0-2.2-.51,6,6,0,0,0-2.2.4,5,5,0,0,0-1.79,1.16,5.46,5.46,0,0,0-1.2,1.91,7.84,7.84,0,0,0,0,5.18,5.46,5.46,0,0,0,1.2,1.91,5.15,5.15,0,0,0,1.79,1.17,6.17,6.17,0,0,0,2.2.39m0-19.06A12.68,12.68,0,0,0,99,179a12.22,12.22,0,0,0-4,2.68,12.77,12.77,0,0,0-2.71,4.13,13.76,13.76,0,0,0-1,5.23,14.36,14.36,0,0,0,1,5.43,12.1,12.1,0,0,0,2.72,4.1,11.94,11.94,0,0,0,4,2.56,13.68,13.68,0,0,0,4.85.87,10.06,10.06,0,0,0,2.43-.31,13.29,13.29,0,0,0,2.26-.82,13.86,13.86,0,0,0,2.08-1.2l.82-.61,1.46,2,.36.49h3.17V179h-3.12l-.36.43-1.42,1.71c-.29-.23-.58-.46-.88-.67a13.54,13.54,0,0,0-2.08-1.23,12.72,12.72,0,0,0-2.28-.83,10.07,10.07,0,0,0-2.44-.31Zm0,17.87a4.88,4.88,0,0,1-1.77-.31,3.76,3.76,0,0,1-1.37-.9,4.22,4.22,0,0,1-.94-1.49,6.72,6.72,0,0,1,0-4.34,4.22,4.22,0,0,1,.94-1.49,3.76,3.76,0,0,1,1.37-.9,4.92,4.92,0,0,1,1.77-.31,3.68,3.68,0,0,1,1.67.38,5.21,5.21,0,0,1,1.45,1.09,5.42,5.42,0,0,1,1,1.59,4.73,4.73,0,0,1,0,3.62,5.25,5.25,0,0,1-1,1.58,4.89,4.89,0,0,1-1.45,1.1,3.68,3.68,0,0,1-1.67.38Z"/><path class="cls-3" d="M130.55,203.41a12,12,0,0,1-4.66-.92,11.74,11.74,0,0,1-3.82-2.57,12,12,0,0,1-2.57-3.9,13,13,0,0,1-.94-5V170.63h6.89v9.61l.18-.13a7.41,7.41,0,0,1,1.55-.82,10.34,10.34,0,0,1,1.67-.48,9,9,0,0,1,1.7-.16,11.88,11.88,0,0,1,4.68.93,11.74,11.74,0,0,1,3.8,2.6,12.37,12.37,0,0,1,2.56,3.93,12.68,12.68,0,0,1,.94,4.94,13,13,0,0,1-.94,5A12.11,12.11,0,0,1,139,200a11.59,11.59,0,0,1-3.81,2.53A12.14,12.14,0,0,1,130.55,203.41Zm0-17.83a4.29,4.29,0,0,0-1.94.45,5.64,5.64,0,0,0-3.11,5,6,6,0,0,0,.39,2.18,5.24,5.24,0,0,0,2.7,2.87,4.76,4.76,0,0,0,3.91,0,5.1,5.1,0,0,0,1.61-1.15,5.5,5.5,0,0,0,1.1-1.73,5.7,5.7,0,0,0,.41-2.17,5.79,5.79,0,0,0-.41-2.18,5.44,5.44,0,0,0-1.1-1.74,4.88,4.88,0,0,0-3.56-1.55Z"/><path class="cls-4" d="M124.86,171.22v10.42a5.25,5.25,0,0,1,1.11-1,6.22,6.22,0,0,1,1.42-.75,8.54,8.54,0,0,1,1.57-.45,7.94,7.94,0,0,1,1.59-.16,11.23,11.23,0,0,1,8.06,3.35,11.9,11.9,0,0,1,2.43,3.74,12.14,12.14,0,0,1,.9,4.72,12.35,12.35,0,0,1-.9,4.79,11.48,11.48,0,0,1-2.43,3.72A11,11,0,0,1,135,202a11.52,11.52,0,0,1-4.44.86,11.31,11.31,0,0,1-8.05-3.31,11.47,11.47,0,0,1-2.45-3.72,12.2,12.2,0,0,1-.9-4.74V171.22h5.71m5.69,25.89a5.25,5.25,0,0,0,2.19-.47,5.63,5.63,0,0,0,1.8-1.28,5.94,5.94,0,0,0,1.22-1.92,6.24,6.24,0,0,0,.45-2.39,6.42,6.42,0,0,0-.45-2.41,5.94,5.94,0,0,0-1.22-1.92,5.45,5.45,0,0,0-1.8-1.27,5.25,5.25,0,0,0-2.19-.46,4.9,4.9,0,0,0-2.2.51,6,6,0,0,0-1.8,1.35,6.28,6.28,0,0,0-1.21,1.94,6.06,6.06,0,0,0-.44,2.26,6.43,6.43,0,0,0,.44,2.39,5.75,5.75,0,0,0,1.21,1.92,5.63,5.63,0,0,0,1.8,1.28,5.3,5.3,0,0,0,2.2.47M126.05,170H118v21a13.51,13.51,0,0,0,1,5.19,12.61,12.61,0,0,0,2.7,4.1,12.38,12.38,0,0,0,4,2.7,12.55,12.55,0,0,0,4.89,1,12.68,12.68,0,0,0,4.89-.95,11.89,11.89,0,0,0,4-2.67,12.38,12.38,0,0,0,2.69-4.1,13.7,13.7,0,0,0,1-5.24,13.45,13.45,0,0,0-1-5.17,13,13,0,0,0-2.68-4.11,12.29,12.29,0,0,0-4-2.74,12.48,12.48,0,0,0-4.91-1,9.41,9.41,0,0,0-1.81.18,10.69,10.69,0,0,0-1.78.51,7.5,7.5,0,0,0-.91.42V170Zm4.5,25.88a4.1,4.1,0,0,1-1.71-.36,4.56,4.56,0,0,1-1.43-1,4.81,4.81,0,0,1-1-1.53,5.38,5.38,0,0,1-.35-2,5,5,0,0,1,.35-1.82,5.45,5.45,0,0,1,1-1.58,5.26,5.26,0,0,1,1.46-1.09,3.65,3.65,0,0,1,1.67-.38,4.12,4.12,0,0,1,1.71.35,4.49,4.49,0,0,1,1.42,1,4.82,4.82,0,0,1,1,1.55,5.25,5.25,0,0,1,.36,2,5.17,5.17,0,0,1-.36,1.95,4.88,4.88,0,0,1-1,1.54,4.4,4.4,0,0,1-1.43,1,4.05,4.05,0,0,1-1.7.36Z"/><path class="cls-3" d="M144.49,203V179.5h6.91V203ZM148,178.42a4.38,4.38,0,0,1-1.73-.35,4.49,4.49,0,0,1-1.39-.94,4.44,4.44,0,0,1-.94-1.38,4.35,4.35,0,0,1,0-3.42,4.42,4.42,0,0,1,2.33-2.33,4.43,4.43,0,0,1,3.45,0,4.63,4.63,0,0,1,1.4.93,4.51,4.51,0,0,1,.95,1.4,4.14,4.14,0,0,1,.35,1.7,4.3,4.3,0,0,1-.35,1.72,4.46,4.46,0,0,1-.95,1.39,4.63,4.63,0,0,1-1.4.93A4.34,4.34,0,0,1,148,178.42Z"/><path class="cls-4" d="M148,170.24a3.79,3.79,0,0,1,1.49.31,3.89,3.89,0,0,1,1.21.81,3.68,3.68,0,0,1,.83,1.21,3.75,3.75,0,0,1,0,2.94,3.74,3.74,0,0,1-.83,1.2,3.89,3.89,0,0,1-1.21.81,3.62,3.62,0,0,1-1.49.31,3.55,3.55,0,0,1-1.49-.31,3.78,3.78,0,0,1-1.21-.81,3.85,3.85,0,0,1-.81-1.2,3.75,3.75,0,0,1,0-2.94,3.75,3.75,0,0,1,2-2,3.71,3.71,0,0,1,1.49-.31m2.85,9.86v22.3h-5.73V180.1h5.73m-2.85-11a4.81,4.81,0,0,0-2,.4,4.92,4.92,0,0,0-2.64,2.64,4.93,4.93,0,0,0,0,3.89,5.13,5.13,0,0,0,1.06,1.56,5,5,0,0,0,1.58,1.06,4.72,4.72,0,0,0,.92.3h-3v24.68H152V178.91h-3a5,5,0,0,0,.93-.3,5.13,5.13,0,0,0,1.58-1.05,5,5,0,0,0,1.07-1.57,4.78,4.78,0,0,0,.41-2,4.9,4.9,0,0,0-.4-1.93,5,5,0,0,0-1.08-1.59,5.25,5.25,0,0,0-1.58-1,4.88,4.88,0,0,0-2-.4Z"/><path class="cls-3" d="M165.3,203.41a11.74,11.74,0,0,1-4.65-.93,12,12,0,0,1-3.82-2.59,12.19,12.19,0,0,1-2.57-3.91,13.35,13.35,0,0,1,0-9.84,12.22,12.22,0,0,1,2.57-3.94,12.08,12.08,0,0,1,3.81-2.61,11.79,11.79,0,0,1,4.66-.94,10.47,10.47,0,0,1,1.65.13,9,9,0,0,1,1.68.44,6.9,6.9,0,0,1,1.55.8l.2.14v-9.53h6.91V203H175l-2-2.78c-.41.35-.83.67-1.27,1a12.8,12.8,0,0,1-2,1.15,11.76,11.76,0,0,1-2.15.78A9.33,9.33,0,0,1,165.3,203.41Zm0-17.83a5.2,5.2,0,0,0-2,.38,4.53,4.53,0,0,0-1.59,1.06,5,5,0,0,0-1.07,1.7,6.5,6.5,0,0,0-.39,2.33,5.7,5.7,0,0,0,1.48,3.87,4.9,4.9,0,0,0,1.6,1.17,4.58,4.58,0,0,0,1.94.43,4.29,4.29,0,0,0,1.94-.45,5.44,5.44,0,0,0,1.62-1.22,5.77,5.77,0,0,0,1.11-1.77,5.26,5.26,0,0,0,.41-2,5.35,5.35,0,0,0-.41-2,6,6,0,0,0-1.11-1.76,5.44,5.44,0,0,0-1.62-1.22A4.29,4.29,0,0,0,165.3,185.58Z"/><path class="cls-4" d="M176.7,171.22V202.4h-1.38l-2.21-3.06a18.89,18.89,0,0,1-1.71,1.36,13,13,0,0,1-1.91,1.11,12,12,0,0,1-2.05.74,8.54,8.54,0,0,1-2.14.27,11.23,11.23,0,0,1-8-3.35,11.47,11.47,0,0,1-2.45-3.72,12.7,12.7,0,0,1,0-9.39,11.56,11.56,0,0,1,2.45-3.74,11.2,11.2,0,0,1,8-3.38,9.47,9.47,0,0,1,1.56.13,7.77,7.77,0,0,1,1.56.4,6.92,6.92,0,0,1,1.43.74,4.46,4.46,0,0,1,1.12,1.13V171.22h5.73m-11.4,25.89a4.87,4.87,0,0,0,2.2-.51,6,6,0,0,0,1.8-1.35,6.5,6.5,0,0,0,1.22-1.94,5.9,5.9,0,0,0,0-4.52,6.5,6.5,0,0,0-1.22-1.94,6,6,0,0,0-1.8-1.35,4.87,4.87,0,0,0-2.2-.51,5.77,5.77,0,0,0-2.19.42,5,5,0,0,0-1.79,1.19,5.55,5.55,0,0,0-1.2,1.91,7,7,0,0,0-.44,2.54,6.37,6.37,0,0,0,1.64,4.27,5.42,5.42,0,0,0,1.79,1.31,5.14,5.14,0,0,0,2.19.48M177.89,170h-8.11v9.05a6.27,6.27,0,0,0-.95-.43,9.25,9.25,0,0,0-1.79-.47,11.54,11.54,0,0,0-1.74-.14,12.46,12.46,0,0,0-8.89,3.73,12.8,12.8,0,0,0-2.7,4.13,13.86,13.86,0,0,0,0,10.29,12.6,12.6,0,0,0,2.7,4.11,12.47,12.47,0,0,0,4,2.71,12.25,12.25,0,0,0,4.89,1,10.07,10.07,0,0,0,2.44-.31,13.29,13.29,0,0,0,2.26-.82,14.38,14.38,0,0,0,2.08-1.2l.82-.61,1.46,2,.35.49h3.18V170ZM165.3,195.92a3.9,3.9,0,0,1-1.69-.37,4.39,4.39,0,0,1-1.42-1,5.45,5.45,0,0,1-1-1.57,5.25,5.25,0,0,1-.35-1.9,5.76,5.76,0,0,1,.36-2.11,4.35,4.35,0,0,1,.94-1.51,4.07,4.07,0,0,1,1.38-.92,4.62,4.62,0,0,1,1.75-.33,3.73,3.73,0,0,1,1.68.38,5,5,0,0,1,1.45,1.1,5.35,5.35,0,0,1,1,1.58,4.73,4.73,0,0,1,0,3.62,5.4,5.4,0,0,1-1,1.59,5.17,5.17,0,0,1-1.45,1.09,3.73,3.73,0,0,1-1.68.38Z"/><path class="cls-3" d="M205,203l-2.6-6-5.71,0v6h-7.16V171.94h12.55a12.2,12.2,0,0,1,3.32.45,12.56,12.56,0,0,1,5.52,3.23,12.86,12.86,0,0,1,2,2.55,13,13,0,0,1,1.27,3,12.43,12.43,0,0,1,0,6.48,13,13,0,0,1-1.16,2.9,12.37,12.37,0,0,1-1.84,2.54,12.82,12.82,0,0,1-2,1.73l3.47,8.18Zm-2.92-13.12a5.14,5.14,0,0,0,2.07-.42,5.31,5.31,0,0,0,2.87-2.87,5.41,5.41,0,0,0,0-4.18,5.4,5.4,0,0,0-2.87-2.87,5.14,5.14,0,0,0-2.07-.42h-5.39v10.76Z"/><path class="cls-4" d="M202.12,172.53a11.81,11.81,0,0,1,3.16.43,12.22,12.22,0,0,1,2.85,1.21,12.46,12.46,0,0,1,2.41,1.87,11.89,11.89,0,0,1,3.08,5.28,11.5,11.5,0,0,1,.43,3.17,12,12,0,0,1-.38,3,12.53,12.53,0,0,1-1.11,2.77,11.46,11.46,0,0,1-1.76,2.41,11.63,11.63,0,0,1-2.33,1.92l3.31,7.81h-6.35l-2.6-6-6.69,0v6h-6V172.53h12m-6,17.94h6a5.78,5.78,0,0,0,2.31-.47,6,6,0,0,0,3.18-3.19,6.08,6.08,0,0,0,0-4.64,6,6,0,0,0-3.18-3.19,5.78,5.78,0,0,0-2.31-.47h-6v12m6-19.12H189v32.24h8.35v-6l4.72,0,2.29,5.3.31.72h8.93l-.7-1.65L209.94,195a13.24,13.24,0,0,0,1.73-1.53,12.8,12.8,0,0,0,1.93-2.66,13.12,13.12,0,0,0,1.21-3,12.56,12.56,0,0,0,.43-3.3,13,13,0,0,0-1.8-6.62,13.31,13.31,0,0,0-2.06-2.67,13.51,13.51,0,0,0-2.65-2,12.92,12.92,0,0,0-3.12-1.33,13.06,13.06,0,0,0-3.49-.47Zm-4.79,8.35h4.79a4.55,4.55,0,0,1,1.84.37,4.86,4.86,0,0,1,1.52,1,4.68,4.68,0,0,1,1,1.54,4.69,4.69,0,0,1,0,3.7,4.68,4.68,0,0,1-1,1.54,4.86,4.86,0,0,1-1.52,1,4.55,4.55,0,0,1-1.84.37h-4.79V179.7Z"/><path class="cls-3" d="M227.32,203.41a13,13,0,0,1-4.64-.83,11.12,11.12,0,0,1-3.83-2.43,11.6,11.6,0,0,1-2.58-3.9,13.73,13.73,0,0,1-.94-5.2,13.18,13.18,0,0,1,.94-5,12,12,0,0,1,2.58-3.93,11.65,11.65,0,0,1,3.81-2.55,12,12,0,0,1,4.66-.91,9.33,9.33,0,0,1,2.29.29,11.52,11.52,0,0,1,2.17.79,13.15,13.15,0,0,1,2,1.17,16.33,16.33,0,0,1,1.3,1l2-2.39h2.24V203H237l-2-2.78c-.41.35-.84.67-1.28,1a13.17,13.17,0,0,1-2,1.15,11.85,11.85,0,0,1-2.16.78A9.32,9.32,0,0,1,227.32,203.41Zm0-17.83a5.49,5.49,0,0,0-2,.36,4.5,4.5,0,0,0-1.58,1,4.92,4.92,0,0,0-1.06,1.7,7.28,7.28,0,0,0,0,4.76,4.92,4.92,0,0,0,1.06,1.7,4.5,4.5,0,0,0,1.58,1,5.49,5.49,0,0,0,2,.36,4.28,4.28,0,0,0,1.93-.45,5.62,5.62,0,0,0,1.63-1.22,6.17,6.17,0,0,0,1.11-1.77,5.44,5.44,0,0,0,.4-2,5.53,5.53,0,0,0-.4-2,6.4,6.4,0,0,0-1.11-1.76,5.62,5.62,0,0,0-1.63-1.22A4.28,4.28,0,0,0,227.32,185.58Z"/><path class="cls-4" d="M227.32,179.24a8.66,8.66,0,0,1,2.14.27,10.8,10.8,0,0,1,2.06.75,12.62,12.62,0,0,1,1.91,1.13,16.34,16.34,0,0,1,1.7,1.39l2.21-2.64h1.37V202.4h-1.37l-2.21-3.06a19,19,0,0,1-1.72,1.36,12.51,12.51,0,0,1-1.91,1.11,11.68,11.68,0,0,1-2.05.74,8.52,8.52,0,0,1-2.13.27,12.48,12.48,0,0,1-4.43-.79,10.48,10.48,0,0,1-3.62-2.31,10.64,10.64,0,0,1-2.45-3.69,13,13,0,0,1-.89-5,12.4,12.4,0,0,1,.89-4.78,11.35,11.35,0,0,1,2.45-3.74,10.91,10.91,0,0,1,3.62-2.42,11.33,11.33,0,0,1,4.43-.87m0,17.87a4.83,4.83,0,0,0,2.19-.51,6.17,6.17,0,0,0,1.81-1.35,6.71,6.71,0,0,0,1.22-1.94,6,6,0,0,0,0-4.52,6.71,6.71,0,0,0-1.22-1.94,6.17,6.17,0,0,0-1.81-1.35,4.83,4.83,0,0,0-2.19-.51,6,6,0,0,0-2.2.4,5,5,0,0,0-1.79,1.16,5.46,5.46,0,0,0-1.2,1.91,7.84,7.84,0,0,0,0,5.18,5.46,5.46,0,0,0,1.2,1.91,5.15,5.15,0,0,0,1.79,1.17,6.17,6.17,0,0,0,2.2.39m0-19.06a12.76,12.76,0,0,0-4.89,1,12.28,12.28,0,0,0-4,2.68,12.77,12.77,0,0,0-2.71,4.13,13.76,13.76,0,0,0-1,5.23,14.36,14.36,0,0,0,1,5.43,12.1,12.1,0,0,0,2.72,4.1,11.94,11.94,0,0,0,4,2.56,13.68,13.68,0,0,0,4.85.87,10.06,10.06,0,0,0,2.43-.31,13.29,13.29,0,0,0,2.26-.82,13.86,13.86,0,0,0,2.08-1.2l.82-.61,1.46,2,.36.49h3.17V179h-3.12l-.36.43L235,181.09c-.29-.23-.58-.46-.88-.67a13.54,13.54,0,0,0-2.08-1.23,12.72,12.72,0,0,0-2.28-.83,10.14,10.14,0,0,0-2.44-.31Zm0,17.87a4.88,4.88,0,0,1-1.77-.31,3.76,3.76,0,0,1-1.37-.9,4.22,4.22,0,0,1-.94-1.49,6.72,6.72,0,0,1,0-4.34,4.22,4.22,0,0,1,.94-1.49,3.76,3.76,0,0,1,1.37-.9,4.92,4.92,0,0,1,1.77-.31,3.68,3.68,0,0,1,1.67.38,5.21,5.21,0,0,1,1.45,1.09,5.42,5.42,0,0,1,1,1.59,4.86,4.86,0,0,1,0,3.62,5.25,5.25,0,0,1-1,1.58,4.89,4.89,0,0,1-1.45,1.1,3.68,3.68,0,0,1-1.67.38Z"/><path class="cls-3" d="M254,203.41a11.92,11.92,0,0,1-4.66-.92,11.74,11.74,0,0,1-3.82-2.57,12,12,0,0,1-2.57-3.9,13,13,0,0,1-.94-5V170.63h6.89v9.61l.18-.13a7.41,7.41,0,0,1,1.55-.82,11.46,11.46,0,0,1,1.67-.48,9,9,0,0,1,1.7-.16,11.69,11.69,0,0,1,8.48,3.53,12.37,12.37,0,0,1,2.56,3.93,12.68,12.68,0,0,1,.94,4.94,13,13,0,0,1-.94,5,12.11,12.11,0,0,1-2.56,3.91,11.49,11.49,0,0,1-3.81,2.53A12.14,12.14,0,0,1,254,203.41Zm0-17.83A4.29,4.29,0,0,0,252,186a5.44,5.44,0,0,0-1.62,1.22,5.62,5.62,0,0,0-1.1,1.76,5.52,5.52,0,0,0-.39,2,6,6,0,0,0,.39,2.18,5.24,5.24,0,0,0,2.7,2.87,4.76,4.76,0,0,0,3.91,0,5.1,5.1,0,0,0,1.61-1.15,5.5,5.5,0,0,0,1.1-1.73,5.7,5.7,0,0,0,.41-2.17,5.79,5.79,0,0,0-.41-2.18,5.44,5.44,0,0,0-1.1-1.74,4.92,4.92,0,0,0-1.61-1.14A4.8,4.8,0,0,0,254,185.58Z"/><path class="cls-4" d="M248.29,171.22v10.42a5.25,5.25,0,0,1,1.11-1,6.22,6.22,0,0,1,1.42-.75,8.54,8.54,0,0,1,1.57-.45,7.94,7.94,0,0,1,1.59-.16,11.18,11.18,0,0,1,4.44.89,11,11,0,0,1,3.61,2.46,11.75,11.75,0,0,1,2.44,3.74,12.14,12.14,0,0,1,.9,4.72,12.35,12.35,0,0,1-.9,4.79,11.34,11.34,0,0,1-2.44,3.72,10.86,10.86,0,0,1-3.61,2.4,11.52,11.52,0,0,1-4.44.86,11.31,11.31,0,0,1-8-3.31,11.47,11.47,0,0,1-2.45-3.72,12.2,12.2,0,0,1-.9-4.74V171.22h5.71M254,197.11a5.25,5.25,0,0,0,2.19-.47,5.63,5.63,0,0,0,1.8-1.28,5.94,5.94,0,0,0,1.22-1.92,6.24,6.24,0,0,0,.45-2.39,6.42,6.42,0,0,0-.45-2.41,5.94,5.94,0,0,0-1.22-1.92,5.45,5.45,0,0,0-1.8-1.27A5.25,5.25,0,0,0,254,185a4.9,4.9,0,0,0-2.2.51,6,6,0,0,0-1.8,1.35,6.28,6.28,0,0,0-1.21,1.94,6.06,6.06,0,0,0-.44,2.26,6.43,6.43,0,0,0,.44,2.39,5.75,5.75,0,0,0,1.21,1.92,5.63,5.63,0,0,0,1.8,1.28,5.3,5.3,0,0,0,2.2.47M249.48,170H241.4v21a13.51,13.51,0,0,0,1,5.19A12.43,12.43,0,0,0,254,204a12.68,12.68,0,0,0,4.89-.95,11.89,11.89,0,0,0,4-2.67,12.38,12.38,0,0,0,2.69-4.1,14.18,14.18,0,0,0,0-10.41,13,13,0,0,0-2.68-4.11,12.29,12.29,0,0,0-4-2.74,12.48,12.48,0,0,0-4.91-1,9.41,9.41,0,0,0-1.81.18,10.69,10.69,0,0,0-1.78.51,7.5,7.5,0,0,0-.91.42V170Zm4.5,25.88a4.1,4.1,0,0,1-1.71-.36,4.56,4.56,0,0,1-1.43-1,4.81,4.81,0,0,1-1-1.53,5.38,5.38,0,0,1-.35-2,5,5,0,0,1,.35-1.82,5.45,5.45,0,0,1,1-1.58,5.12,5.12,0,0,1,1.46-1.09,3.65,3.65,0,0,1,1.67-.38,4.12,4.12,0,0,1,1.71.35,4.33,4.33,0,0,1,1.42,1,4.82,4.82,0,0,1,1,1.55,5.25,5.25,0,0,1,.36,2,5.17,5.17,0,0,1-.36,1.95,4.88,4.88,0,0,1-1,1.54,4.4,4.4,0,0,1-1.43,1,4.05,4.05,0,0,1-1.7.36Z"/><path class="cls-3" d="M279.45,203.41a12,12,0,0,1-4.66-.92,11.74,11.74,0,0,1-3.82-2.57,12,12,0,0,1-2.57-3.9,13,13,0,0,1-.94-5V170.63h6.89v9.61l.18-.13a7.41,7.41,0,0,1,1.55-.82,9.41,9.41,0,0,1,1.67-.48,9,9,0,0,1,1.7-.16,11.69,11.69,0,0,1,8.48,3.53,12.37,12.37,0,0,1,2.56,3.93,12.68,12.68,0,0,1,.94,4.94,13,13,0,0,1-.94,5,12.11,12.11,0,0,1-2.56,3.91,11.49,11.49,0,0,1-3.81,2.53A12.14,12.14,0,0,1,279.45,203.41Zm0-17.83a4.29,4.29,0,0,0-1.94.45,5.44,5.44,0,0,0-1.62,1.22,5.81,5.81,0,0,0-1.1,1.76,5.52,5.52,0,0,0-.39,2,5.9,5.9,0,0,0,.39,2.17,5.2,5.2,0,0,0,1.09,1.73,5.08,5.08,0,0,0,1.62,1.15,4.74,4.74,0,0,0,3.9,0A5.1,5.1,0,0,0,283,195a5.39,5.39,0,0,0,1.1-1.73,5.7,5.7,0,0,0,.41-2.17,5.79,5.79,0,0,0-.41-2.18,5.33,5.33,0,0,0-1.1-1.74A4.82,4.82,0,0,0,281.4,186,4.77,4.77,0,0,0,279.45,185.58Z"/><path class="cls-4" d="M273.76,171.22v10.42a5.25,5.25,0,0,1,1.11-1,6.22,6.22,0,0,1,1.42-.75,8.54,8.54,0,0,1,1.57-.45,7.94,7.94,0,0,1,1.59-.16,11.23,11.23,0,0,1,8.06,3.35,11.9,11.9,0,0,1,2.43,3.74,12.14,12.14,0,0,1,.9,4.72,12.35,12.35,0,0,1-.9,4.79,11.48,11.48,0,0,1-2.43,3.72,11,11,0,0,1-3.62,2.4,11.52,11.52,0,0,1-4.44.86,11.31,11.31,0,0,1-8.05-3.31,11.47,11.47,0,0,1-2.45-3.72,12.2,12.2,0,0,1-.9-4.74V171.22h5.71m5.69,25.89a5.25,5.25,0,0,0,2.19-.47,5.63,5.63,0,0,0,1.8-1.28,5.94,5.94,0,0,0,1.22-1.92,6.24,6.24,0,0,0,.45-2.39,6.42,6.42,0,0,0-.45-2.41,5.94,5.94,0,0,0-1.22-1.92,5.45,5.45,0,0,0-1.8-1.27,5.25,5.25,0,0,0-2.19-.46,4.9,4.9,0,0,0-2.2.51,6,6,0,0,0-1.8,1.35,6.28,6.28,0,0,0-1.21,1.94,6.06,6.06,0,0,0-.44,2.26,6.43,6.43,0,0,0,.44,2.39,5.75,5.75,0,0,0,1.21,1.92,5.63,5.63,0,0,0,1.8,1.28,5.3,5.3,0,0,0,2.2.47M275,170h-8.08v21a13.51,13.51,0,0,0,1,5.19,12.61,12.61,0,0,0,2.7,4.1,12.38,12.38,0,0,0,4,2.7,12.55,12.55,0,0,0,4.89,1,12.68,12.68,0,0,0,4.89-.95,11.89,11.89,0,0,0,4-2.67,12.38,12.38,0,0,0,2.69-4.1,13.7,13.7,0,0,0,1-5.24,13.53,13.53,0,0,0-1-5.17,12.93,12.93,0,0,0-2.68-4.11,12.29,12.29,0,0,0-4-2.74,12.48,12.48,0,0,0-4.91-1,9.41,9.41,0,0,0-1.81.18,11,11,0,0,0-1.78.51,7.5,7.5,0,0,0-.91.42V170Zm4.5,25.88a4.1,4.1,0,0,1-1.71-.36,4.56,4.56,0,0,1-1.43-1,4.7,4.7,0,0,1-1-1.53,5.38,5.38,0,0,1-.35-2,5,5,0,0,1,.35-1.82,5.45,5.45,0,0,1,1-1.58,5.12,5.12,0,0,1,1.46-1.09,3.65,3.65,0,0,1,1.67-.38,4.12,4.12,0,0,1,1.71.35,4.49,4.49,0,0,1,1.42,1,4.72,4.72,0,0,1,1,1.55,5.25,5.25,0,0,1,.36,2,5.17,5.17,0,0,1-.36,1.95,4.61,4.61,0,0,1-1,1.54,4.4,4.4,0,0,1-1.43,1,4.05,4.05,0,0,1-1.7.36Z"/><path class="cls-3" d="M293.39,203V179.5h6.91V203Zm3.47-24.57a4.38,4.38,0,0,1-1.73-.35,4.49,4.49,0,0,1-1.39-.94,4.44,4.44,0,0,1-.94-1.38,4.35,4.35,0,0,1,0-3.42,4.42,4.42,0,0,1,2.33-2.33,4.43,4.43,0,0,1,3.45,0,4.63,4.63,0,0,1,1.4.93,4.51,4.51,0,0,1,.95,1.4,4.35,4.35,0,0,1,0,3.42,4.46,4.46,0,0,1-.95,1.39,4.82,4.82,0,0,1-1.4.93A4.37,4.37,0,0,1,296.86,178.42Z"/><path class="cls-4" d="M296.86,170.24a3.79,3.79,0,0,1,1.49.31,3.89,3.89,0,0,1,1.21.81,3.68,3.68,0,0,1,.83,1.21,3.75,3.75,0,0,1,0,2.94,3.74,3.74,0,0,1-.83,1.2,3.89,3.89,0,0,1-1.21.81,3.62,3.62,0,0,1-1.49.31,3.55,3.55,0,0,1-1.49-.31,3.78,3.78,0,0,1-1.21-.81,3.85,3.85,0,0,1-.81-1.2,3.75,3.75,0,0,1,0-2.94,3.75,3.75,0,0,1,2-2,3.71,3.71,0,0,1,1.49-.31m2.85,9.86v22.3H294V180.1h5.73m-2.85-11a5,5,0,0,0-3.54,1.46,5,5,0,0,0-1.06,1.58,4.93,4.93,0,0,0,0,3.89,5.13,5.13,0,0,0,1.06,1.56,4.83,4.83,0,0,0,1.58,1.06,4.72,4.72,0,0,0,.92.3h-3v24.68h8.1V178.91h-3a5,5,0,0,0,.93-.3,5.19,5.19,0,0,0,1.58-1.05,4.92,4.92,0,0,0,1.07-1.57,4.78,4.78,0,0,0,.41-2,4.9,4.9,0,0,0-.4-1.93,5.2,5.2,0,0,0-1.08-1.59,5,5,0,0,0-1.58-1,4.88,4.88,0,0,0-2-.4Z"/><path class="cls-3" d="M315.23,203a10.3,10.3,0,0,1-4.11-.83,10.67,10.67,0,0,1-5.63-5.63,10.27,10.27,0,0,1-.83-4.11v-6h-2.77v-6.86h2.77v-8.91h6.85v8.91h8.62v6.86h-8.62v6a3.7,3.7,0,0,0,2.27,3.43,3.72,3.72,0,0,0,1.45.29h4.9V203Z"/><path class="cls-4" d="M310.92,171.22v8.92h8.62v5.66h-8.62v6.62a4.27,4.27,0,0,0,.33,1.68,4.43,4.43,0,0,0,.91,1.37,4.57,4.57,0,0,0,1.38.92,4.19,4.19,0,0,0,1.69.35h4.31v5.66h-4.31a9.71,9.71,0,0,1-3.88-.78,10,10,0,0,1-3.17-2.15A9.94,9.94,0,0,1,306,196.3a9.71,9.71,0,0,1-.78-3.88V185.8h-2.77v-5.66h2.77v-8.92h5.67M312.1,170h-8V179h-2.77v8h2.77v5.43a10.94,10.94,0,0,0,.88,4.35,11.25,11.25,0,0,0,5.94,5.94,10.94,10.94,0,0,0,4.35.88h5.5v-8h-5.5a2.93,2.93,0,0,1-1.22-.25,3.21,3.21,0,0,1-1-.68,3,3,0,0,1-.66-1,3.09,3.09,0,0,1-.24-1.22V187h8.63v-8H312.1V170Z"/><path class="cls-3" d="M154,241.62a13,13,0,0,1-4.64-.83,11.12,11.12,0,0,1-3.83-2.43,11.65,11.65,0,0,1-2.58-3.89,13.82,13.82,0,0,1-.94-5.21,13.13,13.13,0,0,1,.94-5,12,12,0,0,1,2.58-3.93,11.52,11.52,0,0,1,3.81-2.56,12.13,12.13,0,0,1,4.66-.91,9.33,9.33,0,0,1,2.29.29,11,11,0,0,1,2.17.79,13,13,0,0,1,2,1.18,16.06,16.06,0,0,1,1.29,1l2-2.38H166v23.45H163.7l-2-2.78c-.41.34-.84.66-1.28,1a14.14,14.14,0,0,1-2,1.16,11.61,11.61,0,0,1-2.16.77A8.86,8.86,0,0,1,154,241.62Zm0-17.82a5.71,5.71,0,0,0-2,.35,4.5,4.5,0,0,0-1.58,1,5,5,0,0,0-1.06,1.7,6.53,6.53,0,0,0-.4,2.38,6.45,6.45,0,0,0,.4,2.38,4.92,4.92,0,0,0,1.06,1.7,4.5,4.5,0,0,0,1.58,1,5.49,5.49,0,0,0,2,.36,4.28,4.28,0,0,0,1.93-.45,5.62,5.62,0,0,0,1.63-1.22,6.26,6.26,0,0,0,1.11-1.76,5.38,5.38,0,0,0,0-4.07,6.12,6.12,0,0,0-1.11-1.76,5.48,5.48,0,0,0-1.63-1.23A4.4,4.4,0,0,0,154,223.8Z"/><path class="cls-4" d="M154,217.45a8.66,8.66,0,0,1,2.14.27,10.8,10.8,0,0,1,2.06.75,12.62,12.62,0,0,1,1.91,1.13,16.34,16.34,0,0,1,1.7,1.39l2.21-2.64h1.37v22.26H164l-2.21-3.06a19.13,19.13,0,0,1-1.72,1.37,12.46,12.46,0,0,1-1.91,1.1,11.68,11.68,0,0,1-2,.74A8.52,8.52,0,0,1,154,241a12.26,12.26,0,0,1-4.43-.79,10.6,10.6,0,0,1-3.62-2.3,10.78,10.78,0,0,1-2.45-3.7,13,13,0,0,1-.89-5,12.4,12.4,0,0,1,.89-4.78,11.45,11.45,0,0,1,2.45-3.74,10.91,10.91,0,0,1,3.62-2.42,11.33,11.33,0,0,1,4.43-.87m0,17.87a4.9,4.9,0,0,0,2.2-.51,6.26,6.26,0,0,0,1.8-1.35,6.58,6.58,0,0,0,1.22-1.94,6,6,0,0,0,0-4.52,6.53,6.53,0,0,0-1.22-1.93,6.11,6.11,0,0,0-1.8-1.36,4.9,4.9,0,0,0-2.2-.51,6,6,0,0,0-2.2.4,5,5,0,0,0-1.79,1.16,5.46,5.46,0,0,0-1.2,1.91,7.87,7.87,0,0,0,0,5.19,5.41,5.41,0,0,0,1.2,1.9,5,5,0,0,0,1.79,1.17,6.17,6.17,0,0,0,2.2.39m0-19a12.76,12.76,0,0,0-4.89.95,12.31,12.31,0,0,0-4,2.69,12.62,12.62,0,0,0-2.71,4.12,13.76,13.76,0,0,0-1,5.23,14.32,14.32,0,0,0,1,5.43,12.1,12.1,0,0,0,2.72,4.1,11.85,11.85,0,0,0,4,2.56,13.46,13.46,0,0,0,4.85.87,10,10,0,0,0,2.43-.31,12.49,12.49,0,0,0,2.26-.82,13.51,13.51,0,0,0,2.08-1.2l.82-.61,1.46,2,.36.49h3.17V217.16h-3.12l-.36.43-1.42,1.71-.88-.67a14.4,14.4,0,0,0-2.08-1.23,12.72,12.72,0,0,0-2.28-.83,10.06,10.06,0,0,0-2.44-.3Zm0,17.87a4.88,4.88,0,0,1-1.77-.32,3.87,3.87,0,0,1-1.37-.89,4.27,4.27,0,0,1-.94-1.5,6,6,0,0,1-.36-2.17,5.92,5.92,0,0,1,.36-2.16,4.27,4.27,0,0,1,.94-1.5,3.61,3.61,0,0,1,1.37-.89,4.92,4.92,0,0,1,1.77-.32,3.69,3.69,0,0,1,1.67.39,4.85,4.85,0,0,1,1.45,1.09,5.37,5.37,0,0,1,1,1.58,4.86,4.86,0,0,1,0,3.62,5.42,5.42,0,0,1-1,1.59,5,5,0,0,1-1.45,1.09,3.69,3.69,0,0,1-1.67.39Z"/><path class="cls-3" d="M191.82,241.21V226.45a2.25,2.25,0,0,0-2.26-2.26,2.2,2.2,0,0,0-.86.17,2.29,2.29,0,0,0-.7.48,2.33,2.33,0,0,0-.49.74,2.29,2.29,0,0,0-.17.87v14.76h-6.87V226.45a2.25,2.25,0,0,0-2.26-2.26,2.24,2.24,0,0,0-.86.17,2.29,2.29,0,0,0-.7.48,2.45,2.45,0,0,0-.49.74,2.29,2.29,0,0,0-.17.87v14.76h-6.87v-23.5h2.23l1.35,1.49a9.82,9.82,0,0,1,2.33-1.29,8.79,8.79,0,0,1,3.18-.59,9,9,0,0,1,3.27.62,6.68,6.68,0,0,1,2.39,1.65,7.4,7.4,0,0,1,.83-.76,7.19,7.19,0,0,1,1.54-.88,7.37,7.37,0,0,1,1.66-.49,10.53,10.53,0,0,1,1.66-.14,9.05,9.05,0,0,1,3.56.71A9.32,9.32,0,0,1,196,220a9.13,9.13,0,0,1,2,2.91,9,9,0,0,1,.71,3.56v14.76Z"/><path class="cls-4" d="M189.56,217.91a8.21,8.21,0,0,1,3.32.67,8.44,8.44,0,0,1,4.53,4.54,8.29,8.29,0,0,1,.67,3.33v14.16h-5.67V226.45a2.7,2.7,0,0,0-.22-1.1,2.78,2.78,0,0,0-1.53-1.53,2.7,2.7,0,0,0-1.1-.22,2.66,2.66,0,0,0-1.09.22,2.76,2.76,0,0,0-.9.61,2.94,2.94,0,0,0-.82,2v14.16h-5.69V226.45a2.7,2.7,0,0,0-.22-1.1,2.78,2.78,0,0,0-1.53-1.53,2.7,2.7,0,0,0-1.1-.22,2.66,2.66,0,0,0-1.09.22,2.76,2.76,0,0,0-.9.61,2.94,2.94,0,0,0-.82,2v14.16h-5.69v-22.3h1.38l1.54,1.71a9.14,9.14,0,0,1,2.61-1.56,8.23,8.23,0,0,1,6,0,6.15,6.15,0,0,1,2.61,2,5.89,5.89,0,0,1,1.19-1.2,6.05,6.05,0,0,1,1.41-.81,6.73,6.73,0,0,1,1.53-.45,9.32,9.32,0,0,1,1.56-.14m0-1.19a10.57,10.57,0,0,0-1.76.16,8.06,8.06,0,0,0-1.8.52,7.46,7.46,0,0,0-1.65,1,6.12,6.12,0,0,0-.49.4,6.92,6.92,0,0,0-2.17-1.37,9.52,9.52,0,0,0-3.48-.67,9.41,9.41,0,0,0-3.4.64,10.56,10.56,0,0,0-2,1l-.81-.9-.36-.39h-3.09V241.8h8.07V226.45a1.69,1.69,0,0,1,.12-.64,1.87,1.87,0,0,1,.36-.55,1.6,1.6,0,0,1,.51-.35,1.64,1.64,0,0,1,.63-.12,1.69,1.69,0,0,1,.64.12,1.65,1.65,0,0,1,.9.9,1.69,1.69,0,0,1,.12.64V241.8h8.07V226.45a1.69,1.69,0,0,1,.12-.64,1.87,1.87,0,0,1,.36-.55,1.6,1.6,0,0,1,.51-.35,1.64,1.64,0,0,1,.63-.12,1.69,1.69,0,0,1,.64.12,1.65,1.65,0,0,1,.9.9,1.69,1.69,0,0,1,.12.64V241.8h8.05V226.45a9.56,9.56,0,0,0-.77-3.8,9.62,9.62,0,0,0-5.15-5.16,9.48,9.48,0,0,0-3.79-.77Z"/><path class="cls-3" d="M212.43,241.62a12,12,0,0,1-4.66-.92,11.73,11.73,0,0,1-3.81-2.56,12.11,12.11,0,0,1-2.58-3.91,12.94,12.94,0,0,1-.94-5,13.32,13.32,0,0,1,.94-5,11.51,11.51,0,0,1,6.39-6.45,12.13,12.13,0,0,1,4.66-.9,12,12,0,0,1,2.87.35,12.17,12.17,0,0,1,6.94,4.75l.26.37-10.28,12.4h.21a5.2,5.2,0,0,0,1.43-.2,5.46,5.46,0,0,0,1.3-.59,5.31,5.31,0,0,0,1.08-.93,4.94,4.94,0,0,0,.77-1.22l.35-.79,5.13,5.15-.29.41a11.79,11.79,0,0,1-1.92,2.13,12.11,12.11,0,0,1-2.34,1.6,12,12,0,0,1-5.51,1.33Zm0-17.82a5,5,0,0,0-2,.38,4.49,4.49,0,0,0-1.59,1.08,5.31,5.31,0,0,0-1.08,1.71,6.32,6.32,0,0,0-.39,2.29q0,.3,0,.66t.09.75l.06.3,5.4-7.15A5,5,0,0,0,212.43,223.8Z"/><path class="cls-4" d="M212.43,217.45a10.86,10.86,0,0,1,2.73.34,11.37,11.37,0,0,1,2.53,1,11.7,11.7,0,0,1,4.07,3.56l-10.67,12.85a3.3,3.3,0,0,0,.67.13c.22,0,.44,0,.67,0a5.34,5.34,0,0,0,1.6-.23,5.91,5.91,0,0,0,1.45-.65,5.7,5.7,0,0,0,1.21-1,5.55,5.55,0,0,0,.86-1.37l4.17,4.19a11.5,11.5,0,0,1-4.06,3.54,10.91,10.91,0,0,1-2.52,1,11.62,11.62,0,0,1-2.71.32,11.31,11.31,0,0,1-8.05-3.31,11.37,11.37,0,0,1-2.45-3.72,12.2,12.2,0,0,1-.89-4.74,12.59,12.59,0,0,1,.89-4.83,10.91,10.91,0,0,1,6.07-6.12,11.5,11.5,0,0,1,4.43-.86m-5,14.77,6.62-8.79a3.17,3.17,0,0,0-.78-.19c-.26,0-.53,0-.8,0a5.6,5.6,0,0,0-2.2.43,5.14,5.14,0,0,0-1.79,1.22,5.7,5.7,0,0,0-1.2,1.9,6.88,6.88,0,0,0-.44,2.51,6.2,6.2,0,0,0,0,.71,7.6,7.6,0,0,0,.1.8q.08.4.18.78a2.93,2.93,0,0,0,.27.67m5-15.95a12.66,12.66,0,0,0-4.88.94,12.1,12.1,0,0,0-6.72,6.77,13.9,13.9,0,0,0-1,5.28,13.6,13.6,0,0,0,1,5.2,13,13,0,0,0,2.7,4.1,12.58,12.58,0,0,0,14.68,2.25,12.84,12.84,0,0,0,2.46-1.67,12.3,12.3,0,0,0,2-2.24l.57-.81-.7-.71-4.17-4.18L217.17,230l-.7,1.58a4.74,4.74,0,0,1-.68,1.07,4.08,4.08,0,0,1-.95.81,4.63,4.63,0,0,1-1.15.53l-.07,0,9-10.92.58-.69-.52-.75a12.86,12.86,0,0,0-4.5-3.93,12.36,12.36,0,0,0-5.8-1.42ZM208,229.44v-.18a5.58,5.58,0,0,1,.36-2.07,4.27,4.27,0,0,1,1-1.52,4,4,0,0,1,1.38-.94,4.51,4.51,0,0,1,1.09-.3l-3.78,5Z"/><path class="cls-3" d="M223.27,241.21v-6.86h13.59a.73.73,0,0,0,.57-.24.76.76,0,0,0,.25-.58c0-.1,0-.22-.07-.25a1.83,1.83,0,0,0-.75-.13h-5.92a7.64,7.64,0,0,1-3-.61,8.07,8.07,0,0,1-2.43-1.66,7.72,7.72,0,0,1-1.63-2.45A7.74,7.74,0,0,1,225.5,220a7.59,7.59,0,0,1,5.44-2.23h12.11v6.85H230.94a.82.82,0,0,0-.82.82.84.84,0,0,0,.25.62.76.76,0,0,0,.57.24h5.92a8.39,8.39,0,0,1,3,.53,7.59,7.59,0,0,1,2.43,1.48,7,7,0,0,1,2.28,5.23,7.35,7.35,0,0,1-.61,3,8.13,8.13,0,0,1-1.64,2.43,7.62,7.62,0,0,1-2.44,1.65,7.48,7.48,0,0,1-3,.6Z"/><path class="cls-4" d="M242.46,218.35V224H230.94a1.42,1.42,0,0,0-1.41,1.42,1.4,1.4,0,0,0,.41,1,1.33,1.33,0,0,0,1,.43h5.92a7.66,7.66,0,0,1,2.75.49,6.76,6.76,0,0,1,2.24,1.36,6.51,6.51,0,0,1,1.53,2.11,6.4,6.4,0,0,1,.56,2.68,6.84,6.84,0,0,1-.56,2.76,7.35,7.35,0,0,1-1.53,2.25,6.84,6.84,0,0,1-2.24,1.52,6.93,6.93,0,0,1-2.75.55h-13V235h13a1.42,1.42,0,0,0,1.41-1.42.79.79,0,0,0-.41-.79,2.55,2.55,0,0,0-1-.19h-5.92a6.79,6.79,0,0,1-2.77-.56,7,7,0,0,1-2.25-1.53,7.28,7.28,0,0,1-1.51-2.26,7.25,7.25,0,0,1,0-5.54,7,7,0,0,1,3.76-3.76,7,7,0,0,1,2.77-.55h11.52m1.19-1.19H230.94a8.14,8.14,0,0,0-3.23.65,8.32,8.32,0,0,0-2.63,1.76,8.44,8.44,0,0,0-1.76,2.62,8.4,8.4,0,0,0,0,6.48,8.29,8.29,0,0,0,4.38,4.41,8,8,0,0,0,3.24.66h6a.15.15,0,0,1-.09,0H222.67v8h14.19a8.08,8.08,0,0,0,3.21-.65,8.18,8.18,0,0,0,2.63-1.77,8.64,8.64,0,0,0,1.76-2.61,8,8,0,0,0,.67-3.24,7.65,7.65,0,0,0-.67-3.18,7.76,7.76,0,0,0-1.8-2.49,8.16,8.16,0,0,0-2.63-1.59,8.86,8.86,0,0,0-3.17-.57h-5.92a.18.18,0,0,1-.15-.07.25.25,0,0,1-.08-.2.24.24,0,0,1,.23-.23h12.71v-8Z"/><path class="cls-3" d="M94.47,225.64c-8.37,0-20.64-9-23.25-12.82a34.06,34.06,0,0,1-2.78-3.75c-.85-1.33-1.72-2.86-2.58-4.54a49.17,49.17,0,0,1-2.24-5,32.8,32.8,0,0,1-1.38-4.27,4.68,4.68,0,0,1-.1-1.13,2.46,2.46,0,0,1,.69-1.83A5,5,0,0,1,65,191.25a13.82,13.82,0,0,0,3-1.46,26.41,26.41,0,0,0,3.06-2.54,17,17,0,0,0,3.23-5.3,17.55,17.55,0,0,0,1.13-5.08v-.11c0-.32,0-.65,0-1a10,10,0,0,0-.84-4.31,6.18,6.18,0,0,0-.78-1.27,8.88,8.88,0,0,0-4.73-2.63h0L68.43,170Q67.2,174.4,66,178.63c-1.4,4.86-2.76,9.46-4,13.7l-.9,3.25c-1.5,5.16-2.77,9-3.79,11.55a16.64,16.64,0,0,1-3.16,5.43,17.07,17.07,0,0,1-4.86,3.09A13.5,13.5,0,0,1,44,217.16c-1.88,0-4.12-.79-4.12-4.55a28.28,28.28,0,0,1,1-5.75c.65-2.64,1.65-6.15,3-10.44s2.76-8.47,4.24-12.6,3.09-8.37,4.76-12.65l.79-2c-.53.07-1.08.16-1.63.27a13.48,13.48,0,0,1-2.48.18,2.44,2.44,0,0,1-2.7-2.7,6,6,0,0,1,.59-2.37,6.15,6.15,0,0,1,1.36-2.07c1-.91,2.81-1.65,5.61-2.26-.14-.8-.28-1.63-.4-2.49a110.06,110.06,0,0,1-1.11-13.55,98.42,98.42,0,0,1,.53-12.93,36.37,36.37,0,0,1,2.18-9.62,5.18,5.18,0,0,1,3-3.28,3.66,3.66,0,0,1,1.18-.2,4.6,4.6,0,0,1,2.33.7,10.73,10.73,0,0,1,3.31,3.34,24.34,24.34,0,0,1,2.63,5.31A53.1,53.1,0,0,1,71,140.67,39.44,39.44,0,0,1,70.35,153a19.86,19.86,0,0,1-1.41,4.42,6,6,0,0,1-1.16,1.72c.46,0,.93,0,1.44.08.79-2.37,1.79-4.93,3-7.62a132.35,132.35,0,0,1,6.21-12.21,114.81,114.81,0,0,1,7-10.81,39.58,39.58,0,0,1,6.38-7.11,4.72,4.72,0,0,1,3-1.31,3.3,3.3,0,0,1,.82.11,3.34,3.34,0,0,1,2.18,2.36,12.37,12.37,0,0,1,.47,4.6,30,30,0,0,1-1,5.92A66.18,66.18,0,0,1,92.45,146a46.11,46.11,0,0,1-6.73,10.21,20.76,20.76,0,0,1-3.2,3.05,4.07,4.07,0,0,1-2.24.94h0a2,2,0,0,1-.43-.05,1.26,1.26,0,0,1-.91-.82,1.89,1.89,0,0,1-.07-.8c-.26.84-.51,1.71-.75,2.59A25.92,25.92,0,0,1,83,163.38c.46.28.89.55,1.3.84s.94.7,1.44,1.13a18.34,18.34,0,0,1,3.82,4.42,13.19,13.19,0,0,1,1.91,6.9,16.87,16.87,0,0,1-1.65,7.38A17.91,17.91,0,0,1,85.12,190a19.86,19.86,0,0,1-3.72,2.57,28.29,28.29,0,0,1-4.21,1.63,15.28,15.28,0,0,0,1,1.61,23.64,23.64,0,0,0,2,2.22c5.78,5.77,22.5,9.45,31.47,9.45h.43l.14.41c.58,1.75.21,3.93-1.09,6.28-2.72,5-8.95,9.87-14.17,11.17A9.42,9.42,0,0,1,94.47,225.64Zm-33.93-97c0,.44,0,1,0,1.79a57.85,57.85,0,0,0,.39,6.45c.58,4.73,1.13,8.69,1.63,11.78s1,5.67,1.49,7.67c.23.91.48,1.83.77,2.82h.31a2.56,2.56,0,0,1-.27-.55,8,8,0,0,1-.2-2.77,65.19,65.19,0,0,0-.3-7.43c0-.3-.07-.65-.11-1s-.09-.85-.19-1.48c-.4-3.27-1-6.69-1.71-10.17A70.34,70.34,0,0,0,60.54,128.62Zm30.75,2.08c-.16.25-.33.54-.53.87-1.1,1.85-2.13,3.78-3.06,5.76-2,4.36-3.71,8.06-5,11s-2.24,5.41-2.95,7.4l-.54,1.59a17.37,17.37,0,0,1,1-1.71c.9-1.41,2.12-3.61,3.61-6.55.13-.28.29-.6.46-.94s.37-.79.63-1.38c1.41-3,2.79-6.27,4.09-9.65C90,134.52,90.77,132.39,91.29,130.7Z"/><path class="cls-4" d="M59.82,118.74a4,4,0,0,1,2,.63A10,10,0,0,1,65,122.53a22.87,22.87,0,0,1,2.56,5.17,52.35,52.35,0,0,1,2.88,13,38.89,38.89,0,0,1-.64,12.13,19.3,19.3,0,0,1-1.37,4.3,3.61,3.61,0,0,1-1.73,2,1.08,1.08,0,0,1-.38.08c-.41,0-.71-.29-.91-.85a8.33,8.33,0,0,1-.16-2.55,66.59,66.59,0,0,0-.31-7.49c0-.33-.07-.67-.1-1s-.1-.87-.2-1.51c-.41-3.3-1-6.71-1.71-10.21a65,65,0,0,0-2.07-7.94c-.15-.43-.31-.65-.46-.65h-.06c-.27.1-.41,1.24-.4,3.42a56.76,56.76,0,0,0,.39,6.52q.87,7.15,1.63,11.8c.5,3.11,1,5.68,1.51,7.73.27,1.09.57,2.18.91,3.28.78,0,1.56-.05,2.38-.05,1,0,2,.06,2.91.14a81,81,0,0,1,3.11-8,136.19,136.19,0,0,1,6.18-12.15,113.74,113.74,0,0,1,6.94-10.76,38.61,38.61,0,0,1,6.27-7,4.11,4.11,0,0,1,2.63-1.18,3.07,3.07,0,0,1,.67.08,2.76,2.76,0,0,1,1.76,2,11.52,11.52,0,0,1,.45,4.37,29.59,29.59,0,0,1-1,5.79,65.79,65.79,0,0,1-4.77,12.72,45.52,45.52,0,0,1-6.64,10.08,20.46,20.46,0,0,1-3.11,3,3.6,3.6,0,0,1-1.89.83.86.86,0,0,1-.28,0c-.51-.13-.67-.58-.46-1.35a10.35,10.35,0,0,1,1.2-2.27q1.38-2.15,3.64-6.6c.14-.29.29-.61.46-1s.38-.8.65-1.4q2.13-4.57,4.1-9.67a80.74,80.74,0,0,0,2.7-7.91c.13-.51.13-.79,0-.83h0c-.25,0-.92.91-2,2.72s-2.14,3.82-3.08,5.81q-3.09,6.6-5,11t-3,7.43c-.68,1.92-1.29,3.91-1.83,5.94a26.82,26.82,0,0,1,5.26,2.44c.43.27.86.53,1.26.82s1,.73,1.41,1.11A17.21,17.21,0,0,1,89,170.08a12.52,12.52,0,0,1,1.83,6.59,16.12,16.12,0,0,1-1.6,7.12,17.28,17.28,0,0,1-4.51,5.74A19.29,19.29,0,0,1,81.13,192a29.19,29.19,0,0,1-4.82,1.81,18.41,18.41,0,0,0,1.45,2.32,24.76,24.76,0,0,0,2.08,2.28c5.92,5.91,22.62,9.62,31.89,9.62,1.86,5.57-7.42,14.84-14.84,16.7a9,9,0,0,1-2.42.3c-8.24,0-20.3-9-22.76-12.56a36.52,36.52,0,0,1-2.77-3.74c-.84-1.32-1.7-2.82-2.56-4.49a53,53,0,0,1-2.21-4.9,31.12,31.12,0,0,1-1.35-4.2,4.1,4.1,0,0,1-.09-1,1.87,1.87,0,0,1,.52-1.41,4.67,4.67,0,0,1,1.89-.95,14.31,14.31,0,0,0,3.18-1.52,27.94,27.94,0,0,0,3.14-2.61,17.35,17.35,0,0,0,3.37-5.52A17.78,17.78,0,0,0,76,176.91c0-.38.06-.75.06-1.13a10.45,10.45,0,0,0-.91-4.57,6.64,6.64,0,0,0-.85-1.38,9.57,9.57,0,0,0-5.28-2.9,2.79,2.79,0,0,1-.33.19h-.08c-.25.91-.51,1.8-.76,2.71-.81,2.93-1.63,5.81-2.44,8.63q-2,7.08-4,13.69l-.9,3.26q-2.25,7.74-3.77,11.48a16.47,16.47,0,0,1-3,5.24,16.24,16.24,0,0,1-4.69,3,13.16,13.16,0,0,1-5,1.46q-3.52,0-3.53-4a27.66,27.66,0,0,1,1-5.61q1-4,3-10.4c1.34-4.28,2.76-8.48,4.23-12.57s3.06-8.32,4.75-12.64l1.16-2.93c-.86.09-1.75.22-2.66.39a12.32,12.32,0,0,1-2.37.17,1.86,1.86,0,0,1-2.1-2.1,5.42,5.42,0,0,1,.53-2.13,5.62,5.62,0,0,1,1.23-1.87c1-.9,2.94-1.64,5.89-2.23-.18-1-.35-2-.51-3a109.27,109.27,0,0,1-1.09-13.48A95.58,95.58,0,0,1,54,131.32a36,36,0,0,1,2.14-9.47,4.63,4.63,0,0,1,2.7-2.94,3,3,0,0,1,1-.17m0-1.19h0a4,4,0,0,0-1.38.24A5.76,5.76,0,0,0,55,121.43a37.15,37.15,0,0,0-2.21,9.76,97.72,97.72,0,0,0-.53,13,111.54,111.54,0,0,0,1.11,13.63c.09.65.2,1.3.31,2-2.6.61-4.35,1.36-5.34,2.28a6.68,6.68,0,0,0-1.49,2.26,6.53,6.53,0,0,0-.64,2.61,3,3,0,0,0,3.29,3.29,13.9,13.9,0,0,0,2.6-.19l.58-.11-.41,1c-1.68,4.29-3.28,8.56-4.77,12.67s-2.91,8.37-4.25,12.62-2.36,7.83-3,10.48a28.8,28.8,0,0,0-1,5.89c0,3.27,1.72,5.15,4.72,5.15a14.17,14.17,0,0,0,5.49-1.57,17.2,17.2,0,0,0,5-3.21,17.3,17.3,0,0,0,3.29-5.63c1-2.52,2.31-6.42,3.81-11.6l.07-.24a35,35,0,0,0,1.38,4.27,52.81,52.81,0,0,0,2.27,5c.86,1.69,1.74,3.23,2.61,4.59a34.62,34.62,0,0,0,2.83,3.82c2.74,3.93,15.19,13,23.7,13a10.38,10.38,0,0,0,2.74-.35c5.34-1.33,11.73-6.37,14.52-11.45,1.38-2.51,1.77-4.85,1.13-6.76l-.27-.82h-.86c-8.87,0-25.38-3.61-31-9.27a25.47,25.47,0,0,1-2-2.16c-.19-.24-.39-.55-.62-.91a25.51,25.51,0,0,0,3.59-1.44,20.55,20.55,0,0,0,3.84-2.64,18.57,18.57,0,0,0,4.81-6.13A17.34,17.34,0,0,0,92,176.67a13.83,13.83,0,0,0-2-7.21,19.08,19.08,0,0,0-3.94-4.56c-.52-.44-1-.82-1.48-1.16s-.87-.58-1.3-.85a27.4,27.4,0,0,0-4.48-2.19c0-.13.07-.27.11-.4a1.89,1.89,0,0,0,.75.37,2.2,2.2,0,0,0,.58.08,4.56,4.56,0,0,0,2.58-1.06,21.11,21.11,0,0,0,3.31-3.14A46.73,46.73,0,0,0,93,146.22a66.78,66.78,0,0,0,4.86-12.94,30.46,30.46,0,0,0,1-6,12.66,12.66,0,0,0-.5-4.82,3.87,3.87,0,0,0-2.59-2.75,4,4,0,0,0-1-.12,5.28,5.28,0,0,0-3.4,1.46,39.92,39.92,0,0,0-6.46,7.2,114.78,114.78,0,0,0-7,10.87,137.35,137.35,0,0,0-6.24,12.26L71,152.93a40.19,40.19,0,0,0,.62-12.32,53,53,0,0,0-3-13.31A24,24,0,0,0,66,121.86a11.34,11.34,0,0,0-3.49-3.52,5.28,5.28,0,0,0-2.64-.79ZM64,153.69c-.31-1.5-.63-3.23-.94-5.15-.49-3.07-1-7-1.62-11.75-.14-1.16-.24-2.33-.3-3.5.18.79.37,1.63.55,2.52.73,3.46,1.3,6.87,1.7,10.11.1.64.16,1.13.19,1.48s.08.73.12,1.07c.16,2.05.26,3.8.3,5.22Zm18.53-3.47c.23-.55.47-1.1.72-1.68,1.18-2.77,2.75-6.24,4.66-10.33-1.14,2.87-2.33,5.64-3.54,8.24-.27.6-.48,1.05-.64,1.38s-.32.66-.46,1l-.74,1.42ZM62.78,191.6c1.21-4,2.48-8.29,3.78-12.8.78-2.72,1.58-5.54,2.44-8.65l.27-1c.08-.29.17-.58.25-.87a7.76,7.76,0,0,1,3.86,2.28,5.06,5.06,0,0,1,.7,1.15,9.4,9.4,0,0,1,.79,4.05c0,.3,0,.61,0,.94v.11a17,17,0,0,1-4.21,10,26.66,26.66,0,0,1-3,2.45,12.86,12.86,0,0,1-2.92,1.39,6.92,6.92,0,0,0-2,.91Z"/><path class="cls-3" d="M129.81,241.85a15.8,15.8,0,0,1-8.07-2.19,16.43,16.43,0,0,1-3.24-2.51A15.51,15.51,0,0,1,116,233.9a16.25,16.25,0,0,1-1.61-3.83,15.92,15.92,0,0,1-.58-4.26,15.69,15.69,0,0,1,.58-4.25,16.46,16.46,0,0,1,1.61-3.81,15.51,15.51,0,0,1,2.51-3.25,16,16,0,0,1,3.24-2.5,16.6,16.6,0,0,1,3.82-1.61,15.79,15.79,0,0,1,4.25-.57,16,16,0,0,1,5.54,1,16.27,16.27,0,0,1,4.82,2.83l.38.32-3.77,6.3-.54-.55a9.58,9.58,0,0,0-2.94-2,8.7,8.7,0,0,0-6.93,0,9.35,9.35,0,0,0-2.83,1.91,9,9,0,0,0-1.91,2.82,8.43,8.43,0,0,0-.7,3.44,8.61,8.61,0,0,0,.7,3.47,9,9,0,0,0,4.74,4.75,8.67,8.67,0,0,0,5.48.45,10,10,0,0,0,1.57-.55V230h-4.17v-6.85h11.1v2.06l0,.6v12.06l-.21.18a16.33,16.33,0,0,1-4.82,2.82A16,16,0,0,1,129.81,241.85Z"/><path class="cls-4" d="M129.81,210.41a15.31,15.31,0,0,1,5.33,1,15.15,15.15,0,0,1,4.64,2.72l-3.12,5.21a9.92,9.92,0,0,0-3.12-2.16,9.36,9.36,0,0,0-7.41,0,9.92,9.92,0,0,0-3,2,9.49,9.49,0,0,0-2,3,9.11,9.11,0,0,0-.75,3.68,9.2,9.2,0,0,0,.75,3.7,9.58,9.58,0,0,0,2,3,9.77,9.77,0,0,0,3,2,9.11,9.11,0,0,0,3.68.75,8.88,8.88,0,0,0,2.19-.27,10.2,10.2,0,0,0,2-.75v-4.9h-4.18v-5.66h9.92v2.07h0v11.78a15.15,15.15,0,0,1-4.64,2.72,15.33,15.33,0,0,1-13.1-1.16,15.9,15.9,0,0,1-3.12-2.42,15,15,0,0,1-2.42-3.13,15.48,15.48,0,0,1-1.55-3.69,15.13,15.13,0,0,1-.55-4.1,15,15,0,0,1,.55-4.09,15.69,15.69,0,0,1,1.55-3.67,15,15,0,0,1,2.42-3.13,15.44,15.44,0,0,1,3.12-2.4,15.51,15.51,0,0,1,7.77-2.11m0-1.18a16.52,16.52,0,0,0-4.41.59,16.62,16.62,0,0,0-7.32,4.26,16.71,16.71,0,0,0-2.61,3.37,17.21,17.21,0,0,0-1.66,4,16.13,16.13,0,0,0-.6,4.41,16.71,16.71,0,0,0,.59,4.42,17.46,17.46,0,0,0,1.67,4,16.43,16.43,0,0,0,2.61,3.37,17.26,17.26,0,0,0,3.36,2.6,16.39,16.39,0,0,0,4,1.68,16.13,16.13,0,0,0,4.41.6,16.5,16.5,0,0,0,10.74-3.95l.42-.36V224.62h0v-2.07h-12.3v8h4.18v2.95a10.62,10.62,0,0,1-1.13.36,7.42,7.42,0,0,1-1.89.24,7.8,7.8,0,0,1-3.2-.66,8.38,8.38,0,0,1-2.65-1.79,8.55,8.55,0,0,1-1.79-2.65,8.14,8.14,0,0,1-.65-3.23,7.92,7.92,0,0,1,.65-3.2A8.5,8.5,0,0,1,124,220a8.69,8.69,0,0,1,2.65-1.78,8,8,0,0,1,3.2-.65,8.06,8.06,0,0,1,3.25.68,9,9,0,0,1,2.75,1.9l1.08,1.09.79-1.31,3.12-5.21.52-.86-.77-.66a16.63,16.63,0,0,0-5-2.92,16.41,16.41,0,0,0-5.74-1Z"/></svg>