<svg id="Layer_1" data-name="Layer 1" xmlns="http://www.w3.org/2000/svg" viewBox="0 0 28.59 28.57"><defs><style>.cls-1{fill:#010d26;}.cls-2{fill:none;stroke:#010d26;stroke-linecap:round;stroke-linejoin:round;stroke-width:0.73px;}</style></defs><path class="cls-1" d="M34.37,10.9a4.88,4.88,0,0,1,4.06,4.77q0,9.12,0,18.23a4.87,4.87,0,0,1-3.06,4.47,11.35,11.35,0,0,1-1.14.32H28.84c0-3.42,0-6.85,0-10.27,0-.2.05-.25.25-.25h4.38V23.53h-4.6c0-.73,0-1.43,0-2.12a1,1,0,0,1,1.14-1h3.45V15.82c-1.38,0-2.74,0-4.1,0a4,4,0,0,0-2.17.76A5.93,5.93,0,0,0,24.57,21a21.89,21.89,0,0,0-.06,2.29,2.43,2.43,0,0,0,0,.27H21.34c-.18,0-.24,0-.24.23,0,1.39,0,2.79,0,4.18,0,.2.07.24.25.24h3.16V38.69H14.79l-.15,0a4.88,4.88,0,0,1-4.06-4.77q0-9.1,0-18.22a4.86,4.86,0,0,1,3.07-4.47,10,10,0,0,1,1.14-.33H34.23A.34.34,0,0,0,34.37,10.9Z" transform="translate(-10.21 -10.49)"/><path class="cls-2" d="M14.79,10.85H34.23a.34.34,0,0,0,.14.05,4.88,4.88,0,0,1,4.06,4.77q0,9.12,0,18.23a4.87,4.87,0,0,1-3.06,4.47,11.35,11.35,0,0,1-1.14.32H28.84c0-3.42,0-6.85,0-10.27,0-.2.05-.25.25-.25h4.38V23.53h-4.6c0-.73,0-1.43,0-2.12a1,1,0,0,1,1.14-1h3.45V15.82c-1.38,0-2.74,0-4.1,0a4,4,0,0,0-2.17.76A5.93,5.93,0,0,0,24.57,21a21.89,21.89,0,0,0-.06,2.29,2.43,2.43,0,0,0,0,.27H21.34c-.18,0-.24,0-.24.23,0,1.39,0,2.79,0,4.18,0,.2.07.24.25.24h3.16V38.69H14.79l-.15,0a4.88,4.88,0,0,1-4.06-4.77q0-9.1,0-18.22a4.86,4.86,0,0,1,3.07-4.47A10,10,0,0,1,14.79,10.85Z" transform="translate(-10.21 -10.49)"/></svg>