<svg id="Layer_1" data-name="Layer 1" xmlns="http://www.w3.org/2000/svg" viewBox="0 0 360 360"><defs><style>.cls-1{fill:#0d1426;}.cls-2,.cls-4{fill:#fff;}.cls-2{stroke:#a73a39;stroke-miterlimit:10;stroke-width:6px;}.cls-3,.cls-5{fill:#a73a39;}.cls-5{font-size:81.23px;font-family:OdibeeSans-Regular, Odibee Sans;}.cls-6{letter-spacing:-0.08em;}.cls-7{letter-spacing:-0.01em;}.cls-8{letter-spacing:-0.04em;}.cls-9{letter-spacing:0em;}.cls-10{letter-spacing:-0.05em;}.cls-11{letter-spacing:-0.03em;}.cls-12{letter-spacing:-0.02em;}.cls-13{letter-spacing:-0.03em;}</style></defs><rect class="cls-1" width="360" height="360"/><rect class="cls-2" x="20" y="20" width="320" height="320"/><path class="cls-3" d="M103.89,122.6a13,13,0,0,1-4.64-.83,11.29,11.29,0,0,1-3.83-2.44,11.55,11.55,0,0,1-2.58-3.89,13.82,13.82,0,0,1-.94-5.21,13.17,13.17,0,0,1,.94-5,12,12,0,0,1,2.58-3.93,11.83,11.83,0,0,1,3.81-2.56,12.13,12.13,0,0,1,4.66-.91,9.4,9.4,0,0,1,2.29.29,12.27,12.27,0,0,1,2.17.79,13.82,13.82,0,0,1,2,1.18,16.06,16.06,0,0,1,1.29,1l2-2.38h2.24v23.45H113.6l-2-2.78c-.41.34-.84.67-1.28,1a14.14,14.14,0,0,1-2,1.16,13,13,0,0,1-2.16.78A9.32,9.32,0,0,1,103.89,122.6Zm0-17.83a5.71,5.71,0,0,0-2,.35,4.65,4.65,0,0,0-1.58,1,5,5,0,0,0-1.06,1.7,6.53,6.53,0,0,0-.4,2.38,6.45,6.45,0,0,0,.4,2.38,5.06,5.06,0,0,0,1.06,1.71,4.48,4.48,0,0,0,1.58,1,5.49,5.49,0,0,0,2,.36,4.28,4.28,0,0,0,1.93-.45,5.45,5.45,0,0,0,1.63-1.22,6.26,6.26,0,0,0,1.11-1.76,5.38,5.38,0,0,0,0-4.07,6.26,6.26,0,0,0-1.11-1.76,5.28,5.28,0,0,0-1.63-1.22A4.28,4.28,0,0,0,103.89,104.77Z"/><path class="cls-4" d="M103.89,98.43a8.66,8.66,0,0,1,2.14.27,11.15,11.15,0,0,1,2.07.75,13,13,0,0,1,1.9,1.12,16.43,16.43,0,0,1,1.7,1.4l2.21-2.65h1.37v22.27h-1.37l-2.21-3.07a19.13,19.13,0,0,1-1.72,1.37,12.46,12.46,0,0,1-1.91,1.1,11.68,11.68,0,0,1-2,.74,8.52,8.52,0,0,1-2.13.27,12.26,12.26,0,0,1-4.43-.79,10.45,10.45,0,0,1-3.62-2.3,10.78,10.78,0,0,1-2.45-3.7,13,13,0,0,1-.89-5,12.44,12.44,0,0,1,.89-4.78,11.31,11.31,0,0,1,2.45-3.73,11.09,11.09,0,0,1,3.62-2.43,11.32,11.32,0,0,1,4.43-.86m0,17.86a4.77,4.77,0,0,0,2.2-.51,6.26,6.26,0,0,0,1.8-1.35,6.58,6.58,0,0,0,1.22-1.94,6,6,0,0,0,.44-2.26,6.1,6.1,0,0,0-.44-2.26,6.66,6.66,0,0,0-1.22-1.93,6.29,6.29,0,0,0-1.8-1.36,4.9,4.9,0,0,0-2.2-.51,6.18,6.18,0,0,0-2.2.4,4.88,4.88,0,0,0-1.79,1.17,5.41,5.41,0,0,0-1.2,1.9,7.87,7.87,0,0,0,0,5.19,5.41,5.41,0,0,0,1.2,1.9,4.88,4.88,0,0,0,1.79,1.17,6.17,6.17,0,0,0,2.2.39m0-19.05a12.67,12.67,0,0,0-4.88,1,12.25,12.25,0,0,0-4,2.69A12.73,12.73,0,0,0,92.29,105a13.76,13.76,0,0,0-1,5.23,14.32,14.32,0,0,0,1,5.43,12,12,0,0,0,2.72,4.1,11.64,11.64,0,0,0,4,2.56,13.46,13.46,0,0,0,4.85.87,9.58,9.58,0,0,0,2.43-.31,13.25,13.25,0,0,0,2.26-.81,13.92,13.92,0,0,0,2.08-1.21c.28-.19.55-.4.82-.61l1.46,2,.36.49h3.17V98.13h-3.12l-.36.43-1.42,1.71-.88-.67a13.49,13.49,0,0,0-2.08-1.22,11.35,11.35,0,0,0-2.28-.83,9.6,9.6,0,0,0-2.44-.31Zm0,17.87a4.88,4.88,0,0,1-1.77-.32,3.74,3.74,0,0,1-1.37-.89,4.27,4.27,0,0,1-.94-1.5,6.69,6.69,0,0,1,0-4.33,4.27,4.27,0,0,1,.94-1.5,3.74,3.74,0,0,1,1.37-.89,4.92,4.92,0,0,1,1.77-.32,3.69,3.69,0,0,1,1.67.39,4.85,4.85,0,0,1,1.45,1.09,5.3,5.3,0,0,1,1,1.59,4.71,4.71,0,0,1,0,3.61,5.42,5.42,0,0,1-1,1.59,4.85,4.85,0,0,1-1.45,1.09,3.69,3.69,0,0,1-1.67.39Z"/><path class="cls-3" d="M130.55,122.6a12,12,0,0,1-8.48-3.49,12.08,12.08,0,0,1-2.57-3.91,12.94,12.94,0,0,1-.94-5V89.81h6.89v9.61l.18-.13a7.37,7.37,0,0,1,1.55-.81,9.66,9.66,0,0,1,1.67-.48,9,9,0,0,1,1.7-.17,12.06,12.06,0,0,1,4.68.93,11.9,11.9,0,0,1,3.8,2.6,12.37,12.37,0,0,1,2.56,3.93,12.71,12.71,0,0,1,.94,4.94,13,13,0,0,1-.94,5,12,12,0,0,1-2.56,3.91,11.52,11.52,0,0,1-3.81,2.54A12.33,12.33,0,0,1,130.55,122.6Zm0-17.83a4.29,4.29,0,0,0-1.94.45,5.24,5.24,0,0,0-1.62,1.22,5.62,5.62,0,0,0-1.1,1.76,5.47,5.47,0,0,0-.39,2,5.91,5.91,0,0,0,.39,2.18,5.41,5.41,0,0,0,1.09,1.73,5.08,5.08,0,0,0,1.61,1.14,4.66,4.66,0,0,0,2,.42,4.77,4.77,0,0,0,1.95-.41,5.27,5.27,0,0,0,1.61-1.15,5.62,5.62,0,0,0,1.1-1.73,6,6,0,0,0,0-4.36,5.55,5.55,0,0,0-1.1-1.74,5.12,5.12,0,0,0-1.61-1.14A4.79,4.79,0,0,0,130.55,104.77Z"/><path class="cls-4" d="M124.86,90.41v10.41a5.52,5.52,0,0,1,1.11-1,6.22,6.22,0,0,1,1.42-.75,10.46,10.46,0,0,1,1.57-.45,8.72,8.72,0,0,1,1.59-.15,11.17,11.17,0,0,1,4.44.88,11,11,0,0,1,3.62,2.47,11.68,11.68,0,0,1,2.43,3.74,12.09,12.09,0,0,1,.9,4.71A12.35,12.35,0,0,1,141,115a11.27,11.27,0,0,1-2.43,3.72,10.88,10.88,0,0,1-3.62,2.41,11.51,11.51,0,0,1-4.44.85,11.22,11.22,0,0,1-10.5-7,12.17,12.17,0,0,1-.9-4.74V90.41h5.71m5.69,25.88a5.25,5.25,0,0,0,2.19-.46,5.79,5.79,0,0,0,1.8-1.28,6.16,6.16,0,0,0,1.22-1.92,6.62,6.62,0,0,0,0-4.8,6,6,0,0,0-1.22-1.93,5.6,5.6,0,0,0-1.8-1.27,5.41,5.41,0,0,0-2.19-.46,4.9,4.9,0,0,0-2.2.51,6,6,0,0,0-1.8,1.36,6.23,6.23,0,0,0-1.21,1.93,6.1,6.1,0,0,0-.44,2.26,6.48,6.48,0,0,0,.44,2.4,6,6,0,0,0,1.21,1.92,5.79,5.79,0,0,0,1.8,1.28,5.29,5.29,0,0,0,2.2.46m-4.5-27.07H118v21a13.6,13.6,0,0,0,1,5.2,12.83,12.83,0,0,0,2.7,4.1,12.5,12.5,0,0,0,8.9,3.66,12.86,12.86,0,0,0,4.89-.94,12.2,12.2,0,0,0,4-2.67,12.59,12.59,0,0,0,2.69-4.1,13.75,13.75,0,0,0,1-5.25,13.53,13.53,0,0,0-1-5.17,13.11,13.11,0,0,0-2.68-4.11,12.34,12.34,0,0,0-8.91-3.71,9.41,9.41,0,0,0-1.81.18,9.78,9.78,0,0,0-1.78.5,7.5,7.5,0,0,0-.91.42V89.22Zm4.5,25.89a4,4,0,0,1-1.71-.37,4.37,4.37,0,0,1-1.43-1,4.86,4.86,0,0,1-1-1.54,5.38,5.38,0,0,1-.35-2,4.9,4.9,0,0,1,.35-1.81,5.2,5.2,0,0,1,1-1.58,4.9,4.9,0,0,1,1.46-1.09,3.66,3.66,0,0,1,1.67-.39,4.13,4.13,0,0,1,1.71.36,4.31,4.31,0,0,1,1.42,1,4.82,4.82,0,0,1,1,1.55,5.25,5.25,0,0,1,.36,2,5.13,5.13,0,0,1-.36,2,4.82,4.82,0,0,1-1,1.55,4.53,4.53,0,0,1-1.43,1,3.91,3.91,0,0,1-1.7.37Z"/><path class="cls-3" d="M144.49,122.18V98.69h6.91v23.49ZM148,97.6a4.22,4.22,0,0,1-1.73-.35,4.46,4.46,0,0,1-1.39-.93,4.56,4.56,0,0,1-.94-1.38,4.35,4.35,0,0,1,0-3.42,4.53,4.53,0,0,1,.94-1.4,4.46,4.46,0,0,1,1.39-.93,4.31,4.31,0,0,1,3.45,0,4.45,4.45,0,0,1,1.4.93,4.28,4.28,0,0,1,.95,1.4,4.11,4.11,0,0,1,.35,1.7,4.34,4.34,0,0,1-.35,1.72,4.42,4.42,0,0,1-.95,1.38,4.63,4.63,0,0,1-1.4.93A4.17,4.17,0,0,1,148,97.6Z"/><path class="cls-4" d="M148,89.43a3.78,3.78,0,0,1,1.49.3,3.89,3.89,0,0,1,1.21.81,3.78,3.78,0,0,1,.83,1.21,3.72,3.72,0,0,1,.3,1.47,3.66,3.66,0,0,1-.3,1.48,3.74,3.74,0,0,1-.83,1.2,3.89,3.89,0,0,1-1.21.81A3.78,3.78,0,0,1,148,97a3.71,3.71,0,0,1-1.49-.3,3.78,3.78,0,0,1-1.21-.81,3.85,3.85,0,0,1-.81-1.2,3.66,3.66,0,0,1-.3-1.48,3.72,3.72,0,0,1,.3-1.47,3.89,3.89,0,0,1,.81-1.21,3.78,3.78,0,0,1,1.21-.81,3.71,3.71,0,0,1,1.49-.3m2.85,9.85v22.31h-5.73V99.28h5.73m-2.85-11a4.81,4.81,0,0,0-2,.4,5.22,5.22,0,0,0-1.58,1.06,5,5,0,0,0-1.06,1.58,5,5,0,0,0,0,3.9A5,5,0,0,0,146,97.8a4.11,4.11,0,0,0,.92.29h-3v24.68H152V98.09h-3a5,5,0,0,0,.93-.29,5.28,5.28,0,0,0,1.58-1.06,5,5,0,0,0,1.07-1.56,4.81,4.81,0,0,0,.41-2,4.95,4.95,0,0,0-1.48-3.52,5.28,5.28,0,0,0-1.58-1.06,4.88,4.88,0,0,0-2-.4Z"/><path class="cls-3" d="M165.3,122.6a11.93,11.93,0,0,1-8.47-3.52,12.24,12.24,0,0,1-2.57-3.92,13.35,13.35,0,0,1,0-9.84,12.33,12.33,0,0,1,2.57-3.94,12.06,12.06,0,0,1,3.81-2.6,11.63,11.63,0,0,1,4.66-1A11.81,11.81,0,0,1,167,98a9,9,0,0,1,1.68.44,6.74,6.74,0,0,1,1.55.81l.2.14V89.81h6.91v32.37H175l-2-2.78c-.41.34-.83.67-1.27,1a13,13,0,0,1-4.15,1.94A9.33,9.33,0,0,1,165.3,122.6Zm0-17.83a5.19,5.19,0,0,0-2,.37,4.67,4.67,0,0,0-1.59,1.06,5,5,0,0,0-1.07,1.71,6.49,6.49,0,0,0-.39,2.32,5.74,5.74,0,0,0,.39,2.12,5.81,5.81,0,0,0,1.09,1.75,5,5,0,0,0,1.6,1.18,4.57,4.57,0,0,0,1.94.42,4.29,4.29,0,0,0,1.94-.45,5.4,5.4,0,0,0,1.62-1.22,5.84,5.84,0,0,0,1.11-1.76,5.26,5.26,0,0,0,0-4.07,5.84,5.84,0,0,0-1.11-1.76,5.24,5.24,0,0,0-1.62-1.22A4.29,4.29,0,0,0,165.3,104.77Z"/><path class="cls-4" d="M176.7,90.41v31.18h-1.38l-2.21-3.07a19,19,0,0,1-1.71,1.37,13,13,0,0,1-1.91,1.1,12,12,0,0,1-2.05.74,8.54,8.54,0,0,1-2.14.27,11.17,11.17,0,0,1-8-3.34,11.52,11.52,0,0,1-2.45-3.73,12.67,12.67,0,0,1,0-9.38,11.61,11.61,0,0,1,2.45-3.75,11.23,11.23,0,0,1,3.62-2.48,11,11,0,0,1,4.42-.89,10.65,10.65,0,0,1,1.56.12,7.8,7.8,0,0,1,1.56.41,6.07,6.07,0,0,1,1.43.74,4.42,4.42,0,0,1,1.12,1.12V90.41h5.73m-11.4,25.88a4.74,4.74,0,0,0,2.2-.51,6,6,0,0,0,1.8-1.35,6.38,6.38,0,0,0,1.22-1.94,5.84,5.84,0,0,0,.45-2.26,5.92,5.92,0,0,0-.45-2.26A6.45,6.45,0,0,0,169.3,106a6,6,0,0,0-1.8-1.36,4.87,4.87,0,0,0-2.2-.51,5.77,5.77,0,0,0-2.19.42,5.13,5.13,0,0,0-1.79,1.2,5.51,5.51,0,0,0-1.2,1.9,7,7,0,0,0-.44,2.54,6.36,6.36,0,0,0,.44,2.34,6.16,6.16,0,0,0,1.2,1.93,5.45,5.45,0,0,0,1.79,1.32,5.13,5.13,0,0,0,2.19.47m12.59-27.07h-8.11v9a7.43,7.43,0,0,0-.95-.43,9.23,9.23,0,0,0-1.79-.46,10.37,10.37,0,0,0-1.74-.14,12.21,12.21,0,0,0-4.89,1,12.5,12.5,0,0,0-4,2.74,12.86,12.86,0,0,0-2.7,4.12,13.89,13.89,0,0,0,0,10.3,12.67,12.67,0,0,0,2.7,4.1,12.38,12.38,0,0,0,8.89,3.7,9.6,9.6,0,0,0,2.44-.31,13.25,13.25,0,0,0,2.26-.81,14.44,14.44,0,0,0,2.08-1.21c.28-.19.55-.4.82-.61l1.46,2,.35.49h3.18V89.22ZM165.3,115.11a3.9,3.9,0,0,1-1.69-.37,4.57,4.57,0,0,1-1.42-1,5.12,5.12,0,0,1-1.32-3.47,5.76,5.76,0,0,1,.36-2.11,4.31,4.31,0,0,1,.94-1.5,4,4,0,0,1,1.38-.93,4.62,4.62,0,0,1,1.75-.33,3.73,3.73,0,0,1,1.68.39,5,5,0,0,1,1.45,1.09,5.4,5.4,0,0,1,1,1.59,4.71,4.71,0,0,1,0,3.61,5.4,5.4,0,0,1-1,1.59,5,5,0,0,1-1.45,1.09,3.73,3.73,0,0,1-1.68.39Z"/><path class="cls-3" d="M205,122.18l-2.6-6-5.71,0v6h-7.16V91.13h12.55a12.6,12.6,0,0,1,3.32.44,12.81,12.81,0,0,1,3,1.27,12.65,12.65,0,0,1,5.77,7.51,12.39,12.39,0,0,1,0,6.47,12.91,12.91,0,0,1-1.16,2.91,12.05,12.05,0,0,1-1.85,2.54,12.9,12.9,0,0,1-2,1.73l3.47,8.18Zm-2.92-13.12a5.14,5.14,0,0,0,2.07-.42,5.49,5.49,0,0,0,1.72-1.16,5.41,5.41,0,0,0,1.15-1.72,5.37,5.37,0,0,0-1.16-5.89,5.34,5.34,0,0,0-1.71-1.16,5.14,5.14,0,0,0-2.07-.42h-5.39v10.77Z"/><path class="cls-4" d="M202.12,91.72a11.43,11.43,0,0,1,3.16.43,11.78,11.78,0,0,1,2.85,1.2,12.51,12.51,0,0,1,2.41,1.88,12,12,0,0,1,1.88,2.43,11.78,11.78,0,0,1,1.2,2.85,11.43,11.43,0,0,1,.43,3.16,12,12,0,0,1-.38,3,12.15,12.15,0,0,1-1.11,2.77,11.52,11.52,0,0,1-1.76,2.42,11.93,11.93,0,0,1-2.33,1.91l3.31,7.82h-6.35l-2.6-6-6.69,0v6h-6V91.72h12m-6,17.93h6a5.62,5.62,0,0,0,2.31-.47,6,6,0,0,0,1.89-1.28,6.09,6.09,0,0,0,1.29-1.9,6.11,6.11,0,0,0,0-4.65,6,6,0,0,0-1.29-1.9,5.85,5.85,0,0,0-1.89-1.28,5.62,5.62,0,0,0-2.31-.47h-6v12m6-19.12H189v32.24h8.35v-6l4.72,0,2.29,5.3.31.71h8.93l-.7-1.65-2.94-6.91a13.32,13.32,0,0,0,1.73-1.54A12.55,12.55,0,0,0,213.6,110a13.05,13.05,0,0,0,1.21-3,12.63,12.63,0,0,0,.43-3.31,13,13,0,0,0-.47-3.48,13.24,13.24,0,0,0-1.33-3.14,13,13,0,0,0-2.06-2.66,13.19,13.19,0,0,0-2.65-2.06A13.33,13.33,0,0,0,205.61,91a13.06,13.06,0,0,0-3.49-.47Zm-4.79,8.36h4.79a4.55,4.55,0,0,1,1.84.37,4.7,4.7,0,0,1,1.52,1,4.75,4.75,0,0,1,1,5.24,4.74,4.74,0,0,1-1,1.53,4.86,4.86,0,0,1-1.52,1,4.55,4.55,0,0,1-1.84.37h-4.79V98.89Z"/><path class="cls-3" d="M227.32,122.6a13,13,0,0,1-4.64-.83,11.29,11.29,0,0,1-3.83-2.44,11.65,11.65,0,0,1-2.58-3.89,13.75,13.75,0,0,1-.94-5.21,13.13,13.13,0,0,1,.94-5,11.74,11.74,0,0,1,6.39-6.49,12.13,12.13,0,0,1,4.66-.91,9.4,9.4,0,0,1,2.29.29,12.27,12.27,0,0,1,2.17.79,13.2,13.2,0,0,1,2,1.18,14.61,14.61,0,0,1,1.3,1l2-2.38h2.24v23.45H237l-2-2.78c-.41.34-.84.67-1.28,1a14.14,14.14,0,0,1-2,1.16,13,13,0,0,1-2.16.78A9.32,9.32,0,0,1,227.32,122.6Zm0-17.83a5.71,5.71,0,0,0-2,.35,4.65,4.65,0,0,0-1.58,1,5,5,0,0,0-1.06,1.7,6.53,6.53,0,0,0-.4,2.38,6.45,6.45,0,0,0,.4,2.38,5.06,5.06,0,0,0,1.06,1.71,4.65,4.65,0,0,0,1.58,1,5.71,5.71,0,0,0,2,.35,4.28,4.28,0,0,0,1.93-.45,5.28,5.28,0,0,0,1.63-1.22,6.26,6.26,0,0,0,1.11-1.76,5.38,5.38,0,0,0,0-4.07,6.26,6.26,0,0,0-1.11-1.76,5.28,5.28,0,0,0-1.63-1.22A4.28,4.28,0,0,0,227.32,104.77Z"/><path class="cls-4" d="M227.32,98.43a8.66,8.66,0,0,1,2.14.27,10.8,10.8,0,0,1,2.06.75,12.57,12.57,0,0,1,1.91,1.12,16.43,16.43,0,0,1,1.7,1.4l2.21-2.65h1.37v22.27h-1.37l-2.21-3.07a19.13,19.13,0,0,1-1.72,1.37,12.46,12.46,0,0,1-1.91,1.1,11.68,11.68,0,0,1-2.05.74,8.52,8.52,0,0,1-2.13.27,12.26,12.26,0,0,1-4.43-.79,10.45,10.45,0,0,1-3.62-2.3,10.78,10.78,0,0,1-2.45-3.7,13,13,0,0,1-.89-5,12.44,12.44,0,0,1,.89-4.78,11.31,11.31,0,0,1,2.45-3.73,11.09,11.09,0,0,1,3.62-2.43,11.32,11.32,0,0,1,4.43-.86m0,17.86a4.7,4.7,0,0,0,2.19-.51,6.17,6.17,0,0,0,1.81-1.35,6.58,6.58,0,0,0,1.22-1.94,6,6,0,0,0,.44-2.26,6.1,6.1,0,0,0-.44-2.26,6.66,6.66,0,0,0-1.22-1.93,6.2,6.2,0,0,0-1.81-1.36,4.83,4.83,0,0,0-2.19-.51,6.18,6.18,0,0,0-2.2.4,4.88,4.88,0,0,0-1.79,1.17,5.41,5.41,0,0,0-1.2,1.9,7.87,7.87,0,0,0,0,5.19,5.41,5.41,0,0,0,1.2,1.9,4.88,4.88,0,0,0,1.79,1.17,6.17,6.17,0,0,0,2.2.39m0-19.05a12.76,12.76,0,0,0-4.89,1,12.31,12.31,0,0,0-4,2.69,12.73,12.73,0,0,0-2.71,4.12,13.76,13.76,0,0,0-1,5.23,14.32,14.32,0,0,0,1,5.43,12,12,0,0,0,2.72,4.1,11.64,11.64,0,0,0,4,2.56,13.46,13.46,0,0,0,4.85.87,9.58,9.58,0,0,0,2.43-.31,13.25,13.25,0,0,0,2.26-.81,13.92,13.92,0,0,0,2.08-1.21c.28-.19.55-.4.82-.61l1.46,2,.36.49h3.17V98.13h-3.12l-.36.43L235,100.27l-.88-.67A13.49,13.49,0,0,0,232,98.38a11.35,11.35,0,0,0-2.28-.83,9.66,9.66,0,0,0-2.44-.31Zm0,17.87a4.88,4.88,0,0,1-1.77-.32,3.74,3.74,0,0,1-1.37-.89,4.27,4.27,0,0,1-.94-1.5,6.69,6.69,0,0,1,0-4.33,4.27,4.27,0,0,1,.94-1.5,3.74,3.74,0,0,1,1.37-.89,4.92,4.92,0,0,1,1.77-.32,3.69,3.69,0,0,1,1.67.39,4.85,4.85,0,0,1,1.45,1.09,5.3,5.3,0,0,1,1,1.59,4.83,4.83,0,0,1,0,3.61,5.42,5.42,0,0,1-1,1.59,4.85,4.85,0,0,1-1.45,1.09,3.69,3.69,0,0,1-1.67.39Z"/><path class="cls-3" d="M254,122.6a12,12,0,0,1-8.48-3.49,12.08,12.08,0,0,1-2.57-3.91,12.94,12.94,0,0,1-.94-5V89.81h6.89v9.61l.18-.13a7.37,7.37,0,0,1,1.55-.81,9.41,9.41,0,0,1,1.67-.48,9,9,0,0,1,1.7-.17,12,12,0,0,1,4.68.93,11.77,11.77,0,0,1,3.8,2.61,12.21,12.21,0,0,1,2.56,3.92,12.71,12.71,0,0,1,.94,4.94,13,13,0,0,1-.94,5,12,12,0,0,1-2.56,3.91,11.52,11.52,0,0,1-3.81,2.54A12.33,12.33,0,0,1,254,122.6Zm0-17.83a4.29,4.29,0,0,0-1.94.45,5.4,5.4,0,0,0-1.62,1.22,5.62,5.62,0,0,0-1.1,1.76,5.47,5.47,0,0,0-.39,2,5.91,5.91,0,0,0,.39,2.18,5.41,5.41,0,0,0,1.09,1.73,5.08,5.08,0,0,0,1.61,1.14,4.66,4.66,0,0,0,2,.42,4.77,4.77,0,0,0,2-.41,5.27,5.27,0,0,0,1.61-1.15,5.62,5.62,0,0,0,1.1-1.73,6,6,0,0,0,0-4.36,5.55,5.55,0,0,0-1.1-1.74,5.12,5.12,0,0,0-1.61-1.14A4.79,4.79,0,0,0,254,104.77Z"/><path class="cls-4" d="M248.29,90.41v10.41a5.52,5.52,0,0,1,1.11-1,6.22,6.22,0,0,1,1.42-.75,10.46,10.46,0,0,1,1.57-.45,8.72,8.72,0,0,1,1.59-.15,11.17,11.17,0,0,1,4.44.88,10.9,10.9,0,0,1,3.61,2.47,11.54,11.54,0,0,1,2.44,3.74,12.09,12.09,0,0,1,.9,4.71,12.35,12.35,0,0,1-.9,4.79,11.14,11.14,0,0,1-2.44,3.72,10.74,10.74,0,0,1-3.61,2.41A11.51,11.51,0,0,1,254,122a11.22,11.22,0,0,1-10.5-7,12.17,12.17,0,0,1-.9-4.74V90.41h5.71M254,116.29a5.25,5.25,0,0,0,2.19-.46,5.79,5.79,0,0,0,1.8-1.28,6.16,6.16,0,0,0,1.22-1.92,6.63,6.63,0,0,0,0-4.8A6,6,0,0,0,258,105.9a5.6,5.6,0,0,0-1.8-1.27,5.41,5.41,0,0,0-2.19-.46,4.9,4.9,0,0,0-2.2.51A6,6,0,0,0,250,106a6.23,6.23,0,0,0-1.21,1.93,6.1,6.1,0,0,0-.44,2.26,6.48,6.48,0,0,0,.44,2.4,6,6,0,0,0,1.21,1.92,5.79,5.79,0,0,0,1.8,1.28,5.29,5.29,0,0,0,2.2.46m-4.5-27.07H241.4v21a13.6,13.6,0,0,0,1,5.2,12.67,12.67,0,0,0,2.7,4.1,12.5,12.5,0,0,0,8.9,3.66,12.86,12.86,0,0,0,4.89-.94,12.2,12.2,0,0,0,4-2.67,12.59,12.59,0,0,0,2.69-4.1,14.2,14.2,0,0,0,0-10.42,13.11,13.11,0,0,0-2.68-4.11A12.34,12.34,0,0,0,254,97.24a9.41,9.41,0,0,0-1.81.18,9.78,9.78,0,0,0-1.78.5,7.5,7.5,0,0,0-.91.42V89.22Zm4.5,25.89a4,4,0,0,1-1.71-.37,4.37,4.37,0,0,1-1.43-1,4.86,4.86,0,0,1-1-1.54,5.38,5.38,0,0,1-.35-2,4.9,4.9,0,0,1,.35-1.81,5.2,5.2,0,0,1,1-1.58,4.77,4.77,0,0,1,1.46-1.09,3.66,3.66,0,0,1,1.67-.39,4.13,4.13,0,0,1,1.71.36,4.31,4.31,0,0,1,1.42,1,4.82,4.82,0,0,1,1,1.55,5.25,5.25,0,0,1,.36,2,5.13,5.13,0,0,1-.36,2,4.82,4.82,0,0,1-1,1.55,4.53,4.53,0,0,1-1.43,1,3.91,3.91,0,0,1-1.7.37Z"/><path class="cls-3" d="M279.45,122.6a12,12,0,0,1-8.48-3.49,12.08,12.08,0,0,1-2.57-3.91,12.94,12.94,0,0,1-.94-5V89.81h6.89v9.61l.18-.13a7.37,7.37,0,0,1,1.55-.81,9.66,9.66,0,0,1,1.67-.48,9,9,0,0,1,1.7-.17,12,12,0,0,1,4.68.93,11.9,11.9,0,0,1,3.8,2.6,12.37,12.37,0,0,1,2.56,3.93,12.71,12.71,0,0,1,.94,4.94,13,13,0,0,1-.94,5,12,12,0,0,1-2.56,3.91,11.52,11.52,0,0,1-3.81,2.54A12.33,12.33,0,0,1,279.45,122.6Zm0-17.83a4.16,4.16,0,0,0-1.94.45,5.28,5.28,0,0,0-1.62,1.22,5.58,5.58,0,0,0-1.1,1.76,5.47,5.47,0,0,0-.39,2,5.91,5.91,0,0,0,.39,2.18,5.41,5.41,0,0,0,1.09,1.73,5,5,0,0,0,1.61,1.14,4.66,4.66,0,0,0,2,.42,4.77,4.77,0,0,0,1.95-.41,5.27,5.27,0,0,0,1.61-1.15,5.62,5.62,0,0,0,1.1-1.73,6,6,0,0,0,0-4.36,5.44,5.44,0,0,0-1.1-1.74,5.12,5.12,0,0,0-1.61-1.14A4.76,4.76,0,0,0,279.45,104.77Z"/><path class="cls-4" d="M273.76,90.41v10.41a5.52,5.52,0,0,1,1.11-1,6.22,6.22,0,0,1,1.42-.75,10.46,10.46,0,0,1,1.57-.45,8.72,8.72,0,0,1,1.59-.15,11.17,11.17,0,0,1,4.44.88,11,11,0,0,1,3.62,2.47,11.68,11.68,0,0,1,2.43,3.74,12.09,12.09,0,0,1,.9,4.71,12.35,12.35,0,0,1-.9,4.79,11.27,11.27,0,0,1-2.43,3.72,10.88,10.88,0,0,1-3.62,2.41,11.51,11.51,0,0,1-4.44.85,11.22,11.22,0,0,1-10.5-7,12.17,12.17,0,0,1-.9-4.74V90.41h5.71m5.69,25.88a5.25,5.25,0,0,0,2.19-.46,5.79,5.79,0,0,0,1.8-1.28,6.16,6.16,0,0,0,1.22-1.92,6.63,6.63,0,0,0,0-4.8,6,6,0,0,0-1.22-1.93,5.6,5.6,0,0,0-1.8-1.27,5.41,5.41,0,0,0-2.19-.46,4.9,4.9,0,0,0-2.2.51,6,6,0,0,0-1.8,1.36,6.23,6.23,0,0,0-1.21,1.93,6.1,6.1,0,0,0-.44,2.26,6.48,6.48,0,0,0,.44,2.4,6,6,0,0,0,1.21,1.92,5.79,5.79,0,0,0,1.8,1.28,5.29,5.29,0,0,0,2.2.46M275,89.22h-8.08v21a13.56,13.56,0,0,0,1,5.2,12.83,12.83,0,0,0,2.7,4.1,12.5,12.5,0,0,0,8.9,3.66,12.86,12.86,0,0,0,4.89-.94,12.2,12.2,0,0,0,4-2.67,12.59,12.59,0,0,0,2.69-4.1,13.79,13.79,0,0,0,1-5.25,13.53,13.53,0,0,0-1-5.17,12.93,12.93,0,0,0-2.68-4.11,12.34,12.34,0,0,0-8.91-3.71,9.41,9.41,0,0,0-1.81.18,10,10,0,0,0-1.78.5,7.5,7.5,0,0,0-.91.42V89.22Zm4.5,25.89a4,4,0,0,1-1.71-.37,4.37,4.37,0,0,1-1.43-1,4.86,4.86,0,0,1-1-1.54,5.38,5.38,0,0,1-.35-2,4.9,4.9,0,0,1,.35-1.81,5.2,5.2,0,0,1,1-1.58,4.77,4.77,0,0,1,1.46-1.09,3.66,3.66,0,0,1,1.67-.39,4.13,4.13,0,0,1,1.71.36,4.31,4.31,0,0,1,1.42,1,4.82,4.82,0,0,1,1,1.55,5.25,5.25,0,0,1,.36,2,5.13,5.13,0,0,1-.36,2,4.66,4.66,0,0,1-1,1.55,4.53,4.53,0,0,1-1.43,1,3.91,3.91,0,0,1-1.7.37Z"/><path class="cls-3" d="M293.39,122.18V98.69h6.91v23.49Zm3.47-24.58a4.22,4.22,0,0,1-1.73-.35,4.46,4.46,0,0,1-1.39-.93,4.69,4.69,0,0,1-.94-1.38,4.3,4.3,0,0,1-.35-1.72,4.36,4.36,0,0,1,.35-1.71,4.61,4.61,0,0,1,.94-1.39,4.46,4.46,0,0,1,1.39-.93,4.31,4.31,0,0,1,3.45,0,4.63,4.63,0,0,1,1.4.93,4.35,4.35,0,0,1,.95,1.39,4.22,4.22,0,0,1,.35,1.71,4.17,4.17,0,0,1-.35,1.72,4.42,4.42,0,0,1-.95,1.38,4.63,4.63,0,0,1-1.4.93A4.2,4.2,0,0,1,296.86,97.6Z"/><path class="cls-4" d="M296.86,89.43a3.78,3.78,0,0,1,1.49.3,3.89,3.89,0,0,1,1.21.81,3.78,3.78,0,0,1,.83,1.21,3.72,3.72,0,0,1,.3,1.47,3.66,3.66,0,0,1-.3,1.48,3.74,3.74,0,0,1-.83,1.2,3.89,3.89,0,0,1-1.21.81,3.78,3.78,0,0,1-1.49.3,3.71,3.71,0,0,1-1.49-.3,3.78,3.78,0,0,1-1.21-.81,3.85,3.85,0,0,1-.81-1.2,3.66,3.66,0,0,1-.3-1.48,3.72,3.72,0,0,1,.3-1.47,3.89,3.89,0,0,1,.81-1.21,3.78,3.78,0,0,1,1.21-.81,3.71,3.71,0,0,1,1.49-.3m2.85,9.85v22.31H294V99.28h5.73m-2.85-11a5,5,0,0,0-3.54,1.46,5,5,0,0,0-1.06,1.58,4.75,4.75,0,0,0-.4,1.94,4.81,4.81,0,0,0,.4,2,5.25,5.25,0,0,0,1.06,1.56,5,5,0,0,0,1.58,1.06,4.11,4.11,0,0,0,.92.29h-3v24.68h8.1V98.09h-3a5,5,0,0,0,.93-.29,5.22,5.22,0,0,0,1.58-1.06,5,5,0,0,0,1.07-1.56,4.81,4.81,0,0,0,.41-2,5,5,0,0,0-.4-1.94,5,5,0,0,0-2.66-2.64,4.88,4.88,0,0,0-2-.4Z"/><path class="cls-3" d="M315.23,122.18a10.3,10.3,0,0,1-4.11-.83,10.67,10.67,0,0,1-5.63-5.63,10.34,10.34,0,0,1-.83-4.11v-6h-2.77V98.73h2.77V89.81h6.85v8.92h8.62v6.85h-8.62v6a3.81,3.81,0,0,0,.28,1.44,3.88,3.88,0,0,0,.79,1.18,4,4,0,0,0,1.2.8,3.52,3.52,0,0,0,1.45.3h4.9v6.85Z"/><path class="cls-4" d="M310.92,90.41v8.91h8.62V105h-8.62v6.62a4.3,4.3,0,0,0,.33,1.68,4.28,4.28,0,0,0,2.29,2.29,4.18,4.18,0,0,0,1.69.34h4.31v5.67h-4.31a9.72,9.72,0,0,1-3.88-.79,10.08,10.08,0,0,1-5.32-5.32,9.66,9.66,0,0,1-.78-3.87V105h-2.77V99.32h2.77V90.41h5.67m1.18-1.19h-8v8.91h-2.77v8h2.77v5.44a10.93,10.93,0,0,0,.88,4.34,11.3,11.3,0,0,0,2.4,3.55,11.17,11.17,0,0,0,3.54,2.39,10.77,10.77,0,0,0,4.35.88h5.5v-8h-5.5a3.09,3.09,0,0,1-1.22-.24,3.39,3.39,0,0,1-1-.68,3.11,3.11,0,0,1-.9-2.2v-5.44h8.63v-8H312.1V89.22Z"/><path class="cls-3" d="M154,160.81a13,13,0,0,1-4.64-.83,11.42,11.42,0,0,1-3.83-2.43,11.6,11.6,0,0,1-2.58-3.9,13.73,13.73,0,0,1-.94-5.2,13.18,13.18,0,0,1,.94-5,12,12,0,0,1,2.58-3.93,11.83,11.83,0,0,1,3.81-2.56A12.13,12.13,0,0,1,154,136a9.4,9.4,0,0,1,2.29.29,12.27,12.27,0,0,1,2.17.79,13.2,13.2,0,0,1,2,1.18,14.61,14.61,0,0,1,1.3,1l2-2.38H166v23.45H163.7l-2-2.78c-.41.34-.84.67-1.28,1a13.17,13.17,0,0,1-2,1.15,12.42,12.42,0,0,1-2.16.78A9.25,9.25,0,0,1,154,160.81ZM154,143a5.49,5.49,0,0,0-2,.36,4.5,4.5,0,0,0-1.58,1,4.92,4.92,0,0,0-1.06,1.7,6.45,6.45,0,0,0-.4,2.38,6.53,6.53,0,0,0,.4,2.38,5,5,0,0,0,1.06,1.7,4.5,4.5,0,0,0,1.58,1,5.71,5.71,0,0,0,2,.35,4.4,4.4,0,0,0,1.93-.44,5.48,5.48,0,0,0,1.63-1.23,6.26,6.26,0,0,0,1.11-1.76,5.38,5.38,0,0,0,0-4.07,6.26,6.26,0,0,0-1.11-1.76,5.62,5.62,0,0,0-1.63-1.22A4.28,4.28,0,0,0,154,143Z"/><path class="cls-4" d="M154,136.64a8.66,8.66,0,0,1,2.14.27,10.8,10.8,0,0,1,2.06.75,12.57,12.57,0,0,1,1.91,1.12,16.43,16.43,0,0,1,1.7,1.4l2.21-2.65h1.37V159.8H164l-2.21-3.06a19,19,0,0,1-1.72,1.36,12.46,12.46,0,0,1-1.91,1.1,10.93,10.93,0,0,1-2,.74,8.52,8.52,0,0,1-2.13.27,12.26,12.26,0,0,1-4.43-.79,10.45,10.45,0,0,1-3.62-2.3,10.78,10.78,0,0,1-2.45-3.7,12.92,12.92,0,0,1-.89-5,12.37,12.37,0,0,1,.89-4.78,11.35,11.35,0,0,1,2.45-3.74,11.09,11.09,0,0,1,3.62-2.43,11.5,11.5,0,0,1,4.43-.86m0,17.87a4.9,4.9,0,0,0,2.2-.51,6.11,6.11,0,0,0,1.8-1.36,6.53,6.53,0,0,0,1.22-1.93,6,6,0,0,0,0-4.52,6.58,6.58,0,0,0-1.22-1.94,6.26,6.26,0,0,0-1.8-1.35,4.9,4.9,0,0,0-2.2-.51,6.17,6.17,0,0,0-2.2.39A5.15,5.15,0,0,0,150,144a5.41,5.41,0,0,0-1.2,1.9,7.87,7.87,0,0,0,0,5.19A5.46,5.46,0,0,0,150,153a5,5,0,0,0,1.79,1.16,6,6,0,0,0,2.2.4m0-19.06a12.58,12.58,0,0,0-4.89,1,12.13,12.13,0,0,0-4,2.68,12.77,12.77,0,0,0-2.71,4.13,13.68,13.68,0,0,0-1,5.23,14.27,14.27,0,0,0,1,5.42,11.91,11.91,0,0,0,2.72,4.1,11.55,11.55,0,0,0,4,2.56,13.46,13.46,0,0,0,4.85.87,9.53,9.53,0,0,0,2.43-.31,12.45,12.45,0,0,0,2.26-.81,14.44,14.44,0,0,0,2.08-1.21c.28-.19.55-.39.82-.6l1.46,2,.36.5h3.17V136.35h-3.12l-.36.42-1.42,1.71c-.29-.23-.58-.45-.88-.66a13.54,13.54,0,0,0-2.08-1.23,12.72,12.72,0,0,0-2.28-.83,9.6,9.6,0,0,0-2.44-.31Zm0,17.87a4.88,4.88,0,0,1-1.77-.32,3.61,3.61,0,0,1-1.37-.89,4.27,4.27,0,0,1-.94-1.5,5.92,5.92,0,0,1-.36-2.16,6,6,0,0,1,.36-2.17,4.36,4.36,0,0,1,.94-1.5,3.87,3.87,0,0,1,1.37-.89,4.92,4.92,0,0,1,1.77-.32,3.69,3.69,0,0,1,1.67.39,4.85,4.85,0,0,1,1.45,1.09,5.42,5.42,0,0,1,1,1.59,4.9,4.9,0,0,1,.35,1.81,5,5,0,0,1-.35,1.81,5.37,5.37,0,0,1-1,1.58,4.85,4.85,0,0,1-1.45,1.09,3.69,3.69,0,0,1-1.67.39Z"/><path class="cls-3" d="M191.82,160.39V145.63a2.32,2.32,0,0,0-.17-.87,2.24,2.24,0,0,0-.49-.72,2.13,2.13,0,0,0-.73-.49,2.11,2.11,0,0,0-.87-.17,2,2,0,0,0-.86.17,2,2,0,0,0-.7.48,2.29,2.29,0,0,0-.49.73,2.32,2.32,0,0,0-.17.87v14.76h-6.87V145.63a2.32,2.32,0,0,0-.17-.87,2.4,2.4,0,0,0-.49-.73,2.44,2.44,0,0,0-.73-.48,2.11,2.11,0,0,0-.87-.17,2.06,2.06,0,0,0-.86.17,2,2,0,0,0-.7.48,2.29,2.29,0,0,0-.49.73,2.32,2.32,0,0,0-.17.87v14.76h-6.87V136.9h2.23l1.35,1.49a9.86,9.86,0,0,1,2.33-1.3,8.83,8.83,0,0,1,6.45,0,6.56,6.56,0,0,1,2.39,1.65,6.56,6.56,0,0,1,.83-.76,7.24,7.24,0,0,1,1.54-.89,7.34,7.34,0,0,1,1.66-.48,9.49,9.49,0,0,1,1.66-.15,8.92,8.92,0,0,1,3.56.72,9,9,0,0,1,4.84,4.85,9.09,9.09,0,0,1,.71,3.56v14.76Z"/><path class="cls-4" d="M189.56,137.1a8.37,8.37,0,0,1,3.32.66,8.64,8.64,0,0,1,2.71,1.83,8.45,8.45,0,0,1,1.82,2.71,8.33,8.33,0,0,1,.67,3.33V159.8h-5.67V145.63a2.77,2.77,0,0,0-.22-1.1,2.7,2.7,0,0,0-.61-.91,2.77,2.77,0,0,0-.92-.62,2.7,2.7,0,0,0-1.1-.22,2.66,2.66,0,0,0-1.09.22,2.79,2.79,0,0,0-.9.62,2.67,2.67,0,0,0-.6.91,2.77,2.77,0,0,0-.22,1.1V159.8h-5.69V145.63a2.77,2.77,0,0,0-.22-1.1,2.7,2.7,0,0,0-.61-.91,2.77,2.77,0,0,0-.92-.62,2.7,2.7,0,0,0-1.1-.22,2.66,2.66,0,0,0-1.09.22,2.79,2.79,0,0,0-.9.62,2.67,2.67,0,0,0-.6.91,2.77,2.77,0,0,0-.22,1.1V159.8h-5.69V137.49h1.38l1.54,1.71a9.11,9.11,0,0,1,2.61-1.55,8.11,8.11,0,0,1,3-.55,8.26,8.26,0,0,1,3,.58,6.18,6.18,0,0,1,2.61,2,6.21,6.21,0,0,1,1.19-1.21,6.86,6.86,0,0,1,1.41-.81,6.73,6.73,0,0,1,1.53-.45,9.29,9.29,0,0,1,1.56-.13m0-1.19a10.55,10.55,0,0,0-1.76.15,8.09,8.09,0,0,0-1.8.53,7.83,7.83,0,0,0-1.65.95l-.49.4a6.92,6.92,0,0,0-2.17-1.37,9.51,9.51,0,0,0-3.48-.66,9.4,9.4,0,0,0-3.4.63,10.6,10.6,0,0,0-2,1.06l-.81-.9-.36-.4h-3.09V161h8.07V145.63a1.63,1.63,0,0,1,.48-1.18,1.5,1.5,0,0,1,1.14-.48,1.53,1.53,0,0,1,.64.13,1.51,1.51,0,0,1,.54.36,1.77,1.77,0,0,1,.36.53,1.69,1.69,0,0,1,.12.64V161h8.07V145.63a1.63,1.63,0,0,1,.48-1.18,1.5,1.5,0,0,1,1.14-.48,1.53,1.53,0,0,1,.64.13,1.62,1.62,0,0,1,.54.35,2,2,0,0,1,.36.54,1.69,1.69,0,0,1,.12.64V161h8.05V145.63a9.51,9.51,0,0,0-.77-3.79,9.65,9.65,0,0,0-8.94-5.93Z"/><path class="cls-3" d="M212.43,160.81a11.83,11.83,0,0,1-11.05-7.4,12.93,12.93,0,0,1-.94-5,13.33,13.33,0,0,1,.94-5.06,11.59,11.59,0,0,1,2.58-3.92,11.75,11.75,0,0,1,3.81-2.53,12.32,12.32,0,0,1,4.66-.9,12,12,0,0,1,2.87.35,12.7,12.7,0,0,1,2.66,1,12.4,12.4,0,0,1,2.35,1.61,11.87,11.87,0,0,1,1.93,2.14l.26.37-10.28,12.39h.21a4.89,4.89,0,0,0,1.43-.2,5.09,5.09,0,0,0,1.3-.59,5,5,0,0,0,1.08-.93A5.08,5.08,0,0,0,217,151l.35-.79,5.13,5.15-.29.41a11.73,11.73,0,0,1-1.92,2.12,12.11,12.11,0,0,1-2.34,1.6,11.94,11.94,0,0,1-2.65,1A12.43,12.43,0,0,1,212.43,160.81Zm0-17.83a5.16,5.16,0,0,0-2,.38,4.62,4.62,0,0,0-1.59,1.08,5.42,5.42,0,0,0-1.08,1.71,6.41,6.41,0,0,0-.39,2.3q0,.28,0,.66c0,.24,0,.49.09.74l.06.31L213,143Z"/><path class="cls-4" d="M212.43,136.64a11.28,11.28,0,0,1,5.26,1.29,11.93,11.93,0,0,1,2.23,1.53,11.08,11.08,0,0,1,1.84,2l-10.67,12.85a3.34,3.34,0,0,0,.67.14c.22,0,.44,0,.67,0a5.68,5.68,0,0,0,1.6-.23,5.58,5.58,0,0,0,1.45-.66,5.43,5.43,0,0,0,1.21-1,5.49,5.49,0,0,0,.86-1.36l4.17,4.18a11,11,0,0,1-1.83,2,10.85,10.85,0,0,1-2.23,1.52,10.47,10.47,0,0,1-2.52.95,11.11,11.11,0,0,1-2.71.32,11.33,11.33,0,0,1-4.43-.87,11.12,11.12,0,0,1-3.62-2.44,11.43,11.43,0,0,1-2.45-3.71,12.2,12.2,0,0,1-.89-4.74,12.52,12.52,0,0,1,.89-4.83,11,11,0,0,1,6.07-6.13,11.5,11.5,0,0,1,4.43-.85m-5,14.76,6.62-8.78a3.17,3.17,0,0,0-.78-.19,7,7,0,0,0-.8,0,5.78,5.78,0,0,0-2.2.42,5.28,5.28,0,0,0-1.79,1.22,5.65,5.65,0,0,0-1.2,1.91,6.85,6.85,0,0,0-.44,2.51,6,6,0,0,0,0,.7,7.46,7.46,0,0,0,.1.81q.08.4.18.78a2.84,2.84,0,0,0,.27.66m5-16a12.85,12.85,0,0,0-4.88.94,12.08,12.08,0,0,0-6.72,6.78,13.9,13.9,0,0,0-1,5.28,13.51,13.51,0,0,0,1,5.19,12.89,12.89,0,0,0,2.7,4.1,12.5,12.5,0,0,0,8.9,3.66,12.5,12.5,0,0,0,3-.36,12.11,12.11,0,0,0,2.78-1,12.89,12.89,0,0,0,2.46-1.68,12.58,12.58,0,0,0,2-2.23l.57-.82-.7-.7-4.17-4.19-1.22-1.23-.7,1.58a4.33,4.33,0,0,1-.68,1.07,4.13,4.13,0,0,1-.95.82,4.61,4.61,0,0,1-1.15.52l-.07,0,9-10.91.58-.7-.52-.74a12.59,12.59,0,0,0-4.5-3.93,12.53,12.53,0,0,0-5.8-1.43ZM208,148.62v-.17a5.6,5.6,0,0,1,.36-2.08,4.36,4.36,0,0,1,1-1.52,4,4,0,0,1,1.38-.94,4.5,4.5,0,0,1,1.09-.29l-3.78,5Z"/><path class="cls-3" d="M223.27,160.39v-6.85h13.59a.76.76,0,0,0,.57-.24.77.77,0,0,0,.25-.58c0-.09,0-.23-.07-.25a1.82,1.82,0,0,0-.75-.14h-5.92a7.47,7.47,0,0,1-3-.61,7.89,7.89,0,0,1-2.43-1.66,7.68,7.68,0,0,1-1.63-2.44,7.72,7.72,0,0,1,1.63-8.44,7.76,7.76,0,0,1,2.44-1.64,7.55,7.55,0,0,1,3-.6h12.11v6.85H230.94a.77.77,0,0,0-.58.25.76.76,0,0,0-.24.57.83.83,0,0,0,.25.62.74.74,0,0,0,.57.25h5.92a8.35,8.35,0,0,1,3,.53,7.41,7.41,0,0,1,2.43,1.48,7,7,0,0,1,1.67,2.29,7.16,7.16,0,0,1,.61,2.94,7.3,7.3,0,0,1-.61,3,8,8,0,0,1-1.64,2.43,7.61,7.61,0,0,1-5.42,2.25Z"/><path class="cls-4" d="M242.46,137.53v5.67H230.94a1.36,1.36,0,0,0-1,.42,1.33,1.33,0,0,0-.41,1,1.43,1.43,0,0,0,.41,1,1.36,1.36,0,0,0,1,.42h5.92a7.88,7.88,0,0,1,2.75.49,6.79,6.79,0,0,1,2.24,1.37,6.35,6.35,0,0,1,2.09,4.79,6.91,6.91,0,0,1-.56,2.76,7.6,7.6,0,0,1-1.53,2.25,7,7,0,0,1-2.24,1.52,7.11,7.11,0,0,1-2.75.55h-13v-5.67h13a1.41,1.41,0,0,0,1-.41,1.39,1.39,0,0,0,.41-1,.79.79,0,0,0-.41-.8,2.55,2.55,0,0,0-1-.18h-5.92a7,7,0,0,1-2.77-.56,7.2,7.2,0,0,1-2.25-1.54,7.06,7.06,0,0,1-1.51-2.26,7.08,7.08,0,0,1,6.53-9.85h11.52m1.19-1.18H230.94a8.13,8.13,0,0,0-3.23.64,8.23,8.23,0,0,0-4.39,4.39,8.38,8.38,0,0,0,0,6.47,8.32,8.32,0,0,0,1.76,2.63,8.22,8.22,0,0,0,2.62,1.78,8,8,0,0,0,3.24.67h-8.27V161h14.19a8.08,8.08,0,0,0,3.21-.65,8.37,8.37,0,0,0,2.63-1.78,8.52,8.52,0,0,0,1.76-2.61,8,8,0,0,0,.67-3.23,7.61,7.61,0,0,0-2.47-5.67,8.36,8.36,0,0,0-2.63-1.6,8.86,8.86,0,0,0-3.17-.57h-5.92a.17.17,0,0,1-.15-.06.27.27,0,0,1-.08-.21.17.17,0,0,1,.07-.15.18.18,0,0,1,.16-.07h12.71v-8Z"/><path class="cls-3" d="M94.47,144.83c-8.37,0-20.64-9-23.25-12.82a35.18,35.18,0,0,1-2.78-3.76,51.39,51.39,0,0,1-2.58-4.54,50.42,50.42,0,0,1-2.24-5,33.21,33.21,0,0,1-1.38-4.26,4.74,4.74,0,0,1-.1-1.13,2.5,2.5,0,0,1,.69-1.84A5.27,5.27,0,0,1,65,110.43,14.31,14.31,0,0,0,68,109a27.59,27.59,0,0,0,3.06-2.55,16.93,16.93,0,0,0,3.23-5.3,17.55,17.55,0,0,0,1.13-5.07V96c0-.33,0-.66,0-1a10,10,0,0,0-.84-4.31,6.08,6.08,0,0,0-.78-1.26,8.82,8.82,0,0,0-4.73-2.64h0l-.67,2.42C67.61,92.11,66.8,95,66,97.82c-1.4,4.86-2.77,9.47-4,13.69l-.9,3.26c-1.5,5.16-2.77,9-3.79,11.54a16.82,16.82,0,0,1-3.16,5.44,17.07,17.07,0,0,1-4.86,3.08A13.55,13.55,0,0,1,44,136.35c-1.88,0-4.12-.79-4.12-4.55a28.06,28.06,0,0,1,1-5.75c.65-2.64,1.65-6.16,3-10.44s2.76-8.48,4.24-12.6,3.09-8.38,4.76-12.66l.79-2L52,88.62a13.48,13.48,0,0,1-2.48.18,2.44,2.44,0,0,1-2.7-2.7,7.27,7.27,0,0,1,2-4.43c1-.92,2.81-1.66,5.61-2.26-.14-.81-.28-1.64-.4-2.49a110.39,110.39,0,0,1-1.11-13.56,98.27,98.27,0,0,1,.53-12.92,36.45,36.45,0,0,1,2.18-9.63,5.16,5.16,0,0,1,3-3.27,3.41,3.41,0,0,1,1.18-.21,4.61,4.61,0,0,1,2.33.71,10.62,10.62,0,0,1,3.31,3.34,24.26,24.26,0,0,1,2.63,5.3A53.1,53.1,0,0,1,71,59.85a39.5,39.5,0,0,1-.65,12.32,20.21,20.21,0,0,1-1.41,4.42,5.84,5.84,0,0,1-1.16,1.71l1.44.08c.79-2.37,1.79-4.93,3-7.61a132.35,132.35,0,0,1,6.21-12.21,113.74,113.74,0,0,1,7-10.82,39.82,39.82,0,0,1,6.38-7.1,4.66,4.66,0,0,1,3-1.31,3.29,3.29,0,0,1,.82.1,3.36,3.36,0,0,1,2.18,2.37,12.32,12.32,0,0,1,.47,4.59,30,30,0,0,1-1,5.92,66.52,66.52,0,0,1-4.81,12.83,46.35,46.35,0,0,1-6.73,10.21,21.12,21.12,0,0,1-3.2,3,4,4,0,0,1-2.24,1h0a1.54,1.54,0,0,1-.43-.06,1.32,1.32,0,0,1-1-1.62c-.26.84-.51,1.71-.75,2.59A25.92,25.92,0,0,1,83,82.56c.48.29.9.56,1.3.84s.93.7,1.44,1.14A18.3,18.3,0,0,1,89.53,89a13.2,13.2,0,0,1,1.91,6.91,16.82,16.82,0,0,1-1.65,7.37,17.79,17.79,0,0,1-4.67,5.94,20.35,20.35,0,0,1-3.72,2.57,27.34,27.34,0,0,1-4.21,1.62,13.43,13.43,0,0,0,1,1.61,23.64,23.64,0,0,0,2,2.22c5.78,5.77,22.5,9.45,31.47,9.45h.43l.14.41c.58,1.75.21,3.93-1.09,6.29-2.72,4.95-8.95,9.86-14.17,11.17A9.83,9.83,0,0,1,94.47,144.83Zm-33.93-97c0,.43,0,1,0,1.78a58.18,58.18,0,0,0,.39,6.46c.58,4.72,1.13,8.69,1.63,11.77s1,5.68,1.49,7.68c.23.9.48,1.82.77,2.82h.31a2.56,2.56,0,0,1-.27-.55,8,8,0,0,1-.2-2.78,65,65,0,0,0-.3-7.42c0-.31-.07-.66-.11-1s-.09-.86-.19-1.48c-.4-3.28-1-6.7-1.71-10.18A70.75,70.75,0,0,0,60.54,47.81Zm30.75,2.08-.53.86c-1.1,1.85-2.13,3.79-3.06,5.76-2,4.36-3.71,8.06-5,11s-2.24,5.4-2.95,7.39q-.27.78-.54,1.59c.22-.44.54-1,1-1.71.9-1.4,2.11-3.6,3.61-6.54.13-.29.29-.61.46-1s.37-.78.63-1.37c1.41-3,2.79-6.27,4.09-9.65C90,53.7,90.77,51.57,91.29,49.89Z"/><path class="cls-4" d="M59.82,37.93a4,4,0,0,1,2,.62A10.09,10.09,0,0,1,65,41.71a23.29,23.29,0,0,1,2.56,5.17,52.55,52.55,0,0,1,2.88,13A39,39,0,0,1,69.77,72a19.37,19.37,0,0,1-1.37,4.29,3.64,3.64,0,0,1-1.73,2,1.06,1.06,0,0,1-.38.07c-.41,0-.71-.28-.91-.85A8.3,8.3,0,0,1,65.22,75a66.67,66.67,0,0,0-.31-7.49c0-.32-.07-.67-.1-1s-.1-.87-.2-1.51Q64,60,62.9,54.75a65,65,0,0,0-2.07-7.94c-.15-.43-.31-.64-.46-.64h-.06c-.27.1-.41,1.24-.4,3.42a56.9,56.9,0,0,0,.39,6.52q.87,7.14,1.63,11.8t1.51,7.72c.27,1.09.57,2.19.91,3.28.78,0,1.56,0,2.38,0,1,0,2,.05,2.91.13a81.86,81.86,0,0,1,3.11-8,135,135,0,0,1,6.18-12.16A113.52,113.52,0,0,1,85.87,48.1a38.39,38.39,0,0,1,6.27-7,4.11,4.11,0,0,1,2.63-1.18,2.57,2.57,0,0,1,.67.09,2.74,2.74,0,0,1,1.76,2,11.47,11.47,0,0,1,.45,4.36,29.56,29.56,0,0,1-1,5.8,65.7,65.7,0,0,1-4.77,12.71A45.52,45.52,0,0,1,85.28,75a20,20,0,0,1-3.11,3,3.6,3.6,0,0,1-1.89.83,1.27,1.27,0,0,1-.28,0c-.51-.14-.67-.59-.46-1.35a10.13,10.13,0,0,1,1.2-2.28c.92-1.43,2.13-3.62,3.64-6.59.14-.3.29-.62.46-.95s.38-.8.65-1.4q2.13-4.57,4.1-9.68a80.74,80.74,0,0,0,2.7-7.91c.13-.51.13-.78,0-.82h0c-.25,0-.92.91-2,2.73s-2.14,3.81-3.08,5.81q-3.09,6.6-5,11t-3,7.43q-1,2.89-1.83,5.95a25.71,25.71,0,0,1,5.26,2.44c.43.26.86.53,1.26.82s1,.72,1.41,1.1A17.57,17.57,0,0,1,89,89.26a12.53,12.53,0,0,1,1.83,6.6,16.11,16.11,0,0,1-1.6,7.11,17.08,17.08,0,0,1-4.51,5.74,19.88,19.88,0,0,1-3.61,2.5,30.26,30.26,0,0,1-4.82,1.8,18.41,18.41,0,0,0,1.45,2.32,22.37,22.37,0,0,0,2.08,2.28c5.92,5.92,22.62,9.63,31.89,9.63,1.86,5.56-7.42,14.84-14.84,16.69a9,9,0,0,1-2.42.31c-8.24,0-20.3-9-22.76-12.57a34.45,34.45,0,0,1-2.77-3.74c-.84-1.32-1.7-2.81-2.56-4.49a53,53,0,0,1-2.21-4.9,31.49,31.49,0,0,1-1.35-4.19,4.16,4.16,0,0,1-.09-1,1.91,1.91,0,0,1,.52-1.42,4.68,4.68,0,0,1,1.89-.94,14.3,14.3,0,0,0,3.18-1.53,28.79,28.79,0,0,0,3.14-2.6,17.57,17.57,0,0,0,3.37-5.52A17.92,17.92,0,0,0,76,96.1c0-.38.06-.76.06-1.14a10.38,10.38,0,0,0-.91-4.56A6.46,6.46,0,0,0,74.3,89,9.56,9.56,0,0,0,69,86.12a2.68,2.68,0,0,1-.33.18h-.08c-.25.92-.51,1.81-.76,2.71C67,92,66.22,94.84,65.41,97.65c-1.35,4.72-2.7,9.3-4,13.69l-.9,3.27q-2.25,7.74-3.77,11.47a16.43,16.43,0,0,1-3,5.25,16.46,16.46,0,0,1-4.69,3,13,13,0,0,1-5,1.46c-2.35,0-3.53-1.31-3.53-3.95a27.55,27.55,0,0,1,1-5.61q1-4,3-10.41c1.34-4.28,2.76-8.47,4.23-12.57s3.06-8.31,4.75-12.64l1.16-2.92A26.28,26.28,0,0,0,51.9,88a13.19,13.19,0,0,1-2.37.17,1.86,1.86,0,0,1-2.1-2.11A5.42,5.42,0,0,1,48,84a5.72,5.72,0,0,1,1.23-1.87c1-.9,2.94-1.64,5.89-2.23-.18-1-.35-2-.51-3a109.11,109.11,0,0,1-1.09-13.48A95.58,95.58,0,0,1,54,50.5,36,36,0,0,1,56.14,41a4.63,4.63,0,0,1,2.7-2.94,2.77,2.77,0,0,1,1-.17m0-1.19h0a4,4,0,0,0-1.38.24A5.74,5.74,0,0,0,55,40.61a37.15,37.15,0,0,0-2.21,9.76,97.87,97.87,0,0,0-.53,13A111.37,111.37,0,0,0,53.4,77c.09.65.2,1.3.31,2-2.6.61-4.35,1.36-5.34,2.29a6.73,6.73,0,0,0-1.49,2.25,6.57,6.57,0,0,0-.64,2.61,3,3,0,0,0,3.29,3.3,13.77,13.77,0,0,0,2.6-.2l.58-.1-.41,1c-1.68,4.3-3.28,8.56-4.77,12.68s-2.91,8.37-4.25,12.62-2.36,7.83-3,10.48a28.69,28.69,0,0,0-1,5.89c0,3.27,1.72,5.14,4.72,5.14a14,14,0,0,0,5.49-1.57,17.41,17.41,0,0,0,5-3.2,17.48,17.48,0,0,0,3.29-5.64c1-2.52,2.31-6.42,3.81-11.59l.07-.25A35,35,0,0,0,63.06,119a58.86,58.86,0,0,0,4.88,9.6,34.74,34.74,0,0,0,2.83,3.83c2.74,3.93,15.19,13,23.7,13a10.39,10.39,0,0,0,2.74-.34c5.34-1.34,11.73-6.37,14.52-11.46,1.38-2.5,1.77-4.84,1.13-6.76l-.27-.81h-.86c-8.87,0-25.38-3.61-31-9.28a25.73,25.73,0,0,1-2-2.15c-.19-.25-.39-.56-.62-.92a25.51,25.51,0,0,0,3.59-1.44,20.55,20.55,0,0,0,3.84-2.64,18.47,18.47,0,0,0,4.81-6.13A17.27,17.27,0,0,0,92,95.86a13.81,13.81,0,0,0-2-7.21,18.93,18.93,0,0,0-3.94-4.57c-.52-.44-1-.82-1.48-1.16s-.87-.58-1.3-.84a26.64,26.64,0,0,0-4.48-2.2c0-.13.07-.26.11-.4a2,2,0,0,0,.75.38,2.71,2.71,0,0,0,.58.07,4.56,4.56,0,0,0,2.58-1.06,21,21,0,0,0,3.31-3.13A47,47,0,0,0,93,65.4a66.78,66.78,0,0,0,4.86-12.94,30.49,30.49,0,0,0,1-6,12.71,12.71,0,0,0-.5-4.83,3.86,3.86,0,0,0-2.59-2.74,3.6,3.6,0,0,0-1-.13,5.3,5.3,0,0,0-3.4,1.47,39.81,39.81,0,0,0-6.46,7.19,116.08,116.08,0,0,0-7,10.87c-2.31,4-4.41,8.17-6.24,12.27L71,72.11a40.13,40.13,0,0,0,.62-12.31,53,53,0,0,0-3-13.32A23.91,23.91,0,0,0,66,41.05a11.39,11.39,0,0,0-3.49-3.53,5.26,5.26,0,0,0-2.64-.78ZM64,72.88c-.31-1.51-.63-3.23-.94-5.15-.49-3.07-1-7-1.62-11.76-.14-1.15-.24-2.32-.3-3.49.18.78.37,1.62.55,2.51.73,3.47,1.3,6.87,1.7,10.12.1.63.16,1.12.19,1.48s.08.73.12,1.06c.16,2,.26,3.8.3,5.23ZM82.57,69.4l.72-1.68C84.47,65,86,61.48,88,57.39c-1.14,2.88-2.33,5.64-3.54,8.25-.27.6-.48,1-.64,1.37s-.32.67-.46,1c-.26.49-.5,1-.74,1.42ZM62.78,110.78c1.21-4,2.48-8.28,3.78-12.8.78-2.71,1.58-5.54,2.44-8.64l.27-1c.08-.29.17-.58.25-.87a7.77,7.77,0,0,1,3.86,2.29,5,5,0,0,1,.7,1.14,9.43,9.43,0,0,1,.79,4c0,.3,0,.61,0,.94V96a17,17,0,0,1-4.21,10,25.56,25.56,0,0,1-3,2.45,13.29,13.29,0,0,1-2.92,1.4,6.66,6.66,0,0,0-2,.9Z"/><path class="cls-3" d="M129.81,161a15.94,15.94,0,0,1-8.07-2.2,16.07,16.07,0,0,1-3.24-2.51,15.45,15.45,0,0,1-2.51-3.24,16.5,16.5,0,0,1-1.61-3.84,15.87,15.87,0,0,1-.58-4.26,15.67,15.67,0,0,1,.58-4.24,16.53,16.53,0,0,1,1.61-3.82,15.45,15.45,0,0,1,2.51-3.24,16,16,0,0,1,7.06-4.11,15.8,15.8,0,0,1,4.25-.58,16,16,0,0,1,10.36,3.81l.38.33-3.77,6.29-.54-.54a9.61,9.61,0,0,0-2.94-2,8.75,8.75,0,0,0-6.93,0,9.35,9.35,0,0,0-2.83,1.91,8.86,8.86,0,0,0-1.91,2.81,8.47,8.47,0,0,0-.7,3.44,8.57,8.57,0,0,0,.7,3.47,9.28,9.28,0,0,0,1.91,2.84,9.17,9.17,0,0,0,2.83,1.91,8.43,8.43,0,0,0,3.44.7,8.14,8.14,0,0,0,2-.25,9.42,9.42,0,0,0,1.57-.55v-3.93h-4.17v-6.85h11.1v2.07l0,.59v12.06l-.21.18a16,16,0,0,1-4.82,2.82A15.78,15.78,0,0,1,129.81,161Z"/><path class="cls-4" d="M129.81,129.6a15.39,15.39,0,0,1,10,3.66l-3.12,5.21a9.89,9.89,0,0,0-3.12-2.15,9.3,9.3,0,0,0-7.41,0,9.92,9.92,0,0,0-3,2,9.72,9.72,0,0,0-2,3,9.11,9.11,0,0,0-.75,3.68,9.25,9.25,0,0,0,.75,3.71,9.61,9.61,0,0,0,5,5.06,9.11,9.11,0,0,0,3.68.75,8.88,8.88,0,0,0,2.19-.27,10.2,10.2,0,0,0,2-.75v-4.9h-4.18v-5.67h9.92V145h0v11.79a15.25,15.25,0,0,1-10,3.66,15,15,0,0,1-4.09-.55,15.4,15.4,0,0,1-6.8-4,14.92,14.92,0,0,1-2.42-3.12,15.73,15.73,0,0,1-1.55-3.7,15.08,15.08,0,0,1-.55-4.1,14.83,14.83,0,0,1,.55-4.08,15.76,15.76,0,0,1,1.55-3.68,14.92,14.92,0,0,1,2.42-3.12A15.48,15.48,0,0,1,122,131.7a15.83,15.83,0,0,1,3.68-1.55,15,15,0,0,1,4.09-.55m0-1.19a16.13,16.13,0,0,0-4.41.6,16.36,16.36,0,0,0-4,1.67,16.58,16.58,0,0,0-6,5.95,17.1,17.1,0,0,0-1.66,4,16,16,0,0,0-.6,4.4,16.65,16.65,0,0,0,.59,4.42,17.53,17.53,0,0,0,1.67,4,16.71,16.71,0,0,0,2.61,3.37,17.21,17.21,0,0,0,3.36,2.59,16.5,16.5,0,0,0,8.37,2.28,16.5,16.5,0,0,0,10.74-3.95l.42-.35V143.8h0v-2.06h-12.3v8h4.18v2.94a10.66,10.66,0,0,1-1.13.37,8.08,8.08,0,0,1-5.09-.42,8.38,8.38,0,0,1-4.44-4.45,8.28,8.28,0,0,1,0-6.43,8.46,8.46,0,0,1,1.79-2.63,8.55,8.55,0,0,1,2.65-1.79,8,8,0,0,1,3.2-.65,8.06,8.06,0,0,1,3.25.68,9,9,0,0,1,2.75,1.9l1.08,1.1.79-1.32,3.12-5.2.52-.87-.77-.65a16.5,16.5,0,0,0-10.74-4Z"/><text class="cls-5" transform="translate(83.5 241.12) scale(1.17 1)"><tspan class="cls-6">F</tspan><tspan class="cls-7" x="30.54" y="0">ut</tspan><tspan x="79.69" y="0">u</tspan><tspan class="cls-8" x="109.1" y="0">r</tspan><tspan class="cls-9" x="135.26" y="0">e</tspan><tspan class="cls-10" x="-12.83" y="80">C</tspan><tspan class="cls-11" x="23.32" y="80">on</tspan><tspan class="cls-12" x="80.18" y="80">t</tspan><tspan class="cls-13" x="99.92" y="80">en</tspan><tspan x="156.13" y="80">t</tspan></text></svg>