<svg id="Layer_1" data-name="Layer 1" xmlns="http://www.w3.org/2000/svg" viewBox="0 0 26.68 26.68"><defs><style>.cls-1{fill:#010d26;}.cls-2{fill:none;stroke:#010d26;stroke-miterlimit:10;stroke-width:1.47px;}</style></defs><path class="cls-1" d="M30,12.43a6.82,6.82,0,0,1,6.81,6.82V30.3A6.82,6.82,0,0,1,30,37.11H19a6.82,6.82,0,0,1-6.81-6.81v-11A6.82,6.82,0,0,1,19,12.43H30m0-1H19a7.84,7.84,0,0,0-7.81,7.82V30.3A7.83,7.83,0,0,0,19,38.11H30a7.83,7.83,0,0,0,7.81-7.81v-11A7.84,7.84,0,0,0,30,11.43Z" transform="translate(-11.17 -11.43)"/><rect class="cls-2" x="2.44" y="2.44" width="21.8" height="21.8" rx="6.38"/><circle class="cls-2" cx="13.56" cy="13.22" r="6.89"/><circle class="cls-2" cx="13.56" cy="13.22" r="4.36"/><circle class="cls-2" cx="20.49" cy="6.18" r="1.63"/></svg>