<svg id="Layer_1" data-name="Layer 1" xmlns="http://www.w3.org/2000/svg" viewBox="0 0 198 32.76"><defs><style>.cls-1{fill:#fff;}</style></defs><path class="cls-1" d="M51.35,38.41V5.65a41.25,41.25,0,0,0-22,6.53C38,18.27,45.49,27.31,51.35,38.41Z" transform="translate(-3.51 -5.65)"/><path class="cls-1" d="M48.91,38.41c-5.31-9.8-12.61-18.89-21.48-25h0A41.78,41.78,0,0,0,3.51,5.65V38.41H21l-2.61-3.58h5.18l-1.53-6,3.69,3.5,1.76-11,1.76,11,3.69-3.5-1.53,6h5.09l-2.61,3.58Z" transform="translate(-3.51 -5.65)"/><path class="cls-1" d="M57.6,21.66V10.14h1.53l2.29,7,2.29-7h1.53V21.66H63.71V14.81L62.18,19.5H60.66l-1.53-4.69v6.85Z" transform="translate(-3.51 -5.65)"/><path class="cls-1" d="M66.62,21.66V10.14h1.53V21.66Z" transform="translate(-3.51 -5.65)"/><path class="cls-1" d="M69.37,21.66V10.14H70.9L74,17.82V10.14h1.53V21.66H74L70.9,14v7.69Z" transform="translate(-3.51 -5.65)"/><path class="cls-1" d="M76.71,21.66V10.14h1.53l3.06,7.68V10.14h1.53V21.66H81.3L78.24,14v7.69Z" transform="translate(-3.51 -5.65)"/><path class="cls-1" d="M84.21,21.66V10.14h6.12v1.51H85.74v2.87H88.8l-.34,1.53H85.74v4.08h4.59v1.53Z" transform="translate(-3.51 -5.65)"/><path class="cls-1" d="M91.22,21.68l2.32-11.52H95l2.28,11.52H95.79l-.44-2.16H93.16l-.41,2.16ZM93.46,18h1.63l-.79-4.1Z" transform="translate(-3.51 -5.65)"/><path class="cls-1" d="M98.38,21.66V10.14h4.94a1.21,1.21,0,0,1,.83.34,1.18,1.18,0,0,1,.35.84v3.54a1.15,1.15,0,0,1-.35.84,1.18,1.18,0,0,1-.83.35H99.91v5.61Zm1.53-7.14h2.47a.6.6,0,0,0,.59-.6V12.25a.58.58,0,0,0-.17-.41.61.61,0,0,0-.42-.17H99.91Z" transform="translate(-3.51 -5.65)"/><path class="cls-1" d="M106.7,21.66a1.11,1.11,0,0,1-.8-.35,1.15,1.15,0,0,1-.35-.85V11.34a1.19,1.19,0,0,1,.35-.86,1.14,1.14,0,0,1,.8-.34h3.74a1.16,1.16,0,0,1,1.2,1.2v9.12a1.18,1.18,0,0,1-1.2,1.2Zm.94-1.51h1.86A.59.59,0,0,0,110,20a.6.6,0,0,0,.18-.44V12.28a.62.62,0,0,0-.63-.63h-1.86a.53.53,0,0,0-.4.18.57.57,0,0,0-.17.45v7.24a.6.6,0,0,0,.17.44A.54.54,0,0,0,107.64,20.15Z" transform="translate(-3.51 -5.65)"/><path class="cls-1" d="M112.86,21.66V10.14h1.53v10h3.93v1.53Z" transform="translate(-3.51 -5.65)"/><path class="cls-1" d="M119.31,21.66V10.14h1.53V21.66Z" transform="translate(-3.51 -5.65)"/><path class="cls-1" d="M123.37,21.66a1.13,1.13,0,0,1-.83-.35,1.11,1.11,0,0,1-.35-.84V17.92l1.53.35v1.27a.61.61,0,0,0,.17.42.58.58,0,0,0,.41.17h1.87a.57.57,0,0,0,.42-.17.57.57,0,0,0,.17-.42v-2.9a.57.57,0,0,0-.17-.42.54.54,0,0,0-.42-.17h-2.8a1.13,1.13,0,0,1-.83-.35,1.11,1.11,0,0,1-.35-.84V11.32a1.14,1.14,0,0,1,.35-.84,1.16,1.16,0,0,1,.83-.34h3.74a1.16,1.16,0,0,1,1.18,1.18V13.1l-1.53-.36v-.48a.57.57,0,0,0-.17-.42.57.57,0,0,0-.42-.17H124.3a.58.58,0,0,0-.41.17.61.61,0,0,0-.17.42v1.66a.57.57,0,0,0,.17.42.55.55,0,0,0,.41.18h2.81a1.16,1.16,0,0,1,1.18,1.18v4.77a1.18,1.18,0,0,1-1.18,1.19Z" transform="translate(-3.51 -5.65)"/><path class="cls-1" d="M133.79,21.66a1.15,1.15,0,0,1-.82-.35,1.12,1.12,0,0,1-.36-.84V11.32a1.21,1.21,0,0,1,1.18-1.18h3.74a1.12,1.12,0,0,1,.84.35,1.16,1.16,0,0,1,.34.83v2.14l-1.53.35V12.26a.59.59,0,0,0-.16-.41.52.52,0,0,0-.42-.18h-1.87a.55.55,0,0,0-.41.18.57.57,0,0,0-.18.41v7.28a.54.54,0,0,0,.18.42.58.58,0,0,0,.41.17h1.87A.54.54,0,0,0,137,20a.57.57,0,0,0,.16-.42V18.33l1.53-.36v2.5a1.14,1.14,0,0,1-.34.84,1.12,1.12,0,0,1-.84.35Z" transform="translate(-3.51 -5.65)"/><path class="cls-1" d="M141.74,21.66a1.11,1.11,0,0,1-.81-.35,1.15,1.15,0,0,1-.34-.85V11.34a1.18,1.18,0,0,1,.34-.86,1.14,1.14,0,0,1,.81-.34h3.73a1.2,1.2,0,0,1,.87.34,1.22,1.22,0,0,1,.33.86v9.12a1.16,1.16,0,0,1-1.2,1.2Zm.94-1.51h1.86A.62.62,0,0,0,145,20a.64.64,0,0,0,.17-.44V12.28a.6.6,0,0,0-.62-.63h-1.86a.55.55,0,0,0-.41.18.61.61,0,0,0-.17.45v7.24a.64.64,0,0,0,.17.44A.56.56,0,0,0,142.68,20.15Z" transform="translate(-3.51 -5.65)"/><path class="cls-1" d="M148.72,21.66V10.14h1.53l2.28,7,2.29-7h1.53V21.66h-1.53V14.81l-1.53,4.69h-1.51l-1.53-4.69v6.85Z" transform="translate(-3.51 -5.65)"/><path class="cls-1" d="M158.39,21.66V10.14h1.53l2.29,7,2.29-7H166V21.66H164.5V14.81L163,19.5h-1.52l-1.53-4.69v6.85Z" transform="translate(-3.51 -5.65)"/><path class="cls-1" d="M169.25,21.66a1.18,1.18,0,0,1-1.18-1.19V10.14h1.53v9.41a.58.58,0,0,0,.17.41.61.61,0,0,0,.42.17h1.86a.61.61,0,0,0,.42-.17.58.58,0,0,0,.17-.41V10.14h1.53V20.47A1.18,1.18,0,0,1,173,21.66Z" transform="translate(-3.51 -5.65)"/><path class="cls-1" d="M176.21,21.66V10.14h1.53l3.06,7.68V10.14h1.53V21.66H180.8L177.74,14v7.69Z" transform="translate(-3.51 -5.65)"/><path class="cls-1" d="M184.54,21.66V10.14h1.53V21.66Z" transform="translate(-3.51 -5.65)"/><path class="cls-1" d="M190,21.66v-10h-2.28V10.14h6.1v1.53h-2.29v10Z" transform="translate(-3.51 -5.65)"/><path class="cls-1" d="M197.72,21.66v-5.6l-2.25-5.92H197l1.49,3.93L200,10.14h1.53l-2.26,5.92v5.6Z" transform="translate(-3.51 -5.65)"/><path class="cls-1" d="M58.42,37.29a1.16,1.16,0,0,1-1.18-1.18V34l1.45-1.65-1.45-1.55V27a.39.39,0,0,1,0-.13,1,1,0,0,1,.37-.75,1.11,1.11,0,0,1,.79-.31h3.76a1.11,1.11,0,0,1,.79.31,1.13,1.13,0,0,1,.37.75V29.1L60.7,32.16,63.34,35v2.34l-3.68-3.95-.89,1v.81a.58.58,0,0,0,.59.59h.92l1.4,1.53Zm1.3-6.15,2.11-2.39v-.87a.54.54,0,0,0-.17-.4.58.58,0,0,0-.42-.18H59.36a.58.58,0,0,0-.42.18.54.54,0,0,0-.17.4v2.27Z" transform="translate(-3.51 -5.65)"/><path class="cls-1" d="M69.71,37.29v-10H67.42V25.77h6.11V27.3H71.24v10Z" transform="translate(-3.51 -5.65)"/><path class="cls-1" d="M74.6,37.29V25.77h6.12v1.52H76.13v2.86h3.06l-.34,1.53H76.13v4.08h4.59v1.53Z" transform="translate(-3.51 -5.65)"/><path class="cls-1" d="M83.21,37.29a1.16,1.16,0,0,1-.83-.34,1.14,1.14,0,0,1-.36-.84V27a1.11,1.11,0,0,1,.36-.83,1.15,1.15,0,0,1,.83-.36h3.73a1.13,1.13,0,0,1,.85.36,1.17,1.17,0,0,1,.34.83V29.1l-1.53.34V27.89a.64.64,0,0,0-.16-.41A.53.53,0,0,0,86,27.3H84.14a.62.62,0,0,0-.59.59v7.28a.57.57,0,0,0,.18.43.59.59,0,0,0,.41.16H86a.55.55,0,0,0,.42-.16.63.63,0,0,0,.16-.43V34l1.53-.37v2.51a1.2,1.2,0,0,1-.34.84,1.15,1.15,0,0,1-.85.34Z" transform="translate(-3.51 -5.65)"/><path class="cls-1" d="M89.59,37.29V25.77h1.53v4.38h3.06V25.77H95.7V37.29H94.18V31.68H91.12v5.61Z" transform="translate(-3.51 -5.65)"/><path class="cls-1" d="M97.16,37.29V25.77h1.53l3.06,7.69V25.77h1.53V37.29h-1.53l-3.06-7.68v7.68Z" transform="translate(-3.51 -5.65)"/><path class="cls-1" d="M104.75,37.29V25.77h1.53V37.29Z" transform="translate(-3.51 -5.65)"/><path class="cls-1" d="M108.6,37.29a1.18,1.18,0,0,1-.83-.34,1.14,1.14,0,0,1-.36-.84V27a1.11,1.11,0,0,1,.36-.83,1.16,1.16,0,0,1,.83-.36h3.73a1.11,1.11,0,0,1,.85.36,1.13,1.13,0,0,1,.34.83V29.1l-1.53.34V27.89a.59.59,0,0,0-.16-.41.52.52,0,0,0-.42-.18h-1.87a.59.59,0,0,0-.42.18.57.57,0,0,0-.18.41v7.28a.57.57,0,0,0,.18.43.61.61,0,0,0,.42.16h1.87a.54.54,0,0,0,.42-.16.59.59,0,0,0,.16-.43V34l1.53-.37v2.51a1.15,1.15,0,0,1-.34.84,1.13,1.13,0,0,1-.85.34Z" transform="translate(-3.51 -5.65)"/><path class="cls-1" d="M114.32,37.31l2.32-11.52h1.5l2.29,11.52H118.9l-.45-2.16h-2.18l-.42,2.16Zm2.24-3.67h1.63l-.79-4.1Z" transform="translate(-3.51 -5.65)"/><path class="cls-1" d="M121.56,37.29V25.77h1.53v10H127v1.53Z" transform="translate(-3.51 -5.65)"/><path class="cls-1" d="M132.66,37.29a1.16,1.16,0,0,1-.83-.34,1.14,1.14,0,0,1-.36-.84V27a1.11,1.11,0,0,1,.36-.83,1.15,1.15,0,0,1,.83-.36h3.73a1.13,1.13,0,0,1,.85.36,1.17,1.17,0,0,1,.34.83V29.1l-1.54.34V27.89a.63.63,0,0,0-.15-.41.54.54,0,0,0-.42-.18h-1.88a.62.62,0,0,0-.59.59v7.28a.57.57,0,0,0,.18.43.59.59,0,0,0,.41.16h1.88a.57.57,0,0,0,.42-.16.63.63,0,0,0,.15-.43V34l1.54-.37v2.51a1.2,1.2,0,0,1-.34.84,1.15,1.15,0,0,1-.85.34Z" transform="translate(-3.51 -5.65)"/><path class="cls-1" d="M139.78,37.29A1.12,1.12,0,0,1,139,37a1.18,1.18,0,0,1-.34-.86V27a1.15,1.15,0,0,1,.34-.85,1.13,1.13,0,0,1,.81-.35h3.74a1.15,1.15,0,0,1,.86.35,1.19,1.19,0,0,1,.34.85v9.12a1.23,1.23,0,0,1-.34.86,1.14,1.14,0,0,1-.86.34Zm.94-1.51h1.86a.6.6,0,0,0,.45-.18.6.6,0,0,0,.17-.45V27.91a.57.57,0,0,0-.17-.45.59.59,0,0,0-.45-.17h-1.86a.51.51,0,0,0-.4.17.58.58,0,0,0-.18.45v7.24a.61.61,0,0,0,.18.45A.52.52,0,0,0,140.72,35.78Z" transform="translate(-3.51 -5.65)"/><path class="cls-1" d="M145.94,37.29V25.77h1.53v10h3.93v1.53Z" transform="translate(-3.51 -5.65)"/><path class="cls-1" d="M152.22,37.29V25.77h1.53v10h3.93v1.53Z" transform="translate(-3.51 -5.65)"/><path class="cls-1" d="M158.67,37.29V25.77h6.12v1.52H160.2v2.86h3.06l-.34,1.53H160.2v4.08h4.59v1.53Z" transform="translate(-3.51 -5.65)"/><path class="cls-1" d="M167.2,37.29a1.14,1.14,0,0,1-.84-.34,1.16,1.16,0,0,1-.35-.84V26.94a1.12,1.12,0,0,1,.35-.82,1.15,1.15,0,0,1,.84-.35h3.73a1.15,1.15,0,0,1,.84.35,1.12,1.12,0,0,1,.35.82v2.57l-1.53-.35V27.88a.54.54,0,0,0-.18-.42.54.54,0,0,0-.42-.17h-1.86a.57.57,0,0,0-.42.17.57.57,0,0,0-.17.42v7.29a.58.58,0,0,0,.59.59H170a.6.6,0,0,0,.6-.59v-1.6h-1.52l.35-1.53h2.7v4.07a1.16,1.16,0,0,1-.35.84,1.14,1.14,0,0,1-.84.34Z" transform="translate(-3.51 -5.65)"/><path class="cls-1" d="M173.5,37.29V25.77h6.12v1.52H175v2.86h3.06l-.35,1.53H175v4.08h4.59v1.53Z" transform="translate(-3.51 -5.65)"/></svg>