<svg id="Layer_1" data-name="Layer 1" xmlns="http://www.w3.org/2000/svg" viewBox="0 0 360 216"><defs><style>.cls-1{fill:#efa226;}.cls-2{fill:#736357;}</style></defs><title>Artboard 1</title><path class="cls-1" d="M179.69,170c-40,0-77.69-4.5-106.06-12.67-20.86-6-45.72-16.68-45.72-33.35S52.77,96.68,73.63,90.67C102,82.5,139.66,78,179.69,78s77.7,4.51,106.06,12.68c20.86,6,45.73,16.68,45.73,33.35s-24.87,27.33-45.73,33.35C257.39,165.54,219.72,170,179.69,170Z"/><path class="cls-2" d="M179.69,78.26c40,0,77.65,4.5,106,12.66,20.77,6,45.53,16.59,45.53,33.1s-24.76,27.1-45.53,33.09c-28.34,8.17-66,12.67-106,12.67s-77.64-4.5-106-12.67c-20.77-6-45.53-16.59-45.53-33.09S52.93,96.91,73.7,90.92c28.35-8.16,66-12.66,106-12.66m0-.53c-40.05,0-77.74,4.5-106.13,12.69-21,6-45.92,16.76-45.92,33.6s25,27.56,45.92,33.6c28.39,8.18,66.08,12.69,106.13,12.69s77.75-4.51,106.14-12.69c20.94-6,45.91-16.77,45.91-33.6s-25-27.57-45.91-33.6c-28.39-8.19-66.08-12.69-106.14-12.69Z"/><ellipse class="cls-1" cx="179.69" cy="124.02" rx="149" ry="42.94"/><ellipse class="cls-2" cx="179.69" cy="124.02" rx="149" ry="42.94"/><path class="cls-1" d="M110.45,126.11a11.79,11.79,0,0,1-4.26-.76,10.14,10.14,0,0,1-3.5-2.22,10.35,10.35,0,0,1-2.36-3.57,12.38,12.38,0,0,1-.87-4.78,11.89,11.89,0,0,1,.87-4.6,10.88,10.88,0,0,1,2.36-3.6,10.56,10.56,0,0,1,3.49-2.34,10.91,10.91,0,0,1,4.27-.84,8.25,8.25,0,0,1,2.08.27,10.3,10.3,0,0,1,2,.72,12.93,12.93,0,0,1,1.83,1.08,16.08,16.08,0,0,1,1.43,1.16l2-2.38h1.66v21.47h-1.67l-2-2.76a17.66,17.66,0,0,1-1.43,1.12,13.38,13.38,0,0,1-1.83,1.06,10.88,10.88,0,0,1-2,.71A8.1,8.1,0,0,1,110.45,126.11Zm0-16.79a5.61,5.61,0,0,0-2,.35,4.46,4.46,0,0,0-1.6,1,5.05,5.05,0,0,0-1.08,1.7,6.67,6.67,0,0,0-.39,2.36,6.58,6.58,0,0,0,.39,2.35,5.1,5.1,0,0,0,1.08,1.71,4.31,4.31,0,0,0,1.6,1,5.4,5.4,0,0,0,2,.36,4.34,4.34,0,0,0,2-.46,5.28,5.28,0,0,0,1.63-1.22,5.83,5.83,0,0,0,1.1-1.75,5.38,5.38,0,0,0,0-4.07A6.09,6.09,0,0,0,114,111a5.62,5.62,0,0,0-1.63-1.22A4.33,4.33,0,0,0,110.45,109.32Z"/><path class="cls-2" d="M110.45,103.65a8.17,8.17,0,0,1,2,.26,10.73,10.73,0,0,1,1.94.7,12.77,12.77,0,0,1,1.79,1.06,14.77,14.77,0,0,1,1.6,1.32l2.08-2.49h1.3v21h-1.3l-2.08-2.88a20.09,20.09,0,0,1-1.61,1.28,11.52,11.52,0,0,1-1.8,1,10.63,10.63,0,0,1-1.93.7,8,8,0,0,1-2,.25,11.73,11.73,0,0,1-4.17-.74,10,10,0,0,1-3.42-2.17,10.21,10.21,0,0,1-2.3-3.48,12.18,12.18,0,0,1-.85-4.69,11.61,11.61,0,0,1,.85-4.51,10.79,10.79,0,0,1,2.3-3.52,10.46,10.46,0,0,1,3.42-2.28,10.59,10.59,0,0,1,4.17-.82m0,16.84a4.63,4.63,0,0,0,2.07-.48,5.72,5.72,0,0,0,1.69-1.28,6,6,0,0,0,1.15-1.82,5.61,5.61,0,0,0,0-4.26,6,6,0,0,0-1.15-1.83,5.69,5.69,0,0,0-1.69-1.27,4.63,4.63,0,0,0-2.07-.48,5.64,5.64,0,0,0-2.07.37,4.8,4.8,0,0,0-1.69,1.1,5.17,5.17,0,0,0-1.13,1.79,7.5,7.5,0,0,0,0,4.89,5.31,5.31,0,0,0,1.13,1.8,4.64,4.64,0,0,0,1.69,1.09,5.64,5.64,0,0,0,2.07.38m0-17.34a11.24,11.24,0,0,0-4.37.86,10.87,10.87,0,0,0-3.57,2.39,11.27,11.27,0,0,0-2.42,3.68,12.41,12.41,0,0,0-.88,4.7,12.94,12.94,0,0,0,.88,4.88,10.74,10.74,0,0,0,2.42,3.65,10.35,10.35,0,0,0,3.59,2.27,12,12,0,0,0,4.35.78,8.58,8.58,0,0,0,2.13-.27,11.34,11.34,0,0,0,2-.73,12.43,12.43,0,0,0,1.87-1.08c.43-.3.85-.62,1.25-1l1.76,2.44.15.21h2.05V104h-2l-.15.18-1.74,2.09a15.36,15.36,0,0,0-1.26-1,13.54,13.54,0,0,0-1.87-1.11,11.58,11.58,0,0,0-2-.74,8.66,8.66,0,0,0-2.14-.27Zm0,16.84a5.33,5.33,0,0,1-1.89-.34,4.05,4.05,0,0,1-1.51-1,4.58,4.58,0,0,1-1-1.62,6.3,6.3,0,0,1-.38-2.26,6.39,6.39,0,0,1,.38-2.27,4.67,4.67,0,0,1,1-1.62,4.15,4.15,0,0,1,1.51-1,5.12,5.12,0,0,1,1.89-.34,4,4,0,0,1,1.84.43,5.08,5.08,0,0,1,1.55,1.16,5.51,5.51,0,0,1,1.06,1.68,5.16,5.16,0,0,1,.38,1.94,5.23,5.23,0,0,1-.38,1.94,5.46,5.46,0,0,1-1.06,1.67,5.11,5.11,0,0,1-1.55,1.17,4.15,4.15,0,0,1-1.84.43Z"/><path class="cls-1" d="M135.56,126.11a10.81,10.81,0,0,1-7.76-3.19,11.16,11.16,0,0,1-2.36-3.58,11.91,11.91,0,0,1-.86-4.56V95.85h5.87v9.41a6,6,0,0,1,.66-.54,6.35,6.35,0,0,1,1.39-.73,8.82,8.82,0,0,1,1.52-.44,8.19,8.19,0,0,1,1.54-.15,10.81,10.81,0,0,1,4.29.86,10.47,10.47,0,0,1,3.48,2.38,11.22,11.22,0,0,1,2.35,3.6,11.8,11.8,0,0,1,.86,4.54,12.09,12.09,0,0,1-.86,4.61,10.92,10.92,0,0,1-2.35,3.58,10.5,10.5,0,0,1-3.49,2.32A11.06,11.06,0,0,1,135.56,126.11Zm0-16.79a4.4,4.4,0,0,0-2,.45A5.57,5.57,0,0,0,132,111a5.86,5.86,0,0,0-1.09,1.75,5.53,5.53,0,0,0-.4,2,5.88,5.88,0,0,0,.4,2.16,5.41,5.41,0,0,0,1.09,1.73,5.15,5.15,0,0,0,1.61,1.15,4.83,4.83,0,0,0,3.94,0,5.31,5.31,0,0,0,1.62-1.15,5.41,5.41,0,0,0,1.09-1.73,5.69,5.69,0,0,0,.41-2.16,5.79,5.79,0,0,0-.41-2.18,5.3,5.3,0,0,0-1.09-1.73,5.12,5.12,0,0,0-1.62-1.14A4.86,4.86,0,0,0,135.56,109.32Z"/><path class="cls-2" d="M130.2,96.1v9.81a4.92,4.92,0,0,1,1.05-1,6.14,6.14,0,0,1,1.34-.71,9.28,9.28,0,0,1,1.48-.42,7.76,7.76,0,0,1,1.49-.15,10.49,10.49,0,0,1,4.19.84,10.28,10.28,0,0,1,3.4,2.32,11.12,11.12,0,0,1,2.3,3.52,11.56,11.56,0,0,1,.84,4.45,11.72,11.72,0,0,1-.84,4.51,10.6,10.6,0,0,1-2.3,3.5,10.15,10.15,0,0,1-3.4,2.27,10.82,10.82,0,0,1-4.19.8,10.59,10.59,0,0,1-4.17-.82,10.37,10.37,0,0,1-3.41-2.3,10.57,10.57,0,0,1-2.31-3.5,11.54,11.54,0,0,1-.84-4.46V96.1h5.37m5.36,24.39a5,5,0,0,0,2.07-.44,5.55,5.55,0,0,0,1.7-1.21,5.85,5.85,0,0,0,1.57-4.06,6.07,6.07,0,0,0-.42-2.27,5.89,5.89,0,0,0-1.15-1.81,5.36,5.36,0,0,0-1.7-1.2,5,5,0,0,0-2.07-.43,4.63,4.63,0,0,0-2.07.48,5.74,5.74,0,0,0-1.7,1.27,5.92,5.92,0,0,0-1.13,1.83,5.62,5.62,0,0,0-.42,2.13,5.93,5.93,0,0,0,.42,2.25,5.39,5.39,0,0,0,2.83,3,5,5,0,0,0,2.07.44M130.7,95.6h-6.37v19.18a12.15,12.15,0,0,0,.88,4.65,11.42,11.42,0,0,0,2.41,3.67,11.13,11.13,0,0,0,7.94,3.26,11.43,11.43,0,0,0,4.38-.84,10.74,10.74,0,0,0,3.57-2.38,11,11,0,0,0,2.4-3.66,12.14,12.14,0,0,0,.88-4.7,12,12,0,0,0-.88-4.64,11.66,11.66,0,0,0-2.4-3.68,11,11,0,0,0-7.95-3.31,8.84,8.84,0,0,0-1.59.16,8.44,8.44,0,0,0-1.56.45,6.39,6.39,0,0,0-1.44.76l-.27.19V95.6ZM135.56,120a4.5,4.5,0,0,1-1.86-.4,4.84,4.84,0,0,1-1.54-1.09,5.2,5.2,0,0,1-1-1.65,5.6,5.6,0,0,1-.38-2.07,5.25,5.25,0,0,1,.38-2,5.53,5.53,0,0,1,1-1.67,5.21,5.21,0,0,1,1.55-1.16,4.09,4.09,0,0,1,1.85-.43,4.54,4.54,0,0,1,1.87.39A4.73,4.73,0,0,1,139,111a5.05,5.05,0,0,1,1,1.66,5.72,5.72,0,0,1,0,4.15,5.22,5.22,0,0,1-1,1.65,4.84,4.84,0,0,1-1.54,1.09,4.47,4.47,0,0,1-1.86.4Z"/><path class="cls-1" d="M149,125.72V104.21h5.89v21.51Zm3-23.15a3.63,3.63,0,0,1-1.5-.31,3.81,3.81,0,0,1-2-2,3.83,3.83,0,0,1,.82-4.19,3.92,3.92,0,0,1,1.21-.82,3.93,3.93,0,0,1,3,0,4.09,4.09,0,0,1,1.22.82,3.81,3.81,0,0,1,.83,4.19,3.78,3.78,0,0,1-.83,1.21,4.06,4.06,0,0,1-1.22.81A3.68,3.68,0,0,1,152,102.57Z"/><path class="cls-2" d="M152,95.18a3.51,3.51,0,0,1,1.41.28,3.76,3.76,0,0,1,1.14.77,3.57,3.57,0,0,1,.78,1.13,3.59,3.59,0,0,1,0,2.78,3.57,3.57,0,0,1-.78,1.13,3.73,3.73,0,0,1-1.14.76,3.55,3.55,0,0,1-2.81,0,3.61,3.61,0,0,1-1.14-.76,3.68,3.68,0,0,1-.76-1.13,3.43,3.43,0,0,1-.29-1.39,3.46,3.46,0,0,1,.29-1.39,3.68,3.68,0,0,1,.76-1.13,3.64,3.64,0,0,1,1.14-.77,3.5,3.5,0,0,1,1.4-.28m2.69,9.28v21h-5.39v-21h5.39M152,94.68a4.12,4.12,0,0,0-1.6.32,4.31,4.31,0,0,0-1.29.87,4,4,0,0,0-.87,1.3,4,4,0,0,0,0,3.17,4.09,4.09,0,0,0,.87,1.28,4.08,4.08,0,0,0,4.5.87,4.22,4.22,0,0,0,1.29-.86,4.13,4.13,0,0,0,.89-1.29,4,4,0,0,0-.89-4.47,4.36,4.36,0,0,0-1.3-.87,4.08,4.08,0,0,0-1.6-.32Zm3.19,9.28h-6.39v22h6.39V104Z"/><path class="cls-1" d="M168.31,126.11a10.79,10.79,0,0,1-7.76-3.22,11,11,0,0,1-2.36-3.59,11.78,11.78,0,0,1-.87-4.52,11.58,11.58,0,0,1,.87-4.51,11,11,0,0,1,2.36-3.61,10.82,10.82,0,0,1,7.76-3.26,9.77,9.77,0,0,1,1.5.12,7.91,7.91,0,0,1,1.52.4,6.87,6.87,0,0,1,1.4.72,4.5,4.5,0,0,1,.66.57V95.85h5.9v29.87h-1.67l-2-2.76a17.66,17.66,0,0,1-1.43,1.12,12.81,12.81,0,0,1-1.83,1.06,10.88,10.88,0,0,1-2,.71A8.1,8.1,0,0,1,168.31,126.11Zm0-16.79a5.24,5.24,0,0,0-2,.37,4.74,4.74,0,0,0-1.6,1.07,5.25,5.25,0,0,0-1.08,1.72,6.34,6.34,0,0,0-.39,2.3,5.72,5.72,0,0,0,.39,2.1,5.86,5.86,0,0,0,1.08,1.75,5.2,5.2,0,0,0,1.61,1.18,4.68,4.68,0,0,0,2,.43,4.41,4.41,0,0,0,2-.46,5.36,5.36,0,0,0,1.62-1.22,5.83,5.83,0,0,0,1.1-1.75,5.38,5.38,0,0,0,0-4.07,6.09,6.09,0,0,0-1.1-1.75,5.71,5.71,0,0,0-1.62-1.22A4.4,4.4,0,0,0,168.31,109.32Z"/><path class="cls-2" d="M179,96.1v29.37h-1.3l-2.07-2.88a20.25,20.25,0,0,1-1.62,1.28,11.52,11.52,0,0,1-1.8,1,10.63,10.63,0,0,1-1.93.7,8,8,0,0,1-2,.25,10.42,10.42,0,0,1-4.17-.83,10.62,10.62,0,0,1-5.72-5.83,11.92,11.92,0,0,1,0-8.84,11.06,11.06,0,0,1,2.3-3.53,10.76,10.76,0,0,1,3.42-2.33,10.27,10.27,0,0,1,4.17-.85,9.27,9.27,0,0,1,1.46.12,8.36,8.36,0,0,1,1.47.38,5.89,5.89,0,0,1,1.34.7,4,4,0,0,1,1.06,1.06V96.1H179m-10.73,24.39a4.63,4.63,0,0,0,2.07-.48,5.6,5.6,0,0,0,1.69-1.28,6,6,0,0,0,1.15-1.82,5.61,5.61,0,0,0,0-4.26,6,6,0,0,0-1.15-1.83,5.57,5.57,0,0,0-1.69-1.27,4.63,4.63,0,0,0-2.07-.48,5.45,5.45,0,0,0-2.07.39,4.88,4.88,0,0,0-1.69,1.13,5.36,5.36,0,0,0-1.13,1.79,6.71,6.71,0,0,0-.41,2.4,6.05,6.05,0,0,0,.41,2.2,5.94,5.94,0,0,0,1.13,1.82,5.48,5.48,0,0,0,1.69,1.24,4.82,4.82,0,0,0,2.07.45M179.54,95.6h-6.4v9l-.27-.2a6.53,6.53,0,0,0-1.46-.76,8.31,8.31,0,0,0-1.56-.4,9.24,9.24,0,0,0-1.54-.13,10.91,10.91,0,0,0-4.37.89,11.06,11.06,0,0,0-3.57,2.44,11.45,11.45,0,0,0-2.41,3.69,12.38,12.38,0,0,0,0,9.22,11.3,11.3,0,0,0,2.41,3.68,11.06,11.06,0,0,0,7.94,3.29,8.58,8.58,0,0,0,2.13-.27,11.34,11.34,0,0,0,2-.73,12.43,12.43,0,0,0,1.87-1.08c.43-.3.85-.62,1.25-1l1.76,2.44.15.21h2V95.6ZM168.31,120a4.32,4.32,0,0,1-1.86-.41,4.73,4.73,0,0,1-1.53-1.12,5.51,5.51,0,0,1-1.41-3.68,6.06,6.06,0,0,1,.38-2.21,4.81,4.81,0,0,1,1-1.63,4.48,4.48,0,0,1,1.51-1,5.16,5.16,0,0,1,1.89-.35,4.09,4.09,0,0,1,1.85.43,5.34,5.34,0,0,1,1.55,1.16,5.81,5.81,0,0,1,1,1.68,5.16,5.16,0,0,1,.38,1.94,5.23,5.23,0,0,1-.38,1.94,5.63,5.63,0,0,1-1,1.67,5.2,5.2,0,0,1-1.55,1.17,4.22,4.22,0,0,1-1.85.43Z"/><path class="cls-1" d="M206,125.72l-2.46-5.67-5.88,0v5.63h-6.13V97.08H203a11.06,11.06,0,0,1,3,.42,11.46,11.46,0,0,1,2.74,1.16,12.23,12.23,0,0,1,2.32,1.8,11.72,11.72,0,0,1,1.81,2.34,11.45,11.45,0,0,1,1.57,5.8,11.23,11.23,0,0,1-.37,2.89,11.82,11.82,0,0,1-1.06,2.66,11.31,11.31,0,0,1-1.7,2.33,11.81,11.81,0,0,1-2.06,1.73l3.18,7.51ZM203,114a5.22,5.22,0,0,0,2.08-.42,5.43,5.43,0,0,0,2.86-2.87,5.31,5.31,0,0,0,.42-2.09,5.24,5.24,0,0,0-.42-2.09,5.52,5.52,0,0,0-1.15-1.72,5.59,5.59,0,0,0-1.71-1.15,5.22,5.22,0,0,0-2.08-.42h-5.38V114Z"/><path class="cls-2" d="M203,97.33a11.18,11.18,0,0,1,5.66,1.55,11.39,11.39,0,0,1,2.28,1.76,11.53,11.53,0,0,1,1.76,2.29,11.38,11.38,0,0,1,1.14,2.68,11,11,0,0,1,.4,3,11.07,11.07,0,0,1-.36,2.82,11.38,11.38,0,0,1-1,2.61,11.1,11.1,0,0,1-3.86,4.08l3.12,7.36h-6l-2.45-5.67-6.3,0v5.63h-5.63V97.33H203m-5.63,16.9H203a5.51,5.51,0,0,0,2.18-.44,5.69,5.69,0,0,0,3-3,5.51,5.51,0,0,0,.44-2.18,5.6,5.6,0,0,0-.44-2.19,5.76,5.76,0,0,0-1.21-1.8,5.59,5.59,0,0,0-1.78-1.2A5.34,5.34,0,0,0,203,103h-5.63v11.26M203,96.83H191.23V126h6.63v-5.63l5.47,0,2.32,5.37.13.3h7.07l-.3-.69-3-7a11.69,11.69,0,0,0,1.93-1.65,11.18,11.18,0,0,0,1.74-2.38,11.87,11.87,0,0,0,1.08-2.72,11.64,11.64,0,0,0,.38-3,11.52,11.52,0,0,0-.42-3.12,12.05,12.05,0,0,0-1.19-2.81,11.83,11.83,0,0,0-1.84-2.38,11.52,11.52,0,0,0-2.38-1.85,12.12,12.12,0,0,0-2.79-1.18,11.58,11.58,0,0,0-3.12-.43Zm-5.13,6.64H203a4.87,4.87,0,0,1,2,.4,4.94,4.94,0,0,1,1.63,1.1,5.19,5.19,0,0,1,1.1,1.64,5.15,5.15,0,0,1,0,4,5.43,5.43,0,0,1-1.1,1.64,5.26,5.26,0,0,1-1.63,1.1,5,5,0,0,1-2,.4h-5.13V103.47Z"/><path class="cls-1" d="M226.73,126.11a11.83,11.83,0,0,1-4.26-.76,10.24,10.24,0,0,1-3.5-2.22,10.5,10.5,0,0,1-2.36-3.57,12.57,12.57,0,0,1-.86-4.78,12.08,12.08,0,0,1,.86-4.6,11,11,0,0,1,2.36-3.6,10.66,10.66,0,0,1,3.49-2.34,11,11,0,0,1,4.27-.84,8.13,8.13,0,0,1,2.08.27,10.3,10.3,0,0,1,2,.72,12.39,12.39,0,0,1,1.83,1.08,14.9,14.9,0,0,1,1.44,1.16l2-2.38h1.66v21.47H236l-2-2.76c-.46.39-.94.77-1.44,1.12a12.28,12.28,0,0,1-1.83,1.06,10.88,10.88,0,0,1-2,.71A8.1,8.1,0,0,1,226.73,126.11Zm0-16.79a5.65,5.65,0,0,0-2,.35,4.54,4.54,0,0,0-1.6,1,4.89,4.89,0,0,0-1.07,1.7,6.67,6.67,0,0,0-.4,2.36,6.57,6.57,0,0,0,.4,2.35,4.93,4.93,0,0,0,1.07,1.71,4.39,4.39,0,0,0,1.6,1,5.44,5.44,0,0,0,2,.36,4.41,4.41,0,0,0,2-.46,5.24,5.24,0,0,0,1.62-1.22,5.83,5.83,0,0,0,1.1-1.75,5.26,5.26,0,0,0,0-4.07,6.09,6.09,0,0,0-1.1-1.75,5.57,5.57,0,0,0-1.62-1.22A4.4,4.4,0,0,0,226.73,109.32Z"/><path class="cls-2" d="M226.73,103.65a8.17,8.17,0,0,1,2,.26,10.21,10.21,0,0,1,1.94.7,13.49,13.49,0,0,1,1.8,1.06,15.81,15.81,0,0,1,1.6,1.32l2.08-2.49h1.29v21h-1.29l-2.08-2.88a18.61,18.61,0,0,1-1.62,1.28,11.52,11.52,0,0,1-1.8,1,10.37,10.37,0,0,1-1.93.7,8,8,0,0,1-2,.25,11.73,11.73,0,0,1-4.17-.74,9.88,9.88,0,0,1-3.41-2.17,10.09,10.09,0,0,1-2.31-3.48,12.37,12.37,0,0,1-.84-4.69,11.8,11.8,0,0,1,.84-4.51,10.66,10.66,0,0,1,2.31-3.52,10.32,10.32,0,0,1,3.41-2.28,10.59,10.59,0,0,1,4.17-.82m0,16.84a4.63,4.63,0,0,0,2.07-.48,5.77,5.77,0,0,0,1.7-1.28,6.46,6.46,0,0,0,1.15-1.82,5.61,5.61,0,0,0,0-4.26,6.37,6.37,0,0,0-1.15-1.83,5.74,5.74,0,0,0-1.7-1.27,4.63,4.63,0,0,0-2.07-.48,5.71,5.71,0,0,0-2.07.37,4.8,4.8,0,0,0-1.69,1.1,5.17,5.17,0,0,0-1.13,1.79,7.5,7.5,0,0,0,0,4.89A5.31,5.31,0,0,0,223,119a4.64,4.64,0,0,0,1.69,1.09,5.72,5.72,0,0,0,2.07.38m0-17.34a11.16,11.16,0,0,0-4.36.86,10.92,10.92,0,0,0-3.58,2.39,11.25,11.25,0,0,0-2.41,3.68,12.22,12.22,0,0,0-.88,4.7,12.75,12.75,0,0,0,.88,4.88,10.59,10.59,0,0,0,2.42,3.65,10.31,10.31,0,0,0,3.58,2.27,12.11,12.11,0,0,0,4.35.78,8.66,8.66,0,0,0,2.14-.27,11.34,11.34,0,0,0,2-.73,12.43,12.43,0,0,0,1.87-1.08c.42-.3.84-.62,1.24-1l1.76,2.44.15.21H238V104h-2l-.15.18L234,106.27a15.36,15.36,0,0,0-1.26-1,13.54,13.54,0,0,0-1.87-1.11,11.58,11.58,0,0,0-2-.74,8.6,8.6,0,0,0-2.14-.27Zm0,16.84a5.37,5.37,0,0,1-1.89-.34,4.05,4.05,0,0,1-1.51-1,4.58,4.58,0,0,1-1-1.62,6.3,6.3,0,0,1-.38-2.26,6.39,6.39,0,0,1,.38-2.27,4.67,4.67,0,0,1,1-1.62,4.15,4.15,0,0,1,1.51-1,5.15,5.15,0,0,1,1.89-.34,4.09,4.09,0,0,1,1.85.43,5.21,5.21,0,0,1,1.55,1.16,5.68,5.68,0,0,1,1.05,1.68,5,5,0,0,1,.39,1.94,5.05,5.05,0,0,1-.39,1.94,5.63,5.63,0,0,1-1.05,1.67,5.24,5.24,0,0,1-1.55,1.17,4.22,4.22,0,0,1-1.85.43Z"/><path class="cls-1" d="M251.84,126.11a10.86,10.86,0,0,1-7.76-3.19,11.13,11.13,0,0,1-2.35-3.58,11.72,11.72,0,0,1-.87-4.56V95.85h5.88v9.41a6.89,6.89,0,0,1,.65-.54,6.58,6.58,0,0,1,1.39-.73,8.93,8.93,0,0,1,1.53-.44,8.09,8.09,0,0,1,1.53-.15,10.81,10.81,0,0,1,4.29.86,10.51,10.51,0,0,1,3.49,2.38,11.37,11.37,0,0,1,2.34,3.6,11.66,11.66,0,0,1,.87,4.54,12.09,12.09,0,0,1-.86,4.61,11.1,11.1,0,0,1-2.36,3.58,10.51,10.51,0,0,1-3.48,2.32A11.15,11.15,0,0,1,251.84,126.11Zm0-16.79a4.36,4.36,0,0,0-2,.45,5.62,5.62,0,0,0-1.63,1.22,5.86,5.86,0,0,0-1.09,1.75,5.52,5.52,0,0,0-.39,2,5.88,5.88,0,0,0,.39,2.16,5.41,5.41,0,0,0,1.09,1.73,5.19,5.19,0,0,0,1.62,1.15,4.81,4.81,0,0,0,3.93,0,5.31,5.31,0,0,0,1.62-1.15,5.62,5.62,0,0,0,1.1-1.73,5.69,5.69,0,0,0,.4-2.16,5.79,5.79,0,0,0-.4-2.18,5.5,5.5,0,0,0-1.1-1.73,4.93,4.93,0,0,0-3.59-1.55Z"/><path class="cls-2" d="M246.49,96.1v9.81a4.92,4.92,0,0,1,1-1,5.85,5.85,0,0,1,1.33-.71,9.28,9.28,0,0,1,1.48-.42,7.76,7.76,0,0,1,1.49-.15,10.45,10.45,0,0,1,4.19.84,10.32,10.32,0,0,1,3.41,2.32,11.1,11.1,0,0,1,2.29,3.52,11.57,11.57,0,0,1,.85,4.45,11.73,11.73,0,0,1-.85,4.51,10.58,10.58,0,0,1-2.29,3.5,10.19,10.19,0,0,1-3.41,2.27,10.78,10.78,0,0,1-4.19.8,10.66,10.66,0,0,1-4.17-.82,10.47,10.47,0,0,1-3.41-2.3,10.71,10.71,0,0,1-2.3-3.5,11.36,11.36,0,0,1-.85-4.46V96.1h5.38m5.35,24.39a5,5,0,0,0,2.07-.44,5.43,5.43,0,0,0,1.7-1.21,5.54,5.54,0,0,0,1.15-1.81,5.93,5.93,0,0,0,.42-2.25,6.07,6.07,0,0,0-.42-2.27,5.54,5.54,0,0,0-1.15-1.81,5.25,5.25,0,0,0-1.7-1.2,5,5,0,0,0-2.07-.43,4.63,4.63,0,0,0-2.07.48,5.69,5.69,0,0,0-1.69,1.27,5.76,5.76,0,0,0-1.14,1.83,5.6,5.6,0,0,0-.41,2.13,5.92,5.92,0,0,0,.41,2.25,5.36,5.36,0,0,0,1.14,1.81,5.51,5.51,0,0,0,1.69,1.21,5,5,0,0,0,2.07.44M247,95.6h-6.38v19.18a12.15,12.15,0,0,0,.88,4.65,11.44,11.44,0,0,0,2.42,3.67,11,11,0,0,0,3.57,2.4,11.23,11.23,0,0,0,4.36.86,11.39,11.39,0,0,0,4.38-.84,10.74,10.74,0,0,0,3.57-2.38,11.21,11.21,0,0,0,2.41-3.66,12.37,12.37,0,0,0,.88-4.7,12.17,12.17,0,0,0-.88-4.64,12,12,0,0,0-2.4-3.68,11.07,11.07,0,0,0-8-3.31,8.73,8.73,0,0,0-1.58.16,8.54,8.54,0,0,0-1.57.45,6.61,6.61,0,0,0-1.44.76l-.26.19V95.6ZM251.84,120a4.54,4.54,0,0,1-1.86-.4,5.07,5.07,0,0,1-1.54-1.09,5.2,5.2,0,0,1-1-1.65,5.6,5.6,0,0,1-.37-2.07,5.24,5.24,0,0,1,.37-2,5.56,5.56,0,0,1,1-1.67A5.21,5.21,0,0,1,250,110a4,4,0,0,1,1.84-.43,4.54,4.54,0,0,1,1.87.39,4.88,4.88,0,0,1,1.54,1.08,5.22,5.22,0,0,1,1.05,1.66,5.86,5.86,0,0,1,0,4.15,5.41,5.41,0,0,1-1.05,1.65,4.91,4.91,0,0,1-1.54,1.09,4.55,4.55,0,0,1-1.87.4Z"/><path class="cls-1" d="M275.84,126.11a10.81,10.81,0,0,1-7.76-3.19,11.16,11.16,0,0,1-2.36-3.58,11.87,11.87,0,0,1-.86-4.56V95.85h5.87v9.41a6,6,0,0,1,.66-.54,6.81,6.81,0,0,1,1.39-.73,8.82,8.82,0,0,1,1.52-.44,8.19,8.19,0,0,1,1.54-.15,10.81,10.81,0,0,1,4.29.86,10.47,10.47,0,0,1,3.48,2.38,11.22,11.22,0,0,1,2.35,3.6,11.84,11.84,0,0,1,.86,4.54,12.09,12.09,0,0,1-.86,4.61,10.92,10.92,0,0,1-2.35,3.58,10.66,10.66,0,0,1-3.49,2.32A11.06,11.06,0,0,1,275.84,126.11Zm0-16.79a4.4,4.4,0,0,0-2,.45,5.57,5.57,0,0,0-1.62,1.22,5.86,5.86,0,0,0-1.09,1.75,5.49,5.49,0,0,0-.4,2,5.85,5.85,0,0,0,.4,2.16,5.39,5.39,0,0,0,1.08,1.73,5.31,5.31,0,0,0,1.62,1.15,4.83,4.83,0,0,0,3.94,0,5.31,5.31,0,0,0,1.62-1.15,5.78,5.78,0,0,0,1.09-1.73,5.69,5.69,0,0,0,.41-2.16,5.79,5.79,0,0,0-.41-2.18,5.66,5.66,0,0,0-1.09-1.73,5.12,5.12,0,0,0-1.62-1.14A4.86,4.86,0,0,0,275.84,109.32Z"/><path class="cls-2" d="M270.48,96.1v9.81a4.92,4.92,0,0,1,1-1,6.14,6.14,0,0,1,1.34-.71,9.28,9.28,0,0,1,1.48-.42,7.76,7.76,0,0,1,1.49-.15,10.49,10.49,0,0,1,4.19.84,10.28,10.28,0,0,1,3.4,2.32,11.12,11.12,0,0,1,2.3,3.52,11.56,11.56,0,0,1,.84,4.45,11.72,11.72,0,0,1-.84,4.51,10.6,10.6,0,0,1-2.3,3.5,10.15,10.15,0,0,1-3.4,2.27,10.82,10.82,0,0,1-4.19.8,10.59,10.59,0,0,1-4.17-.82,10.37,10.37,0,0,1-3.41-2.3,10.57,10.57,0,0,1-2.31-3.5,11.54,11.54,0,0,1-.84-4.46V96.1h5.37m5.36,24.39a5,5,0,0,0,2.07-.44,5.55,5.55,0,0,0,1.7-1.21,5.85,5.85,0,0,0,1.57-4.06,6.07,6.07,0,0,0-.42-2.27,5.89,5.89,0,0,0-1.15-1.81,5.36,5.36,0,0,0-1.7-1.2,5,5,0,0,0-2.07-.43,4.63,4.63,0,0,0-2.07.48,5.74,5.74,0,0,0-1.7,1.27,5.92,5.92,0,0,0-1.13,1.83,5.62,5.62,0,0,0-.42,2.13,5.93,5.93,0,0,0,.42,2.25,5.39,5.39,0,0,0,2.83,3,5,5,0,0,0,2.07.44M271,95.6h-6.37v19.18a11.93,11.93,0,0,0,.88,4.65,11.42,11.42,0,0,0,2.41,3.67,11.13,11.13,0,0,0,7.94,3.26,11.43,11.43,0,0,0,4.38-.84,10.74,10.74,0,0,0,3.57-2.38,11,11,0,0,0,2.4-3.66,12.18,12.18,0,0,0,.88-4.7,12,12,0,0,0-.88-4.64,11.66,11.66,0,0,0-2.4-3.68,11,11,0,0,0-8-3.31,8.75,8.75,0,0,0-1.59.16,8.44,8.44,0,0,0-1.56.45,6.39,6.39,0,0,0-1.44.76l-.27.19V95.6ZM275.84,120a4.47,4.47,0,0,1-1.86-.4,4.84,4.84,0,0,1-1.54-1.09,5.2,5.2,0,0,1-1-1.65,5.6,5.6,0,0,1-.38-2.07,5.16,5.16,0,0,1,.38-1.94,5.46,5.46,0,0,1,1-1.68A5.21,5.21,0,0,1,274,110a4.09,4.09,0,0,1,1.85-.43,4.54,4.54,0,0,1,1.87.39,4.73,4.73,0,0,1,1.53,1.08,5.22,5.22,0,0,1,1.05,1.66,5.5,5.5,0,0,1,.39,2.08,5.37,5.37,0,0,1-1.44,3.72,4.84,4.84,0,0,1-1.54,1.09,4.47,4.47,0,0,1-1.86.4Z"/><path class="cls-1" d="M289.29,125.72V104.21h5.89v21.51Zm2.95-23.15a3.63,3.63,0,0,1-1.5-.31,3.81,3.81,0,0,1-2-2,3.71,3.71,0,0,1-.31-1.49,3.54,3.54,0,0,1,.31-1.48,3.69,3.69,0,0,1,.82-1.22,3.92,3.92,0,0,1,1.21-.82,3.79,3.79,0,0,1,1.5-.3,3.84,3.84,0,0,1,1.51.3,4.09,4.09,0,0,1,1.22.82,3.81,3.81,0,0,1,.83,4.19,4,4,0,0,1-.83,1.21,4.06,4.06,0,0,1-1.22.81A3.68,3.68,0,0,1,292.24,102.57Z"/><path class="cls-2" d="M292.24,95.18a3.51,3.51,0,0,1,1.41.28,3.76,3.76,0,0,1,1.14.77,3.57,3.57,0,0,1,.78,1.13,3.59,3.59,0,0,1,0,2.78,3.57,3.57,0,0,1-.78,1.13,3.73,3.73,0,0,1-1.14.76,3.55,3.55,0,0,1-2.81,0,3.61,3.61,0,0,1-1.14-.76,3.68,3.68,0,0,1-.76-1.13,3.43,3.43,0,0,1-.29-1.39,3.46,3.46,0,0,1,.29-1.39,3.68,3.68,0,0,1,.76-1.13,3.64,3.64,0,0,1,1.14-.77,3.5,3.5,0,0,1,1.4-.28m2.69,9.28v21h-5.39v-21h5.39m-2.69-9.78a4.12,4.12,0,0,0-1.6.32,4.31,4.31,0,0,0-1.29.87,4,4,0,0,0-.87,1.3,4,4,0,0,0,0,3.17,4.09,4.09,0,0,0,.87,1.28,4.08,4.08,0,0,0,4.5.87,4.22,4.22,0,0,0,1.29-.86,4.31,4.31,0,0,0,.89-1.29,4.09,4.09,0,0,0,0-3.17,4,4,0,0,0-.89-1.3,4.36,4.36,0,0,0-1.3-.87,4.12,4.12,0,0,0-1.6-.32Zm3.19,9.28H289v22h6.39V104Z"/><path class="cls-1" d="M309.55,125.72a9.28,9.28,0,0,1-3.75-.76,9.69,9.69,0,0,1-5.14-5.14,9.41,9.41,0,0,1-.76-3.75v-6h-2.61v-5.83h2.61v-8.4h5.84v8.4h8.12v5.83h-8.12v6a3.79,3.79,0,0,0,.29,1.48,3.89,3.89,0,0,0,.81,1.21,3.85,3.85,0,0,0,1.22.82,3.71,3.71,0,0,0,1.49.3h4.31v5.84Z"/><path class="cls-2" d="M305.49,96.1v8.4h8.12v5.33h-8.12v6.24a3.94,3.94,0,0,0,.31,1.58,4.22,4.22,0,0,0,.86,1.29,4.36,4.36,0,0,0,1.3.87,3.9,3.9,0,0,0,1.59.32h4.06v5.34h-4.06a9,9,0,0,1-3.65-.74,9.49,9.49,0,0,1-5-5,9.12,9.12,0,0,1-.74-3.65v-6.24h-2.61V104.5h2.61V96.1h5.34m.5-.5h-6.34V104H297v6.33h2.61v5.74a9.6,9.6,0,0,0,.78,3.85,10.16,10.16,0,0,0,2.12,3.15,10,10,0,0,0,3.15,2.12,9.6,9.6,0,0,0,3.85.78h4.56v-6.34h-4.56a3.42,3.42,0,0,1-1.39-.28,3.64,3.64,0,0,1-1.14-.77,3.45,3.45,0,0,1-1-2.51v-5.74h8.12V104H306V95.6Z"/><path class="cls-1" d="M157.65,162.11a11.75,11.75,0,0,1-4.26-.76,10.14,10.14,0,0,1-3.5-2.22,10.52,10.52,0,0,1-2.37-3.57,12.57,12.57,0,0,1-.86-4.78,11.89,11.89,0,0,1,.87-4.6,11,11,0,0,1,2.35-3.6,10.7,10.7,0,0,1,3.5-2.34,10.91,10.91,0,0,1,4.27-.84,8.25,8.25,0,0,1,2.08.27,10.3,10.3,0,0,1,2,.72,12.93,12.93,0,0,1,1.83,1.08,16.08,16.08,0,0,1,1.43,1.16l2-2.38h1.66v21.47H167L165,159a17.66,17.66,0,0,1-1.43,1.12,13.38,13.38,0,0,1-1.83,1.06,11.16,11.16,0,0,1-2,.71A8.1,8.1,0,0,1,157.65,162.11Zm0-16.79a5.71,5.71,0,0,0-2,.35,4.5,4.5,0,0,0-1.59,1.05,4.91,4.91,0,0,0-1.08,1.7,6.67,6.67,0,0,0-.39,2.36,6.58,6.58,0,0,0,.39,2.35,5,5,0,0,0,1.08,1.71,4.35,4.35,0,0,0,1.59,1,5.49,5.49,0,0,0,2,.36,4.37,4.37,0,0,0,1.95-.46,5.28,5.28,0,0,0,1.63-1.22,5.83,5.83,0,0,0,1.1-1.75,5.38,5.38,0,0,0,0-4.07,6.09,6.09,0,0,0-1.1-1.75,5.62,5.62,0,0,0-1.63-1.22A4.36,4.36,0,0,0,157.65,145.32Z"/><path class="cls-2" d="M157.65,139.65a8.17,8.17,0,0,1,2,.26,10.73,10.73,0,0,1,1.94.7,12.77,12.77,0,0,1,1.79,1.06A14.77,14.77,0,0,1,165,143l2.08-2.49h1.3v21h-1.3L165,158.59a16.88,16.88,0,0,1-1.62,1.28,11,11,0,0,1-1.79,1,10.63,10.63,0,0,1-1.93.7,8,8,0,0,1-2,.25,11.73,11.73,0,0,1-4.17-.74,9.93,9.93,0,0,1-3.42-2.17,10.21,10.21,0,0,1-2.3-3.48,12.18,12.18,0,0,1-.85-4.69,11.61,11.61,0,0,1,.85-4.51,10.79,10.79,0,0,1,2.3-3.52,10.36,10.36,0,0,1,3.42-2.28,10.59,10.59,0,0,1,4.17-.82m0,16.84a4.63,4.63,0,0,0,2.07-.48,5.72,5.72,0,0,0,1.69-1.28,6,6,0,0,0,1.15-1.82,5.61,5.61,0,0,0,0-4.26,6,6,0,0,0-1.15-1.83,5.69,5.69,0,0,0-1.69-1.27,4.63,4.63,0,0,0-2.07-.48,5.64,5.64,0,0,0-2.07.37,4.8,4.8,0,0,0-1.69,1.1,5,5,0,0,0-1.13,1.79,7.5,7.5,0,0,0,0,4.89,5.16,5.16,0,0,0,1.13,1.8,4.64,4.64,0,0,0,1.69,1.09,5.64,5.64,0,0,0,2.07.38m0-17.34a11.24,11.24,0,0,0-4.37.86,10.87,10.87,0,0,0-3.57,2.39,11.27,11.27,0,0,0-2.42,3.68,12.41,12.41,0,0,0-.88,4.7,12.94,12.94,0,0,0,.88,4.88,10.74,10.74,0,0,0,2.42,3.65,10.5,10.5,0,0,0,3.59,2.27,12,12,0,0,0,4.35.78,8.58,8.58,0,0,0,2.13-.27,10.61,10.61,0,0,0,2-.73,11.63,11.63,0,0,0,1.87-1.08c.43-.3.85-.62,1.25-1l1.76,2.44.15.21h2V140h-2l-.15.18L165,142.27a13.83,13.83,0,0,0-1.26-1,12.87,12.87,0,0,0-1.86-1.11,11.58,11.58,0,0,0-2-.74,8.66,8.66,0,0,0-2.14-.27Zm0,16.84a5.43,5.43,0,0,1-1.9-.34,4.33,4.33,0,0,1-1.51-1,4.85,4.85,0,0,1-1-1.63,6.3,6.3,0,0,1-.38-2.26,6.39,6.39,0,0,1,.38-2.27,4.8,4.8,0,0,1,1-1.62,4.33,4.33,0,0,1,1.51-1,5.21,5.21,0,0,1,1.9-.34,4,4,0,0,1,1.84.43,5.21,5.21,0,0,1,1.55,1.16,5.71,5.71,0,0,1,1.06,1.68,5.16,5.16,0,0,1,.38,1.94,5.23,5.23,0,0,1-.38,1.94,5.66,5.66,0,0,1-1.06,1.67,5.24,5.24,0,0,1-1.55,1.17,4.15,4.15,0,0,1-1.84.43Z"/><path class="cls-1" d="M193.6,161.72V148.13a2.47,2.47,0,0,0-.19-.94,2.49,2.49,0,0,0-.53-.79,2.32,2.32,0,0,0-.78-.52,2.29,2.29,0,0,0-.94-.19,2.21,2.21,0,0,0-.93.19,2.38,2.38,0,0,0-.77.52,2.62,2.62,0,0,0-.51.79,2.29,2.29,0,0,0-.19.94v13.59H182.9V148.13a2.46,2.46,0,0,0-.18-.94,2.49,2.49,0,0,0-.53-.79,2.42,2.42,0,0,0-.78-.52,2.34,2.34,0,0,0-.95-.19,2.24,2.24,0,0,0-.93.19,2.34,2.34,0,0,0-.76.52,2.64,2.64,0,0,0-.52.79,2.46,2.46,0,0,0-.18.94v13.59h-5.86V140.21h1.66l1.36,1.51a9.19,9.19,0,0,1,2.35-1.35,8.09,8.09,0,0,1,2.88-.54,8.25,8.25,0,0,1,3,.57,6,6,0,0,1,2.37,1.74,5.39,5.39,0,0,1,1-.94,6.87,6.87,0,0,1,1.38-.8,6.51,6.51,0,0,1,1.49-.43,8.86,8.86,0,0,1,1.52-.14,8.17,8.17,0,0,1,3.23.65,8.36,8.36,0,0,1,2.62,1.77,8.31,8.31,0,0,1,2.42,5.88v13.59Z"/><path class="cls-2" d="M191.16,140.08a7.85,7.85,0,0,1,3.13.63,8.13,8.13,0,0,1,2.55,1.72,8.09,8.09,0,0,1,2.34,5.7v13.34h-5.33V148.13a2.61,2.61,0,0,0-.21-1,2.56,2.56,0,0,0-.58-.86,2.61,2.61,0,0,0-.86-.58,2.65,2.65,0,0,0-1-.21,2.53,2.53,0,0,0-1,.21,2.57,2.57,0,0,0-.85.58,2.51,2.51,0,0,0-.56.86,2.61,2.61,0,0,0-.21,1v13.34h-5.36V148.13a2.79,2.79,0,0,0-.2-1,2.69,2.69,0,0,0-3.52-1.44,2.44,2.44,0,0,0-.84.58,2.69,2.69,0,0,0-.57.86,2.6,2.6,0,0,0-.2,1v13.34h-5.36v-21h1.29l1.46,1.61a8.55,8.55,0,0,1,2.46-1.47,7.8,7.8,0,0,1,2.79-.52,8,8,0,0,1,2.88.55,5.86,5.86,0,0,1,2.46,1.91,5.27,5.27,0,0,1,1.12-1.14,6.78,6.78,0,0,1,1.32-.77,7.3,7.3,0,0,1,1.45-.42,9.12,9.12,0,0,1,1.47-.13m0-.5a9.32,9.32,0,0,0-1.56.14,7,7,0,0,0-1.55.45,6.65,6.65,0,0,0-1.43.83,5.38,5.38,0,0,0-.83.76,6,6,0,0,0-2.27-1.59,8.32,8.32,0,0,0-3.06-.59,8.16,8.16,0,0,0-3,.56,8.88,8.88,0,0,0-2.23,1.24l-1.13-1.26L174,140h-2v22h6.36V148.13a2.22,2.22,0,0,1,.16-.85,2.27,2.27,0,0,1,.47-.7,2,2,0,0,1,.68-.47,2.09,2.09,0,0,1,.83-.17,2.19,2.19,0,0,1,.85.17,2.1,2.1,0,0,1,.7.47,2.24,2.24,0,0,1,.48.7,2.22,2.22,0,0,1,.16.85V162H189V148.13a2.23,2.23,0,0,1,.63-1.55,2,2,0,0,1,.68-.47,2.16,2.16,0,0,1,1.68,0,2.25,2.25,0,0,1,.71.47,2.18,2.18,0,0,1,.64,1.55V162h6.33V148.13a8.34,8.34,0,0,0-.67-3.34,8.45,8.45,0,0,0-1.82-2.71,8.76,8.76,0,0,0-2.71-1.83,8.42,8.42,0,0,0-3.32-.67Z"/><path class="cls-1" d="M212.7,162.11a10.81,10.81,0,0,1-10.12-6.77,11.87,11.87,0,0,1-.86-4.56,12.26,12.26,0,0,1,.86-4.65,10.78,10.78,0,0,1,2.36-3.59,10.52,10.52,0,0,1,3.5-2.31,11.2,11.2,0,0,1,6.89-.51,11.19,11.19,0,0,1,2.44.93,11,11,0,0,1,3.93,3.43l.11.16-9.92,11.94.21,0,.6,0a4.92,4.92,0,0,0,1.44-.21,4.77,4.77,0,0,0,1.3-.59,4.58,4.58,0,0,0,1.08-.93,5.06,5.06,0,0,0,.78-1.22l.15-.34,4.33,4.35-.12.18a11.17,11.17,0,0,1-3.91,3.41,10.46,10.46,0,0,1-2.43.91A10.92,10.92,0,0,1,212.7,162.11Zm0-16.79a5.2,5.2,0,0,0-2,.38,4.69,4.69,0,0,0-1.6,1.09,5,5,0,0,0-1.08,1.72,6.21,6.21,0,0,0-.4,2.27c0,.19,0,.4,0,.64a6.26,6.26,0,0,0,.1.74c0,.24.1.48.16.71a1.72,1.72,0,0,0,.07.21l5.77-7.66-.35-.06A5.74,5.74,0,0,0,212.7,145.32Z"/><path class="cls-2" d="M212.7,139.65a10.52,10.52,0,0,1,2.57.32,11.09,11.09,0,0,1,2.39.9,10.58,10.58,0,0,1,2.1,1.44,10.79,10.79,0,0,1,1.73,1.91l-10,12.11a2.63,2.63,0,0,0,.62.13l.63,0a5.06,5.06,0,0,0,1.51-.22,5.29,5.29,0,0,0,1.37-.62,4.77,4.77,0,0,0,1.13-1,4.9,4.9,0,0,0,.82-1.28l3.92,3.94a10.69,10.69,0,0,1-1.71,1.9,11,11,0,0,1-2.1,1.44,10.67,10.67,0,0,1-2.38.89,10.87,10.87,0,0,1-2.56.3,10.59,10.59,0,0,1-4.17-.82,10.37,10.37,0,0,1-3.41-2.3,10.57,10.57,0,0,1-2.31-3.5,11.54,11.54,0,0,1-.84-4.46,11.93,11.93,0,0,1,.84-4.55,10.27,10.27,0,0,1,5.72-5.77,10.76,10.76,0,0,1,4.17-.81M208,153.56l6.24-8.28a2.85,2.85,0,0,0-.73-.17,6.34,6.34,0,0,0-.76,0,5.34,5.34,0,0,0-2.07.4,4.93,4.93,0,0,0-1.69,1.15,5.44,5.44,0,0,0-1.12,1.79,6.34,6.34,0,0,0-.42,2.37c0,.19,0,.42,0,.66s.06.5.1.76.1.5.17.74a2.68,2.68,0,0,0,.25.62m4.75-14.41a11.41,11.41,0,0,0-4.36.85,10.69,10.69,0,0,0-3.57,2.36,10.91,10.91,0,0,0-2.42,3.68,12.5,12.5,0,0,0-.88,4.74,12.11,12.11,0,0,0,.88,4.65,11.58,11.58,0,0,0,2.41,3.67,11.13,11.13,0,0,0,7.94,3.26,10.92,10.92,0,0,0,2.68-.32,11,11,0,0,0,4.68-2.43,10.66,10.66,0,0,0,1.8-2l.24-.34-.29-.3L217.88,153l-.51-.52-.3.66a5,5,0,0,1-.73,1.17,4.8,4.8,0,0,1-1,.88,5.13,5.13,0,0,1-1.24.56,4.83,4.83,0,0,1-1.37.2h-.31l9.49-11.44.24-.29-.22-.31a11.51,11.51,0,0,0-1.81-2,11.12,11.12,0,0,0-2.2-1.5,11.42,11.42,0,0,0-2.5-1,11,11,0,0,0-2.69-.33Zm-4.59,13.38-.09-.42c0-.23-.07-.47-.09-.7s0-.45,0-.63a6,6,0,0,1,.38-2.18,5,5,0,0,1,1-1.64,4.55,4.55,0,0,1,1.52-1,5,5,0,0,1,1.88-.36l.63,0-5.22,6.93Z"/><path class="cls-1" d="M223.22,161.72v-5.84h12.5a1.08,1.08,0,0,0,1.08-1.08c0-.36-.14-.47-.24-.52a2.1,2.1,0,0,0-.84-.15h-5.58a6.87,6.87,0,0,1-2.71-.55,7.06,7.06,0,0,1-3.67-3.7,7.07,7.07,0,0,1,0-5.42,7,7,0,0,1,1.48-2.2,6.94,6.94,0,0,1,4.9-2h11.1v5.83h-11.1a1.09,1.09,0,0,0-1.08,1.09,1.1,1.1,0,0,0,.32.79,1,1,0,0,0,.76.33h5.58a7.49,7.49,0,0,1,2.68.48,6.67,6.67,0,0,1,2.19,1.33,6.37,6.37,0,0,1,2,4.7,6.75,6.75,0,0,1-.55,2.7,7.43,7.43,0,0,1-1.49,2.2,7.06,7.06,0,0,1-2.19,1.48,6.8,6.8,0,0,1-2.69.54Z"/><path class="cls-2" d="M241,140.5v5.33H230.14a1.35,1.35,0,0,0-1.33,1.34,1.34,1.34,0,0,0,.39,1,1.26,1.26,0,0,0,.94.4h5.58a7.21,7.21,0,0,1,2.59.46,6.7,6.7,0,0,1,2.12,1.29,6.21,6.21,0,0,1,1.43,2,6,6,0,0,1,.53,2.53,6.43,6.43,0,0,1-.53,2.6,7.2,7.2,0,0,1-1.43,2.12,6.72,6.72,0,0,1-2.12,1.43,6.48,6.48,0,0,1-2.59.52H223.47v-5.34h12.25a1.29,1.29,0,0,0,.94-.39,1.28,1.28,0,0,0,.39-.94.74.74,0,0,0-.39-.75,2.43,2.43,0,0,0-.94-.17h-5.58a6.58,6.58,0,0,1-2.61-.53,6.93,6.93,0,0,1-2.11-1.44,6.76,6.76,0,0,1-1.43-2.13,6.81,6.81,0,0,1,0-5.22,6.61,6.61,0,0,1,1.43-2.12,6.62,6.62,0,0,1,4.72-1.94H241m.5-.5H230.14a6.93,6.93,0,0,0-2.8.56,7.14,7.14,0,0,0-2.28,1.53,7.27,7.27,0,0,0-1.53,2.27,7.31,7.31,0,0,0,0,5.61,7.23,7.23,0,0,0,3.8,3.84,7,7,0,0,0,2.81.57h5.58a1.73,1.73,0,0,1,.73.13s.1,0,.1.29a.79.79,0,0,1-.25.59.75.75,0,0,1-.58.24H223V162h12.75a7.11,7.11,0,0,0,5.06-2.1,7.59,7.59,0,0,0,1.54-2.27,7.08,7.08,0,0,0,.57-2.8,6.55,6.55,0,0,0-2.13-4.88,7,7,0,0,0-2.28-1.39,7.9,7.9,0,0,0-2.76-.49h-5.58a.77.77,0,0,1-.58-.25.84.84,0,0,1-.25-.62.78.78,0,0,1,.25-.59.76.76,0,0,1,.58-.25h11.35V140Z"/><path class="cls-1" d="M101.58,147.06c-7.8,0-19.22-8.38-21.65-11.95a32.16,32.16,0,0,1-2.62-3.52c-.8-1.25-1.61-2.68-2.42-4.26s-1.52-3.15-2.1-4.64a31.35,31.35,0,0,1-1.28-4,4.16,4.16,0,0,1-.09-1,2.05,2.05,0,0,1,.56-1.51,4.5,4.5,0,0,1,1.88-.95,13.69,13.69,0,0,0,2.94-1.41,25.56,25.56,0,0,0,2.92-2.43,16.39,16.39,0,0,0,3.12-5.11,16.77,16.77,0,0,0,1.09-4.87v-.11c0-.31,0-.62,0-.94a9.69,9.69,0,0,0-.83-4.19,5.92,5.92,0,0,0-.77-1.26,8.81,8.81,0,0,0-4.74-2.62h0a1.05,1.05,0,0,1-.21.12l-.67,2.41c-.77,2.76-1.54,5.48-2.3,8.13-1.31,4.58-2.6,8.92-3.81,12.9L69.78,119c-1.4,4.86-2.6,8.5-3.56,10.84a16,16,0,0,1-2.91,5,15.55,15.55,0,0,1-4.49,2.84,12.44,12.44,0,0,1-4.8,1.4c-2.38,0-3.58-1.34-3.58-4a26.11,26.11,0,0,1,.92-5.34c.6-2.48,1.55-5.79,2.82-9.82s2.59-8,4-11.85,2.9-7.88,4.48-11.92l.94-2.37c-.68.08-1.38.19-2.08.32a12.2,12.2,0,0,1-2.27.17A2,2,0,0,1,57,92a5.35,5.35,0,0,1,.53-2.1,5.7,5.7,0,0,1,1.21-1.85c.91-.85,2.69-1.55,5.43-2.11-.15-.85-.3-1.73-.43-2.63a103.26,103.26,0,0,1-1-12.73,91.72,91.72,0,0,1,.5-12.14,34,34,0,0,1,2-9,4.61,4.61,0,0,1,2.69-2.91,3,3,0,0,1,1-.18A4,4,0,0,1,71,47a9.84,9.84,0,0,1,3,3A22.89,22.89,0,0,1,76.43,55a50.16,50.16,0,0,1,2.73,12.33,37.44,37.44,0,0,1-.61,11.51A18.87,18.87,0,0,1,77.24,83a3.61,3.61,0,0,1-1.77,2l-.11,0h.08c.79,0,1.63,0,2.56.11a78.67,78.67,0,0,1,2.88-7.38,125.1,125.1,0,0,1,5.84-11.47,107.48,107.48,0,0,1,6.55-10.16,37,37,0,0,1,6-6.64,4.14,4.14,0,0,1,2.63-1.16,2.74,2.74,0,0,1,.7.09,2.82,2.82,0,0,1,1.84,2,11.4,11.4,0,0,1,.43,4.21,28.72,28.72,0,0,1-.91,5.51,62.34,62.34,0,0,1-4.51,12,43.45,43.45,0,0,1-6.3,9.55,19.23,19.23,0,0,1-3,2.83,3.51,3.51,0,0,1-1.92.83h0a1.66,1.66,0,0,1-.33,0c-.36-.1-.92-.43-.62-1.58a10.28,10.28,0,0,1,1.17-2.22c.85-1.32,2-3.41,3.42-6.19.12-.27.27-.57.43-.89s.35-.75.6-1.31c1.33-2.85,2.63-5.91,3.86-9.1a78.29,78.29,0,0,0,2.54-7.43,2.73,2.73,0,0,0,.07-.36,20.23,20.23,0,0,0-1.54,2.34c-1,1.75-2,3.58-2.89,5.45-1.93,4.12-3.5,7.61-4.68,10.35s-2.12,5.11-2.79,7c-.59,1.68-1.15,3.48-1.65,5.36A24.79,24.79,0,0,1,90.58,89c.42.26.83.51,1.2.78s.87.65,1.34,1a16.85,16.85,0,0,1,3.53,4.09,12.07,12.07,0,0,1,1.76,6.34,15.55,15.55,0,0,1-1.52,6.82,16.89,16.89,0,0,1-4.32,5.49,18.86,18.86,0,0,1-3.45,2.38,28,28,0,0,1-4.28,1.62A14.2,14.2,0,0,0,86,119.43,20.58,20.58,0,0,0,88,121.55c5.58,5.57,21.16,9,29.87,9H118l0,.17c.53,1.57.18,3.53-1,5.68-2.52,4.6-8.3,9.15-13.15,10.37A9.09,9.09,0,0,1,101.58,147.06ZM69.47,54.73a10.52,10.52,0,0,0-.21,2.92,54.16,54.16,0,0,0,.37,6.11c.55,4.47,1.06,8.21,1.53,11.11s1,5.36,1.42,7.26c.23.92.49,1.87.8,2.89l1.35,0a1.32,1.32,0,0,1-.8-.92,8.24,8.24,0,0,1-.17-2.49,61.78,61.78,0,0,0-.28-7c0-.3-.07-.63-.1-1s-.1-.81-.18-1.41c-.39-3.08-.93-6.31-1.62-9.6a59.13,59.13,0,0,0-1.93-7.45A2,2,0,0,0,69.47,54.73Z"/><path class="cls-2" d="M68.93,46.66a3.82,3.82,0,0,1,1.92.58,9.57,9.57,0,0,1,2.93,3,21.9,21.9,0,0,1,2.41,4.87,49.23,49.23,0,0,1,2.72,12.27,37.24,37.24,0,0,1-.6,11.43,18.8,18.8,0,0,1-1.29,4,3.47,3.47,0,0,1-1.63,1.88,1.27,1.27,0,0,1-.37.07c-.38,0-.66-.27-.86-.8A8.57,8.57,0,0,1,74,81.58a62.17,62.17,0,0,0-.28-7c0-.31-.07-.63-.1-1s-.1-.82-.19-1.42q-.57-4.66-1.61-9.62a58.31,58.31,0,0,0-2-7.48c-.14-.41-.29-.61-.43-.61h-.06c-.26.09-.38,1.17-.38,3.22a54.83,54.83,0,0,0,.37,6.14q.83,6.74,1.54,11.12t1.42,7.28c.25,1,.54,2.06.86,3.09.73,0,1.47,0,2.24,0,.92,0,1.84.05,2.74.12a77.09,77.09,0,0,1,2.93-7.54,123.44,123.44,0,0,1,5.83-11.45,106.85,106.85,0,0,1,6.53-10.13,36.51,36.51,0,0,1,5.91-6.59,3.91,3.91,0,0,1,2.47-1.12,2.3,2.3,0,0,1,.64.09,2.59,2.59,0,0,1,1.66,1.87,10.86,10.86,0,0,1,.42,4.11,27.51,27.51,0,0,1-.91,5.46,61.26,61.26,0,0,1-4.49,12,42.87,42.87,0,0,1-6.26,9.5A18.68,18.68,0,0,1,90,84.33a3.33,3.33,0,0,1-1.77.78.77.77,0,0,1-.27,0c-.48-.12-.63-.55-.44-1.27a10.22,10.22,0,0,1,1.14-2.14c.86-1.35,2-3.42,3.43-6.21.13-.28.27-.58.43-.9s.36-.75.61-1.32q2-4.31,3.86-9.11a74.34,74.34,0,0,0,2.55-7.46c.12-.48.12-.73,0-.77h0c-.24,0-.87.85-1.88,2.56s-2,3.59-2.91,5.47Q91.78,70.14,90,74.29t-2.79,7C86.58,83.1,86,85,85.49,86.89a24.32,24.32,0,0,1,5,2.29c.4.25.81.5,1.19.78s.9.68,1.32,1a16.62,16.62,0,0,1,3.48,4,11.77,11.77,0,0,1,1.72,6.21,15.2,15.2,0,0,1-1.5,6.71,16.24,16.24,0,0,1-4.25,5.4A18.24,18.24,0,0,1,89,115.69a27.76,27.76,0,0,1-4.53,1.7,15.75,15.75,0,0,0,1.36,2.19,22.46,22.46,0,0,0,2,2.15c5.58,5.57,21.31,9.07,30.05,9.07,1.74,5.24-7,14-14,15.72a8.48,8.48,0,0,1-2.28.29c-7.77,0-19.13-8.44-21.44-11.84a31.51,31.51,0,0,1-2.62-3.52c-.79-1.24-1.6-2.65-2.41-4.23A48.38,48.38,0,0,1,73,122.6a31.09,31.09,0,0,1-1.28-3.95,4.24,4.24,0,0,1-.08-.93,1.77,1.77,0,0,1,.49-1.33,4.52,4.52,0,0,1,1.78-.9,14,14,0,0,0,3-1.43,27.31,27.31,0,0,0,3-2.45,17.15,17.15,0,0,0,4.29-10.15c0-.36,0-.71,0-1.07a10,10,0,0,0-.85-4.3,6.4,6.4,0,0,0-.81-1.31,9,9,0,0,0-5-2.72c-.11,0-.21.13-.31.17h-.08c-.24.86-.48,1.7-.71,2.55-.77,2.76-1.54,5.48-2.3,8.13-1.28,4.45-2.55,8.76-3.81,12.9l-.85,3.08q-2.12,7.29-3.55,10.81a15.3,15.3,0,0,1-2.86,4.94,15.34,15.34,0,0,1-4.41,2.79,12.32,12.32,0,0,1-4.7,1.38q-3.33,0-3.33-3.73a26.88,26.88,0,0,1,.91-5.28q.91-3.75,2.82-9.8t4-11.85q2.09-5.79,4.47-11.91L64,93.5q-1.21.12-2.52.36a11.61,11.61,0,0,1-2.22.17,1.76,1.76,0,0,1-2-2,5.07,5.07,0,0,1,.51-2,5.31,5.31,0,0,1,1.15-1.76c.9-.85,2.77-1.55,5.55-2.11-.17-.92-.33-1.87-.47-2.86a102.61,102.61,0,0,1-1-12.7,91.4,91.4,0,0,1,.5-12.11,33.84,33.84,0,0,1,2-8.91A4.33,4.33,0,0,1,68,46.82a2.68,2.68,0,0,1,.93-.16m0-.5h0a3.13,3.13,0,0,0-1.09.19A4.84,4.84,0,0,0,65,49.41a34.74,34.74,0,0,0-2,9,92.26,92.26,0,0,0-.5,12.17,103.43,103.43,0,0,0,1,12.76c.12.8.25,1.61.39,2.4-2.66.57-4.39,1.27-5.31,2.13A6.82,6.82,0,0,0,56.75,92a2.25,2.25,0,0,0,2.49,2.49,11.83,11.83,0,0,0,2.32-.18c.55-.1,1.1-.19,1.64-.26l-.78,2c-1.58,4-3.09,8.05-4.48,11.92s-2.74,7.87-4,11.87-2.22,7.34-2.82,9.83a26.72,26.72,0,0,0-.93,5.4c0,3.5,2.08,4.23,3.83,4.23a12.82,12.82,0,0,0,4.91-1.42,16,16,0,0,0,4.56-2.9,15.71,15.71,0,0,0,3-5.1c1-2.35,2.16-6,3.57-10.86l.85-3.09c1.22-4,2.5-8.32,3.81-12.89.74-2.55,1.49-5.21,2.3-8.13l.26-.94c.13-.45.25-.91.38-1.36l.06,0a8.47,8.47,0,0,1,4.51,2.51,6,6,0,0,1,.74,1.21,9.45,9.45,0,0,1,.8,4.08c0,.31,0,.62,0,.93v.1a16.29,16.29,0,0,1-1.07,4.8,16.06,16.06,0,0,1-3.09,5,24.81,24.81,0,0,1-2.86,2.37A12.59,12.59,0,0,1,73.77,115a5.09,5.09,0,0,0-2,1,2.29,2.29,0,0,0-.63,1.69,4.21,4.21,0,0,0,.1,1.06,31.66,31.66,0,0,0,1.29,4,49.3,49.3,0,0,0,2.11,4.67c.81,1.57,1.63,3,2.43,4.27a32.15,32.15,0,0,0,2.64,3.56c2.48,3.61,14,12,21.84,12A9.2,9.2,0,0,0,104,147c4.9-1.23,10.75-5.84,13.3-10.49,1.22-2.21,1.57-4.24,1-5.88l-.11-.34h-.36c-8.47,0-24.24-3.48-29.7-8.93a21.24,21.24,0,0,1-1.91-2.09,14,14,0,0,1-1-1.59,26,26,0,0,0,4-1.55,19,19,0,0,0,3.5-2.41,16.89,16.89,0,0,0,4.38-5.57,15.77,15.77,0,0,0,1.55-6.93,12.34,12.34,0,0,0-1.79-6.47,17.17,17.17,0,0,0-3.59-4.15c-.47-.4-.92-.75-1.35-1.06s-.79-.53-1.19-.77a24.55,24.55,0,0,0-4.64-2.21c.48-1.79,1-3.51,1.59-5.12.66-1.87,1.6-4.22,2.78-7s2.75-6.22,4.67-10.34C96,62.28,97,60.45,98,58.71c.29-.49.53-.88.73-1.18-.49,1.65-1.25,3.8-2.25,6.41C95.28,67.12,94,70.18,92.66,73c-.25.57-.45,1-.61,1.31s-.3.62-.43.9c-1.41,2.76-2.55,4.84-3.4,6.16A9.74,9.74,0,0,0,87,83.68a1.93,1.93,0,0,0,0,1.14,1.12,1.12,0,0,0,.81.74,1.75,1.75,0,0,0,.4,0,3.79,3.79,0,0,0,2.07-.88,19.64,19.64,0,0,0,3-2.86,43.74,43.74,0,0,0,6.33-9.61,62.86,62.86,0,0,0,4.53-12.07,29.13,29.13,0,0,0,.92-5.56,11.52,11.52,0,0,0-.45-4.31,3.08,3.08,0,0,0-2-2.19,3.23,3.23,0,0,0-.76-.1,4.41,4.41,0,0,0-2.8,1.24,37.06,37.06,0,0,0-6,6.67A109.93,109.93,0,0,0,86.5,66.12a128.32,128.32,0,0,0-5.85,11.5c-1.13,2.55-2.08,5-2.83,7.21-.54,0-1-.07-1.54-.08a5.15,5.15,0,0,0,1.19-1.7A19.14,19.14,0,0,0,78.8,78.9a37.9,37.9,0,0,0,.61-11.58,50,50,0,0,0-2.75-12.39,23,23,0,0,0-2.46-5,10.14,10.14,0,0,0-3.1-3.13,4.36,4.36,0,0,0-2.17-.65Zm4.63,38.61c-.28-1-.52-1.84-.74-2.7-.46-1.9-.94-4.33-1.41-7.24s-1-6.64-1.53-11.1a53.77,53.77,0,0,1-.37-6.08c0-.93,0-1.56.06-2a64.66,64.66,0,0,1,1.77,7c.69,3.28,1.23,6.5,1.61,9.58.08.59.15,1.06.18,1.41s.07.68.1,1a60.75,60.75,0,0,1,.28,7,7.58,7.58,0,0,0,.18,2.6,2.57,2.57,0,0,0,.31.6Z"/><path class="cls-1" d="M134.87,162.33a14.54,14.54,0,0,1-7.45-2,15.21,15.21,0,0,1-3-2.31,14.62,14.62,0,0,1-2.32-3,15.47,15.47,0,0,1-1.48-3.55,14.28,14.28,0,0,1-.53-3.93,14,14,0,0,1,.53-3.91,15.43,15.43,0,0,1,1.48-3.52,14.68,14.68,0,0,1,2.32-3,15.08,15.08,0,0,1,3-2.3,14.84,14.84,0,0,1,3.52-1.49,14.82,14.82,0,0,1,9,.38,15,15,0,0,1,4.45,2.6l.16.14-3.22,5.37-.23-.23a9.12,9.12,0,0,0-2.86-2,8.5,8.5,0,0,0-6.78,0,9.19,9.19,0,0,0-2.76,1.86,8.93,8.93,0,0,0-1.87,2.75,8.41,8.41,0,0,0-.68,3.36,8.52,8.52,0,0,0,.68,3.39,8.8,8.8,0,0,0,4.63,4.64,8.29,8.29,0,0,0,3.37.69,7.75,7.75,0,0,0,2-.25,9,9,0,0,0,1.72-.62v-4.21h-3.93v-5.84h9.84v2l0,.25v11.22l-.08.08a15,15,0,0,1-4.45,2.6A14.75,14.75,0,0,1,134.87,162.33Z"/><path class="cls-2" d="M134.87,133a14.41,14.41,0,0,1,9.39,3.45l-2.94,4.91a9.49,9.49,0,0,0-2.94-2,8.76,8.76,0,0,0-7,0,9.23,9.23,0,0,0-2.83,1.91,9.09,9.09,0,0,0-1.92,2.83,8.4,8.4,0,0,0-.71,3.46,8.51,8.51,0,0,0,.71,3.49,9,9,0,0,0,4.75,4.77,8.62,8.62,0,0,0,3.47.71,8.37,8.37,0,0,0,2.06-.26,9.6,9.6,0,0,0,1.9-.7v-4.62H134.9v-5.34h9.34v2h0v11.11a14.41,14.41,0,0,1-9.39,3.45,14.1,14.1,0,0,1-3.86-.52,14.59,14.59,0,0,1-3.46-1.47,15.2,15.2,0,0,1-3-2.28,14.43,14.43,0,0,1-3.73-6.42,14.28,14.28,0,0,1-.52-3.87,13.91,13.91,0,0,1,.52-3.84,14.58,14.58,0,0,1,1.46-3.47,14.43,14.43,0,0,1,2.27-2.94,14.77,14.77,0,0,1,3-2.27,14.57,14.57,0,0,1,3.46-1.46,14.1,14.1,0,0,1,3.86-.52m0-.5a14.61,14.61,0,0,0-4,.54,15.23,15.23,0,0,0-3.59,1.51,16,16,0,0,0-3,2.34A14.77,14.77,0,0,0,121.9,140a15.1,15.1,0,0,0-1.51,3.58,14.59,14.59,0,0,0-.54,4,15,15,0,0,0,4.4,10.65,16,16,0,0,0,3,2.35,15,15,0,0,0,3.59,1.52,14.61,14.61,0,0,0,4,.54,15,15,0,0,0,5.19-.92,15.28,15.28,0,0,0,4.53-2.65l.17-.15V147h0v-2H134.4v6.34h3.93v3.8a9.9,9.9,0,0,1-1.53.54,7.73,7.73,0,0,1-1.93.24,8.14,8.14,0,0,1-3.27-.67,8.54,8.54,0,0,1-2.68-1.82,8.69,8.69,0,0,1-1.82-2.69,8.46,8.46,0,0,1,0-6.55,8.59,8.59,0,0,1,4.5-4.48,8.24,8.24,0,0,1,6.58,0,9.21,9.21,0,0,1,2.79,1.92l.45.46.33-.55,2.94-4.91.22-.36-.32-.28a15.28,15.28,0,0,0-4.53-2.65,15,15,0,0,0-5.19-.92Z"/></svg>