<svg id="Layer_1" data-name="Layer 1" xmlns="http://www.w3.org/2000/svg" viewBox="0 0 144 72"><defs><style>.cls-1{fill:#a73a39;}.cls-2{fill:#fff;}</style></defs><title>rrg_logo</title><path class="cls-1" d="M72.16,63.67c-17.92,0-34.78-2-47.49-5.68C15.23,55.27,4,50.41,4,42.73s11.26-12.54,20.7-15.27c12.71-3.66,29.57-5.67,47.49-5.67s34.77,2,47.48,5.67c9.44,2.73,20.7,7.58,20.7,15.27S129.08,55.27,119.64,58C106.93,61.65,90.07,63.67,72.16,63.67Z"/><path class="cls-2" d="M72.16,22.29c17.87,0,34.68,2,47.34,5.65,9.28,2.68,20.34,7.41,20.34,14.79S128.78,54.84,119.5,57.51C106.84,61.16,90,63.17,72.16,63.17s-34.69-2-47.35-5.66C15.53,54.84,4.47,50.1,4.47,42.73S15.53,30.62,24.81,27.94c12.66-3.64,29.48-5.65,47.35-5.65m0-1c-18,0-34.88,2-47.63,5.69C14.92,29.75,3.47,34.73,3.47,42.73s11.45,13,21.06,15.74c12.75,3.68,29.66,5.7,47.63,5.7s34.87-2,47.62-5.7c9.61-2.77,21.06-7.75,21.06-15.74s-11.45-13-21.06-15.75C107,23.31,90.12,21.29,72.16,21.29Z"/><ellipse class="cls-2" cx="72.16" cy="42.73" rx="66.06" ry="18.68"/><path class="cls-2" d="M72.16,24.54c39.21,0,65.56,9.41,65.56,18.19S111.37,60.91,72.16,60.91,6.6,51.51,6.6,42.73,32.94,24.54,72.16,24.54m0-1C35.4,23.54,5.6,32.13,5.6,42.73S35.4,61.91,72.16,61.91s66.56-8.59,66.56-19.18-29.8-19.19-66.56-19.19Z"/><path class="cls-1" d="M41.22,43.8a5.52,5.52,0,0,1-1.95-.35,4.6,4.6,0,0,1-1.61-1,5,5,0,0,1-1.09-1.64,5.82,5.82,0,0,1-.39-2.19,5.58,5.58,0,0,1,.39-2.11,5.21,5.21,0,0,1,1.09-1.65,4.91,4.91,0,0,1,3.56-1.46,4,4,0,0,1,1,.12,5,5,0,0,1,.91.33,5.47,5.47,0,0,1,.84.5c.19.13.37.28.55.43l.83-1h1v9.87h-1l-.84-1.17c-.18.14-.35.28-.54.41a5.36,5.36,0,0,1-.84.48,4.7,4.7,0,0,1-.91.33A3.89,3.89,0,0,1,41.22,43.8Zm0-7.5a2.31,2.31,0,0,0-.83.15,1.88,1.88,0,0,0-.67.43,2,2,0,0,0-.45.72,3.2,3.2,0,0,0,0,2,2.16,2.16,0,0,0,.45.72,1.88,1.88,0,0,0,.67.43,2.31,2.31,0,0,0,.83.15,1.8,1.8,0,0,0,.82-.19,2.29,2.29,0,0,0,.68-.51,2.59,2.59,0,0,0,.47-.74,2.26,2.26,0,0,0,0-1.72,2.59,2.59,0,0,0-.47-.74,2.29,2.29,0,0,0-.68-.51A1.8,1.8,0,0,0,41.22,36.3Z"/><path class="cls-2" d="M41.22,33.63a4,4,0,0,1,.91.11,5.58,5.58,0,0,1,.86.32,5.5,5.5,0,0,1,.81.47,6.73,6.73,0,0,1,.71.59L45.44,34H46v9.37h-.58l-.93-1.29q-.34.3-.72.57a5.4,5.4,0,0,1-.8.47,5.64,5.64,0,0,1-.87.31,3.82,3.82,0,0,1-.9.11,5.2,5.2,0,0,1-1.86-.33,4.41,4.41,0,0,1-2.55-2.53,5.3,5.3,0,0,1-.38-2.09,5.07,5.07,0,0,1,.38-2,4.61,4.61,0,0,1,1-1.57,4.7,4.7,0,0,1,1.52-1,4.82,4.82,0,0,1,1.86-.36m0,7.52a2.11,2.11,0,0,0,.93-.21,2.86,2.86,0,0,0,.76-.57,3,3,0,0,0,.51-.82,2.47,2.47,0,0,0,0-1.9,3,3,0,0,0-.51-.82,2.86,2.86,0,0,0-.76-.57,2.11,2.11,0,0,0-.93-.21,2.59,2.59,0,0,0-.92.17,2.11,2.11,0,0,0-.76.49,2.23,2.23,0,0,0-.5.8,3.39,3.39,0,0,0,0,2.18,2.23,2.23,0,0,0,.5.8,2.11,2.11,0,0,0,.76.49,2.59,2.59,0,0,0,.92.17m0-8a5.43,5.43,0,0,0-2,.4,5.28,5.28,0,0,0-1.69,1.13,5.47,5.47,0,0,0-1.14,1.74,5.86,5.86,0,0,0-.41,2.2,6.09,6.09,0,0,0,.41,2.28,4.95,4.95,0,0,0,2.84,2.81,5.8,5.8,0,0,0,2,.36,4,4,0,0,0,1-.13,5.68,5.68,0,0,0,1-.34,5.08,5.08,0,0,0,.87-.51l.35-.25.61.85.15.21h1.34V33.51H45.21l-.15.18-.61.72c-.11-.1-.24-.19-.36-.28a6,6,0,0,0-.88-.52,4.81,4.81,0,0,0-1-.35,4,4,0,0,0-1-.13Zm0,7.52a2,2,0,0,1-.74-.13,1.54,1.54,0,0,1-.58-.38,1.73,1.73,0,0,1-.39-.63,2.52,2.52,0,0,1-.15-.91,2.55,2.55,0,0,1,.15-.91,1.73,1.73,0,0,1,.39-.63,1.54,1.54,0,0,1,.58-.38,2,2,0,0,1,.74-.13,1.6,1.6,0,0,1,.71.16,2.28,2.28,0,0,1,.61.46,2.53,2.53,0,0,1,.42.67,2,2,0,0,1,0,1.52,2.53,2.53,0,0,1-.42.67,2.28,2.28,0,0,1-.61.46,1.54,1.54,0,0,1-.71.16Z"/><path class="cls-1" d="M52.44,43.8a5.15,5.15,0,0,1-2-.38,4.94,4.94,0,0,1-1.6-1.09,5.17,5.17,0,0,1-1.09-1.64,5.44,5.44,0,0,1-.39-2.09V30h2.9v4l.07,0a3.13,3.13,0,0,1,.65-.35,4.41,4.41,0,0,1,.71-.2,3.49,3.49,0,0,1,.71-.07,5,5,0,0,1,2,.39,4.81,4.81,0,0,1,1.6,1.1,5.19,5.19,0,0,1,1.08,1.65,5.43,5.43,0,0,1,.4,2.08,5.51,5.51,0,0,1-.4,2.11A5.08,5.08,0,0,1,56,42.36a4.86,4.86,0,0,1-1.6,1.06A5.16,5.16,0,0,1,52.44,43.8Zm0-7.5a1.75,1.75,0,0,0-.81.19,2.47,2.47,0,0,0-.69.51,2.43,2.43,0,0,0-.46.74,2.34,2.34,0,0,0-.16.86,2.51,2.51,0,0,0,.16.92,2.33,2.33,0,0,0,.46.72,2,2,0,0,0,1.5.66,2,2,0,0,0,.82-.17,2.08,2.08,0,0,0,.68-.49,2.29,2.29,0,0,0,.47-.73,2.42,2.42,0,0,0,.17-.91,2.51,2.51,0,0,0-.17-.92,2.26,2.26,0,0,0-1.14-1.21A2.12,2.12,0,0,0,52.44,36.3Z"/><path class="cls-2" d="M50.05,30.26v4.38a2.21,2.21,0,0,1,.47-.44,3,3,0,0,1,.59-.32,3.9,3.9,0,0,1,.67-.18,3,3,0,0,1,.66-.07,4.66,4.66,0,0,1,1.87.37,4.73,4.73,0,0,1,1.52,1,4.92,4.92,0,0,1,1,1.57,5.19,5.19,0,0,1,.38,2,5.27,5.27,0,0,1-.38,2,4.66,4.66,0,0,1-1,1.56,4.49,4.49,0,0,1-1.52,1,4.83,4.83,0,0,1-1.87.36,4.8,4.8,0,0,1-3.39-1.39,5,5,0,0,1-1-1.57,5.15,5.15,0,0,1-.37-2V30.26h2.4m2.39,10.89a2.29,2.29,0,0,0,1.68-.74,2.46,2.46,0,0,0,.52-.8,2.78,2.78,0,0,0,0-2,2.51,2.51,0,0,0-.52-.81,2.23,2.23,0,0,0-1.68-.73,2.07,2.07,0,0,0-.92.21,2.86,2.86,0,0,0-.76.57,2.63,2.63,0,0,0-.69,1.77,2.79,2.79,0,0,0,.18,1,2.29,2.29,0,0,0,.51.8,2.4,2.4,0,0,0,.76.54,2.21,2.21,0,0,0,.92.2M50.55,29.76h-3.4V38.6a5.81,5.81,0,0,0,.41,2.19,5.38,5.38,0,0,0,1.14,1.72,5.28,5.28,0,0,0,1.69,1.13,5.07,5.07,0,0,0,2,.41,5.43,5.43,0,0,0,2.06-.39,5.28,5.28,0,0,0,1.69-1.13,5.36,5.36,0,0,0,1.13-1.72,5.69,5.69,0,0,0,.42-2.21,5.61,5.61,0,0,0-.42-2.18,5.35,5.35,0,0,0-1.13-1.73,5.16,5.16,0,0,0-3.75-1.56,4.59,4.59,0,0,0-1.51.29l-.38.17V29.76Zm1.89,10.89a1.75,1.75,0,0,1-.72-.15,2.13,2.13,0,0,1-.6-.43,1.87,1.87,0,0,1-.4-.65,2.18,2.18,0,0,1-.15-.82,2.07,2.07,0,0,1,.15-.77,2,2,0,0,1,.41-.66,2.13,2.13,0,0,1,.61-.46,1.53,1.53,0,0,1,.7-.16,1.72,1.72,0,0,1,.72.15,1.81,1.81,0,0,1,.6.42,2.06,2.06,0,0,1,.41.65,2.27,2.27,0,0,1,.16.83,2,2,0,0,1-.16.82,2.06,2.06,0,0,1-.41.65,2,2,0,0,1-.6.43,1.75,1.75,0,0,1-.72.15Z"/><path class="cls-1" d="M58.31,43.63V33.74h2.91v9.89Zm1.46-10.35a2,2,0,0,1-.73-.14,2,2,0,0,1-1-1,1.89,1.89,0,0,1-.14-.72,2,2,0,0,1,.14-.72,1.86,1.86,0,0,1,2.44-1,2,2,0,0,1,.58.39,1.81,1.81,0,0,1,.4.59,1.79,1.79,0,0,1,.15.72,1.72,1.72,0,0,1-.15.72,1.67,1.67,0,0,1-.4.58,1.82,1.82,0,0,1-.58.4A2,2,0,0,1,59.77,33.28Z"/><path class="cls-2" d="M59.77,29.84a1.69,1.69,0,0,1,.63.13,2,2,0,0,1,.51.34,1.75,1.75,0,0,1,.34.51,1.47,1.47,0,0,1,.13.62,1.44,1.44,0,0,1-.13.62,1.75,1.75,0,0,1-.34.51,2,2,0,0,1-.51.34,1.71,1.71,0,0,1-1.26,0,1.56,1.56,0,0,1-.85-.85,1.59,1.59,0,0,1-.12-.62,1.63,1.63,0,0,1,.12-.62,1.56,1.56,0,0,1,.85-.85,1.69,1.69,0,0,1,.63-.13M61,34v9.39H58.56V34H61m-1.2-4.65a2.12,2.12,0,0,0-.83.17,2.15,2.15,0,0,0-1.11,1.11,2.1,2.1,0,0,0-.16.82,2,2,0,0,0,.16.82,2.15,2.15,0,0,0,1.11,1.11,2.91,2.91,0,0,0,.39.12H58.06V43.88h3.41V33.49H60.21a2.91,2.91,0,0,0,.39-.12,2.15,2.15,0,0,0,1.11-1.11,1.88,1.88,0,0,0,.17-.82,2,2,0,0,0-.17-.82,2.15,2.15,0,0,0-.45-.66,2.08,2.08,0,0,0-.67-.45,2,2,0,0,0-.82-.17Z"/><path class="cls-1" d="M67.07,43.8a5,5,0,0,1-2-.39,5.09,5.09,0,0,1-1.61-1.09,5.19,5.19,0,0,1-1.08-1.65,5.69,5.69,0,0,1,0-4.14,5.19,5.19,0,0,1,1.08-1.65,5,5,0,0,1,1.61-1.1,4.81,4.81,0,0,1,2-.4,4.2,4.2,0,0,1,.69.06,3.52,3.52,0,0,1,.71.18,3.09,3.09,0,0,1,.65.34l.08.06V30h2.91V43.63h-1l-.85-1.17-.53.41a5.86,5.86,0,0,1-.84.48,5,5,0,0,1-.91.33A4,4,0,0,1,67.07,43.8Zm0-7.5a2.12,2.12,0,0,0-.83.16,1.91,1.91,0,0,0-.67.44,2.2,2.2,0,0,0-.45.72,2.76,2.76,0,0,0-.17,1,2.43,2.43,0,0,0,.17.89,2.25,2.25,0,0,0,.46.74,2,2,0,0,0,.67.49,1.89,1.89,0,0,0,.82.18,1.73,1.73,0,0,0,.81-.19,2.47,2.47,0,0,0,.69-.51,2.56,2.56,0,0,0,.46-.74,2.26,2.26,0,0,0,0-1.72,2.56,2.56,0,0,0-.46-.74,2.21,2.21,0,0,0-.69-.51A1.73,1.73,0,0,0,67.07,36.3Z"/><path class="cls-2" d="M71.86,30.26V43.38h-.57l-.93-1.29a8.36,8.36,0,0,1-.73.57,4.93,4.93,0,0,1-.8.47,5.53,5.53,0,0,1-.86.31,4,4,0,0,1-.9.11,4.64,4.64,0,0,1-1.86-.37,4.85,4.85,0,0,1-1.53-1,5.09,5.09,0,0,1-1-1.57,5.46,5.46,0,0,1,0-3.95A4.75,4.75,0,0,1,65.21,34a4.65,4.65,0,0,1,1.86-.38,4.87,4.87,0,0,1,.65,0,3.55,3.55,0,0,1,.66.17,2.89,2.89,0,0,1,.6.32,1.51,1.51,0,0,1,.47.47V30.26h2.41M67.07,41.15a2.11,2.11,0,0,0,.93-.21,2.7,2.7,0,0,0,1.27-1.39,2.6,2.6,0,0,0,0-1.9A2.7,2.7,0,0,0,68,36.26a2.11,2.11,0,0,0-.93-.21,2.51,2.51,0,0,0-.92.17,2.31,2.31,0,0,0-.76.51,2.41,2.41,0,0,0-.5.8,3,3,0,0,0-.19,1.07,2.77,2.77,0,0,0,.69,1.8,2.6,2.6,0,0,0,.76.55,2.17,2.17,0,0,0,.92.2m5.29-11.39H69v3.8l-.4-.18a4.54,4.54,0,0,0-1.48-.25,5.09,5.09,0,0,0-2.06.42,5,5,0,0,0-1.68,1.15,5.47,5.47,0,0,0-1.14,1.74,5.92,5.92,0,0,0,0,4.33,5.54,5.54,0,0,0,1.14,1.73,5.2,5.2,0,0,0,3.74,1.55,3.91,3.91,0,0,0,1-.13,5.11,5.11,0,0,0,1-.34,5.16,5.16,0,0,0,.88-.51l.35-.25.61.85.15.21h1.33V29.76ZM67.07,40.65a1.67,1.67,0,0,1-.71-.15,1.86,1.86,0,0,1-.6-.44,2.23,2.23,0,0,1-.41-.66,2.15,2.15,0,0,1-.15-.8,2.48,2.48,0,0,1,.15-.89,1.84,1.84,0,0,1,.4-.63,1.74,1.74,0,0,1,.58-.39,2,2,0,0,1,.74-.14,1.53,1.53,0,0,1,.7.16,2,2,0,0,1,.61.46,2.11,2.11,0,0,1,.42.67,2,2,0,0,1,0,1.52,2.11,2.11,0,0,1-.42.67,2,2,0,0,1-.61.46,1.53,1.53,0,0,1-.7.16Z"/><path class="cls-1" d="M83.79,43.63,82.7,41.09l-2.4,0v2.52h-3V30.56h5.28a5.29,5.29,0,0,1,2.66.72,5.27,5.27,0,0,1,1.89,1.9,5.44,5.44,0,0,1,.54,1.26,5.37,5.37,0,0,1,.18,1.4,5,5,0,0,1-.17,1.33,5.17,5.17,0,0,1-.48,1.22,5.13,5.13,0,0,1-1.63,1.79L87,43.63ZM82.56,38.1a2.19,2.19,0,0,0,1.6-.66,2.39,2.39,0,0,0,.48-.72,2.2,2.2,0,0,0,.18-.88,2.16,2.16,0,0,0-.18-.88,2.27,2.27,0,0,0-.48-.72,2.36,2.36,0,0,0-.72-.49,2.16,2.16,0,0,0-.88-.18H80.3V38.1Z"/><path class="cls-2" d="M82.56,30.81a4.89,4.89,0,0,1,2.53.69,5.16,5.16,0,0,1,1,.79,4.64,4.64,0,0,1,.79,1,4.93,4.93,0,0,1,.51,1.2,4.88,4.88,0,0,1,0,2.59A5.37,5.37,0,0,1,87,38.27a4.86,4.86,0,0,1-.74,1,5.09,5.09,0,0,1-1,.81l1.39,3.29H84l-1.1-2.54-2.81,0v2.52H77.53V30.81h5m-2.51,7.54h2.51a2.48,2.48,0,0,0,1-.19,2.41,2.41,0,0,0,.79-.54,2.57,2.57,0,0,0,.54-.8,2.53,2.53,0,0,0,.2-1,2.49,2.49,0,0,0-.2-1,2.57,2.57,0,0,0-.54-.8,2.41,2.41,0,0,0-.79-.54,2.49,2.49,0,0,0-1-.2H80.05v5m2.51-8H77V43.88h3.52V41.36h2l1,2.23.13.3h3.75l-.29-.7-1.23-2.91a5.49,5.49,0,0,0,.72-.64,5.55,5.55,0,0,0,.82-1.12,5.7,5.7,0,0,0,.51-1.28,5.89,5.89,0,0,0,.18-1.39,5.51,5.51,0,0,0-1.63-3.91,5.41,5.41,0,0,0-1.11-.86A5.52,5.52,0,0,0,84,30.51a5.12,5.12,0,0,0-1.47-.2Zm-2,3.51h2a1.85,1.85,0,0,1,.78.16,2.18,2.18,0,0,1,.64.43,2,2,0,0,1,.43.65,1.85,1.85,0,0,1,.16.78,1.88,1.88,0,0,1-.16.78,2,2,0,0,1-.43.65,2.18,2.18,0,0,1-.64.43,2,2,0,0,1-.78.15h-2v-4Z"/><path class="cls-1" d="M93.17,43.8a5.44,5.44,0,0,1-2-.35,4.6,4.6,0,0,1-1.61-1,4.81,4.81,0,0,1-1.09-1.64,5.81,5.81,0,0,1-.4-2.19,5.58,5.58,0,0,1,.4-2.11,5.19,5.19,0,0,1,1.08-1.65,5.06,5.06,0,0,1,1.61-1.08,5.15,5.15,0,0,1,2-.38,4,4,0,0,1,1,.12,5,5,0,0,1,.92.33,6,6,0,0,1,.84.5c.19.14.37.28.54.43l.84-1h.94v9.87h-.95l-.85-1.17c-.17.14-.35.28-.54.41a5.27,5.27,0,0,1-.83.48,5,5,0,0,1-.91.33A4,4,0,0,1,93.17,43.8Zm0-7.5a2.32,2.32,0,0,0-.84.15,1.93,1.93,0,0,0-.66.43,2,2,0,0,0-.45.72,3,3,0,0,0,0,2,2,2,0,0,0,.45.72,1.93,1.93,0,0,0,.66.43,2.32,2.32,0,0,0,.84.15,1.73,1.73,0,0,0,.81-.19,2.47,2.47,0,0,0,.69-.51,2.56,2.56,0,0,0,.46-.74,2.26,2.26,0,0,0,0-1.72,2.56,2.56,0,0,0-.46-.74,2.47,2.47,0,0,0-.69-.51A1.73,1.73,0,0,0,93.17,36.3Z"/><path class="cls-2" d="M93.17,33.63a4,4,0,0,1,.9.11,5.33,5.33,0,0,1,.87.32,4.93,4.93,0,0,1,.8.47,6.73,6.73,0,0,1,.71.59L97.38,34H98v9.37h-.58l-.93-1.29a7,7,0,0,1-.72.57,4.93,4.93,0,0,1-.8.47,5.53,5.53,0,0,1-.86.31,4,4,0,0,1-.9.11,5.2,5.2,0,0,1-1.86-.33,4.44,4.44,0,0,1-1.53-1,4.52,4.52,0,0,1-1-1.56,5.48,5.48,0,0,1-.38-2.09,5.25,5.25,0,0,1,.38-2A4.71,4.71,0,0,1,91.31,34a4.82,4.82,0,0,1,1.86-.36m0,7.52a2.07,2.07,0,0,0,.92-.21,2.86,2.86,0,0,0,.76-.57,2.57,2.57,0,0,0,.51-.82,2.47,2.47,0,0,0,0-1.9,2.57,2.57,0,0,0-.51-.82,2.86,2.86,0,0,0-.76-.57,2.07,2.07,0,0,0-.92-.21,2.6,2.6,0,0,0-.93.17,2,2,0,0,0-.75.49,2.23,2.23,0,0,0-.5.8,3.22,3.22,0,0,0,0,2.18,2.23,2.23,0,0,0,.5.8,2,2,0,0,0,.75.49,2.6,2.6,0,0,0,.93.17m0-8a5.44,5.44,0,0,0-2.06.4,5.23,5.23,0,0,0-1.68,1.13,5.31,5.31,0,0,0-1.14,1.74,5.67,5.67,0,0,0-.42,2.2,5.9,5.9,0,0,0,.42,2.28,4.88,4.88,0,0,0,2.84,2.81,5.72,5.72,0,0,0,2,.36,3.91,3.91,0,0,0,1-.13,5.11,5.11,0,0,0,1-.34,5.16,5.16,0,0,0,.88-.51l.34-.25.62.85.15.21h1.33V33.51H97.15l-.15.18-.6.72L96,34.13a5.88,5.88,0,0,0-.87-.52,4.89,4.89,0,0,0-1-.35,3.91,3.91,0,0,0-1-.13Zm0,7.52a2,2,0,0,1-.75-.13,1.59,1.59,0,0,1-.57-.38,1.75,1.75,0,0,1-.4-.63,2.52,2.52,0,0,1-.15-.91,2.55,2.55,0,0,1,.15-.91,1.75,1.75,0,0,1,.4-.63,1.59,1.59,0,0,1,.57-.38,2,2,0,0,1,.75-.13,1.53,1.53,0,0,1,.7.16,2.13,2.13,0,0,1,.61.46,2.11,2.11,0,0,1,.42.67,2,2,0,0,1,0,1.52,2.11,2.11,0,0,1-.42.67,2.13,2.13,0,0,1-.61.46,1.53,1.53,0,0,1-.7.16Z"/><path class="cls-1" d="M104.39,43.8a5.15,5.15,0,0,1-2-.38,5.09,5.09,0,0,1-1.61-1.09,5,5,0,0,1-1.08-1.64,5.48,5.48,0,0,1-.4-2.09V30h2.9v4l.08,0a2.72,2.72,0,0,1,.65-.35,4.29,4.29,0,0,1,.7-.2,3.65,3.65,0,0,1,.72-.07A4.89,4.89,0,0,1,108,34.87,5.36,5.36,0,0,1,109,36.52a5.43,5.43,0,0,1,.39,2.08,5.54,5.54,0,0,1-.39,2.11A5.25,5.25,0,0,1,108,42.36a5,5,0,0,1-1.61,1.06A5.15,5.15,0,0,1,104.39,43.8Zm0-7.5a1.8,1.8,0,0,0-.82.19,2.43,2.43,0,0,0-.68.51,2.43,2.43,0,0,0-.63,1.6,2.42,2.42,0,0,0,.17.91,2.11,2.11,0,0,0,.46.73,2,2,0,0,0,.68.49,2,2,0,0,0,.82.17,2.08,2.08,0,0,0,.82-.17,2.19,2.19,0,0,0,.68-.49,2.27,2.27,0,0,0,.46-.73,2.46,2.46,0,0,0,.17-.91,2.51,2.51,0,0,0-.17-.92,2.27,2.27,0,0,0-.46-.73,2.16,2.16,0,0,0-.68-.48A2.08,2.08,0,0,0,104.39,36.3Z"/><path class="cls-2" d="M102,30.26v4.38a2.47,2.47,0,0,1,.47-.44,3.46,3.46,0,0,1,.6-.32,3.57,3.57,0,0,1,.66-.18,3.11,3.11,0,0,1,.67-.07A4.66,4.66,0,0,1,107.78,35a5.07,5.07,0,0,1,1,1.57,5,5,0,0,1,.38,2,5.09,5.09,0,0,1-.38,2,4.8,4.8,0,0,1-1,1.56,4.49,4.49,0,0,1-1.52,1,4.87,4.87,0,0,1-1.87.36,4.73,4.73,0,0,1-1.87-.37,4.52,4.52,0,0,1-1.52-1,4.71,4.71,0,0,1-1-1.57,5.15,5.15,0,0,1-.38-2V30.26H102m2.4,10.89a2.24,2.24,0,0,0,.92-.2,2.4,2.4,0,0,0,.76-.54,2.29,2.29,0,0,0,.51-.8,2.78,2.78,0,0,0,0-2,2.33,2.33,0,0,0-.51-.81,2.4,2.4,0,0,0-.76-.54,2.23,2.23,0,0,0-.92-.19,2.11,2.11,0,0,0-.93.21,2.86,2.86,0,0,0-.76.57,2.74,2.74,0,0,0-.5.82,2.41,2.41,0,0,0-.19,1,2.59,2.59,0,0,0,.19,1A2.39,2.39,0,0,0,103.46,41a2.25,2.25,0,0,0,.93.2m-1.9-11.39h-3.4V38.6a5.62,5.62,0,0,0,.42,2.19,5.36,5.36,0,0,0,1.13,1.72,5.28,5.28,0,0,0,1.69,1.13,5.09,5.09,0,0,0,2.06.41,5.43,5.43,0,0,0,2.06-.39,5.13,5.13,0,0,0,1.68-1.13,5.38,5.38,0,0,0,1.14-1.72,5.87,5.87,0,0,0,.41-2.21,5.79,5.79,0,0,0-.41-2.18,5.69,5.69,0,0,0-1.13-1.73,5.33,5.33,0,0,0-1.69-1.15,5.26,5.26,0,0,0-2.06-.41,3.92,3.92,0,0,0-.76.08,3.79,3.79,0,0,0-.75.21l-.39.17V29.76Zm1.9,10.89a1.72,1.72,0,0,1-.72-.15,2,2,0,0,1-.6-.43,2.06,2.06,0,0,1-.41-.65,2.18,2.18,0,0,1-.15-.82,2.07,2.07,0,0,1,.15-.77,2.36,2.36,0,0,1,.41-.66,2.28,2.28,0,0,1,.61-.46,1.6,1.6,0,0,1,.71-.16,1.75,1.75,0,0,1,.72.15,1.92,1.92,0,0,1,.6.42,2.06,2.06,0,0,1,.41.65,2.27,2.27,0,0,1,.15.83,2.18,2.18,0,0,1-.15.82,2.06,2.06,0,0,1-.41.65,2.13,2.13,0,0,1-.6.43,1.79,1.79,0,0,1-.72.15Z"/><path class="cls-1" d="M115.11,43.8a5.15,5.15,0,0,1-2-.38,5.09,5.09,0,0,1-1.61-1.09,5,5,0,0,1-1.08-1.64,5.44,5.44,0,0,1-.4-2.09V30H113v4l.08,0a3.13,3.13,0,0,1,.65-.35,4.29,4.29,0,0,1,.7-.2,3.58,3.58,0,0,1,.72-.07,4.89,4.89,0,0,1,3.57,1.49,5.16,5.16,0,0,1,1.07,1.65,5.25,5.25,0,0,1,.4,2.08,5.36,5.36,0,0,1-.4,2.11,4.75,4.75,0,0,1-2.68,2.71A5.15,5.15,0,0,1,115.11,43.8Zm0-7.5a1.8,1.8,0,0,0-.82.19,2.29,2.29,0,0,0-.68.51,2.25,2.25,0,0,0-.46.74,2.31,2.31,0,0,0-.17.86,2.42,2.42,0,0,0,.17.91,2.14,2.14,0,0,0,1.14,1.22,2,2,0,0,0,.82.17,2.08,2.08,0,0,0,.82-.17,2.19,2.19,0,0,0,.68-.49,2.27,2.27,0,0,0,.46-.73,2.46,2.46,0,0,0,.17-.91,2.51,2.51,0,0,0-.17-.92,2.27,2.27,0,0,0-.46-.73,2.16,2.16,0,0,0-.68-.48A2.08,2.08,0,0,0,115.11,36.3Z"/><path class="cls-2" d="M112.71,30.26v4.38a2.47,2.47,0,0,1,.47-.44,3.46,3.46,0,0,1,.6-.32,3.57,3.57,0,0,1,.66-.18,3.11,3.11,0,0,1,.67-.07A4.66,4.66,0,0,1,118.5,35a5.07,5.07,0,0,1,1,1.57,5.19,5.19,0,0,1,.38,2,5.27,5.27,0,0,1-.38,2,4.8,4.8,0,0,1-1,1.56,4.49,4.49,0,0,1-1.52,1,4.87,4.87,0,0,1-1.87.36,4.73,4.73,0,0,1-1.87-.37,4.52,4.52,0,0,1-1.52-1,4.71,4.71,0,0,1-1-1.57,5.15,5.15,0,0,1-.38-2V30.26h2.4m2.4,10.89A2.24,2.24,0,0,0,116,41a2.4,2.4,0,0,0,.76-.54,2.29,2.29,0,0,0,.51-.8,2.78,2.78,0,0,0,0-2,2.33,2.33,0,0,0-.51-.81,2.4,2.4,0,0,0-.76-.54,2.23,2.23,0,0,0-.92-.19,2.11,2.11,0,0,0-.93.21,2.86,2.86,0,0,0-.76.57,2.74,2.74,0,0,0-.5.82,2.41,2.41,0,0,0-.19,1,2.59,2.59,0,0,0,.19,1A2.39,2.39,0,0,0,114.18,41a2.25,2.25,0,0,0,.93.2m-1.9-11.39h-3.4V38.6a5.62,5.62,0,0,0,.42,2.19,5.2,5.2,0,0,0,1.13,1.72,5.28,5.28,0,0,0,1.69,1.13,5.09,5.09,0,0,0,2.06.41,5.47,5.47,0,0,0,2.06-.39,5.13,5.13,0,0,0,1.68-1.13A5.38,5.38,0,0,0,120,40.81a5.87,5.87,0,0,0,.41-2.21,5.79,5.79,0,0,0-.41-2.18,5.69,5.69,0,0,0-1.13-1.73,5.33,5.33,0,0,0-1.69-1.15,5.26,5.26,0,0,0-2.06-.41,3.92,3.92,0,0,0-.76.08,3.79,3.79,0,0,0-.75.21l-.39.17V29.76Zm1.9,10.89a1.72,1.72,0,0,1-.72-.15,2,2,0,0,1-.6-.43,1.8,1.8,0,0,1-.41-.65,2.18,2.18,0,0,1-.15-.82,2,2,0,0,1,.15-.76,2.08,2.08,0,0,1,1-1.13,1.54,1.54,0,0,1,.71-.16,1.79,1.79,0,0,1,.72.15,1.92,1.92,0,0,1,.6.42,2.06,2.06,0,0,1,.41.65,2.27,2.27,0,0,1,.15.83,2.18,2.18,0,0,1-.15.82,1.93,1.93,0,0,1-1,1.08,1.71,1.71,0,0,1-.71.15Z"/><path class="cls-1" d="M121,43.63V33.74h2.91v9.89Zm1.46-10.35a1.92,1.92,0,0,1-.72-.14,1.87,1.87,0,0,1-.59-.4,1.8,1.8,0,0,1-.39-.58,1.75,1.75,0,0,1-.15-.72,1.87,1.87,0,0,1,.54-1.3,1.87,1.87,0,0,1,.59-.4,1.75,1.75,0,0,1,.72-.15,1.8,1.8,0,0,1,.73.15,2.16,2.16,0,0,1,.59.39,2,2,0,0,1,.4.59,1.79,1.79,0,0,1,.15.72,1.72,1.72,0,0,1-.15.72,1.82,1.82,0,0,1-.4.58,1.8,1.8,0,0,1-1.32.54Z"/><path class="cls-2" d="M122.43,29.84a1.65,1.65,0,0,1,.63.13,1.69,1.69,0,0,1,.51.34,1.78,1.78,0,0,1,.35.51,1.64,1.64,0,0,1,.13.62,1.6,1.6,0,0,1-.13.62,1.78,1.78,0,0,1-.35.51,1.69,1.69,0,0,1-.51.34,1.64,1.64,0,0,1-.63.12,1.59,1.59,0,0,1-.62-.12,1.69,1.69,0,0,1-.51-.34,1.75,1.75,0,0,1-.34-.51,1.44,1.44,0,0,1-.13-.62,1.47,1.47,0,0,1,.13-.62,1.75,1.75,0,0,1,.34-.51,1.69,1.69,0,0,1,.51-.34,1.6,1.6,0,0,1,.62-.13m1.2,4.15v9.39h-2.41V34h2.41m-1.2-4.65a2.08,2.08,0,0,0-.82.17,2.19,2.19,0,0,0-.67.45,2.31,2.31,0,0,0-.44.66,2.11,2.11,0,0,0-.17.82,2,2,0,0,0,.17.82,2.31,2.31,0,0,0,.44.66,2.19,2.19,0,0,0,.67.45,2.22,2.22,0,0,0,.39.12h-1.28V43.88h3.41V33.49h-1.26l.39-.12a2.15,2.15,0,0,0,.66-.45,2.06,2.06,0,0,0,.46-.66,2,2,0,0,0,.17-.82,2.11,2.11,0,0,0-.17-.82,2.06,2.06,0,0,0-.46-.66,2.15,2.15,0,0,0-.66-.45,2.12,2.12,0,0,0-.83-.17Z"/><path class="cls-1" d="M130.16,43.63a4.46,4.46,0,0,1-4.09-2.72,4.22,4.22,0,0,1-.35-1.73V36.64h-1.17V33.76h1.17V30h2.88v3.75h3.63v2.88H128.6v2.54a1.54,1.54,0,0,0,.12.61,1.51,1.51,0,0,0,.33.49,1.53,1.53,0,0,0,1.11.46h2.07v2.89Z"/><path class="cls-2" d="M128.35,30.26V34H132v2.38h-3.63v2.79a1.82,1.82,0,0,0,.14.7,1.74,1.74,0,0,0,.39.58,1.76,1.76,0,0,0,1.28.53H132v2.39h-1.82a4.09,4.09,0,0,1-1.63-.33,4.34,4.34,0,0,1-1.33-.9,4.1,4.1,0,0,1-1.23-3V36.39H124.8V34H126V30.26h2.38m.5-.5h-3.38v3.75H124.3v3.38h1.17v2.29a4.54,4.54,0,0,0,.37,1.83,4.68,4.68,0,0,0,2.5,2.5,4.62,4.62,0,0,0,1.82.37h2.32V40.49h-2.32a1.25,1.25,0,0,1-.51-.1,1.37,1.37,0,0,1-.42-.29,1.2,1.2,0,0,1-.28-.41,1.25,1.25,0,0,1-.1-.51V36.89h3.63V33.51h-3.63V29.76Z"/><path class="cls-1" d="M62.31,59.88a5.23,5.23,0,0,1-2-.35,4.43,4.43,0,0,1-1.61-1,4.81,4.81,0,0,1-1.09-1.64,5.81,5.81,0,0,1-.4-2.19,5.49,5.49,0,0,1,.4-2.1,5.13,5.13,0,0,1,1.08-1.66,4.88,4.88,0,0,1,1.61-1.07,5,5,0,0,1,2-.39,3.89,3.89,0,0,1,1,.12,4.65,4.65,0,0,1,.92.34,5.32,5.32,0,0,1,.83.49c.19.14.38.28.55.43l.84-1h.94v9.87H66.4l-.85-1.17c-.17.14-.35.28-.54.41a6.24,6.24,0,0,1-.83.49,6.58,6.58,0,0,1-.91.32A4,4,0,0,1,62.31,59.88Zm0-7.5a2.32,2.32,0,0,0-.84.15,2,2,0,0,0-.66.43,2,2,0,0,0-.45.72,2.83,2.83,0,0,0-.17,1,2.79,2.79,0,0,0,.17,1,2,2,0,0,0,.45.72,1.72,1.72,0,0,0,.66.43,2.32,2.32,0,0,0,.84.15,1.75,1.75,0,0,0,.81-.19,2.47,2.47,0,0,0,.69-.51,2.43,2.43,0,0,0,.46-.74,2.35,2.35,0,0,0,.17-.86,2.26,2.26,0,0,0-.17-.85,2.61,2.61,0,0,0-.46-.75,2.47,2.47,0,0,0-.69-.51A1.75,1.75,0,0,0,62.31,52.38Z"/><path class="cls-2" d="M62.31,49.71a3.48,3.48,0,0,1,.9.12,4.51,4.51,0,0,1,.87.31,5.78,5.78,0,0,1,.8.47,8.23,8.23,0,0,1,.71.59l.93-1.11h.58v9.37h-.58l-.93-1.29a5.82,5.82,0,0,1-.72.57,4.93,4.93,0,0,1-.8.47,5.53,5.53,0,0,1-.86.31,3.47,3.47,0,0,1-.9.11,5.2,5.2,0,0,1-1.86-.33,4.29,4.29,0,0,1-1.53-1,4.43,4.43,0,0,1-1-1.55,5.57,5.57,0,0,1-.38-2.1,5.25,5.25,0,0,1,.38-2,4.71,4.71,0,0,1,1-1.57,4.56,4.56,0,0,1,1.53-1,4.64,4.64,0,0,1,1.86-.37m0,7.52a2.1,2.1,0,0,0,.92-.21,2.86,2.86,0,0,0,.76-.57,2.57,2.57,0,0,0,.51-.82,2.37,2.37,0,0,0,.19-1,2.66,2.66,0,0,0-.7-1.76,2.49,2.49,0,0,0-.76-.57,2,2,0,0,0-.92-.22,2.6,2.6,0,0,0-.93.17,2,2,0,0,0-.75.49,2.23,2.23,0,0,0-.5.8,3.22,3.22,0,0,0,0,2.18,2.23,2.23,0,0,0,.5.8,2.15,2.15,0,0,0,.75.5,2.6,2.6,0,0,0,.93.16m0-8a5.44,5.44,0,0,0-2.06.4,5.13,5.13,0,0,0-1.68,1.13,5.31,5.31,0,0,0-1.14,1.74,5.67,5.67,0,0,0-.42,2.2A5.92,5.92,0,0,0,57.43,57a5,5,0,0,0,1.14,1.72,4.94,4.94,0,0,0,1.7,1.08,5.72,5.72,0,0,0,2,.36,3.91,3.91,0,0,0,1-.13,4.91,4.91,0,0,0,1-.34,5.16,5.16,0,0,0,.88-.51l.34-.25.62.85.15.21H67.6V49.59H66.29l-.15.18-.6.72-.37-.28a5.51,5.51,0,0,0-.88-.52,4.59,4.59,0,0,0-1-.35,4.39,4.39,0,0,0-1-.13Zm0,7.52a2,2,0,0,1-.75-.13,1.59,1.59,0,0,1-.57-.38,1.66,1.66,0,0,1-.4-.63,2.52,2.52,0,0,1-.15-.91,2.55,2.55,0,0,1,.15-.91,1.84,1.84,0,0,1,.4-.63,1.59,1.59,0,0,1,.57-.38,2.27,2.27,0,0,1,.75-.13,1.53,1.53,0,0,1,.7.16,2.13,2.13,0,0,1,.61.46,2.11,2.11,0,0,1,.42.67,2,2,0,0,1,.15.76,2,2,0,0,1-.15.76,2.11,2.11,0,0,1-.42.67,2.13,2.13,0,0,1-.61.46,1.53,1.53,0,0,1-.7.16Z"/><path class="cls-1" d="M78.23,59.71V53.5a1.11,1.11,0,0,0-.07-.37.81.81,0,0,0-.21-.3,1,1,0,0,0-.3-.21.94.94,0,0,0-.37-.07.86.86,0,0,0-.36.07.88.88,0,0,0-.3.2.92.92,0,0,0-.2.31,1,1,0,0,0-.08.37v6.21H73.45V53.5a.94.94,0,0,0-.07-.37.9.9,0,0,0-.21-.3.81.81,0,0,0-.3-.21.94.94,0,0,0-.37-.07.86.86,0,0,0-.36.07,1,1,0,0,0-.3.2,1.1,1.1,0,0,0-.2.31.94.94,0,0,0-.07.37v6.21h-2.9V49.82h.94l.57.63a4.11,4.11,0,0,1,1-.55,3.83,3.83,0,0,1,1.34-.24,3.67,3.67,0,0,1,1.38.26,2.69,2.69,0,0,1,1,.69,3.49,3.49,0,0,1,.35-.32,3.09,3.09,0,0,1,1.35-.57,3.31,3.31,0,0,1,.7-.06,3.71,3.71,0,0,1,1.49.3,3.55,3.55,0,0,1,1.22.82A3.69,3.69,0,0,1,80.81,52a3.76,3.76,0,0,1,.3,1.5v6.21Z"/><path class="cls-2" d="M77.28,49.9a3.51,3.51,0,0,1,1.4.29,3.67,3.67,0,0,1,1.14.76,3.78,3.78,0,0,1,.76,1.15,3.43,3.43,0,0,1,.28,1.4v6H78.48v-6a1.15,1.15,0,0,0-.35-.85,1.16,1.16,0,0,0-.39-.26,1.18,1.18,0,0,0-.46-.09,1.14,1.14,0,0,0-.46.09,1.12,1.12,0,0,0-.38.26,1.19,1.19,0,0,0-.25.38,1.24,1.24,0,0,0-.1.47v6H73.7v-6A1.21,1.21,0,0,0,73,52.39a1.27,1.27,0,0,0-.47-.09,1.18,1.18,0,0,0-.46.09,1.22,1.22,0,0,0-.38.26,1.39,1.39,0,0,0-.25.38,1.23,1.23,0,0,0-.09.47v6h-2.4V50.07h.58l.65.72a3.85,3.85,0,0,1,1.1-.65,3.35,3.35,0,0,1,1.25-.24,3.61,3.61,0,0,1,1.29.25,2.67,2.67,0,0,1,1.1.85,2.38,2.38,0,0,1,.49-.51,3,3,0,0,1,.6-.34,2.78,2.78,0,0,1,.64-.19,3.68,3.68,0,0,1,.66-.06m0-.5a4.74,4.74,0,0,0-.74.07,3.31,3.31,0,0,0-.76.22,3.5,3.5,0,0,0-.7.4l-.2.17a3.05,3.05,0,0,0-.91-.58,4.17,4.17,0,0,0-1.47-.28,3.9,3.9,0,0,0-1.43.27,4.61,4.61,0,0,0-.85.45l-.35-.38-.14-.17H68.42V60h3.4V53.5A.7.7,0,0,1,72,53a.48.48,0,0,1,.22-.15.55.55,0,0,1,.26-.05.59.59,0,0,1,.27.05.67.67,0,0,1,.38.38.76.76,0,0,1,0,.27V60h3.39V53.5a.6.6,0,0,1,.06-.27.72.72,0,0,1,.36-.38.75.75,0,0,1,.54,0,.71.71,0,0,1,.22.15.73.73,0,0,1,.16.23.76.76,0,0,1,0,.27V60h3.38V53.5A4.12,4.12,0,0,0,81,51.9a4,4,0,0,0-2.17-2.17,3.87,3.87,0,0,0-1.59-.33Z"/><path class="cls-1" d="M86.9,59.88a5.15,5.15,0,0,1-2-.38,4.91,4.91,0,0,1-1.6-1.08,5.21,5.21,0,0,1-1.09-1.65,5.44,5.44,0,0,1-.39-2.09,5.65,5.65,0,0,1,.39-2.13,5.1,5.1,0,0,1,1.09-1.65,4.86,4.86,0,0,1,1.6-1.06,5.15,5.15,0,0,1,2-.38,4.89,4.89,0,0,1,1.21.15,5.38,5.38,0,0,1,1.12.42,5.12,5.12,0,0,1,1,.68,4.93,4.93,0,0,1,.81.9l.11.16L86.82,57h.08a2.35,2.35,0,0,0,.6-.08,2.09,2.09,0,0,0,1-.64,1.86,1.86,0,0,0,.33-.51l.15-.34,2.16,2.17-.13.17a4.91,4.91,0,0,1-.8.9,5.39,5.39,0,0,1-1,.67,4.87,4.87,0,0,1-1.12.42A4.75,4.75,0,0,1,86.9,59.88Zm0-7.5a2.12,2.12,0,0,0-.83.16,2.06,2.06,0,0,0-.67.46,2.1,2.1,0,0,0-.45.72,2.61,2.61,0,0,0-.16,1c0,.08,0,.18,0,.28s0,.21,0,.31,0,.09,0,.13l2.27-3Z"/><path class="cls-2" d="M86.9,49.71a4.64,4.64,0,0,1,2.21.55,5,5,0,0,1,1,.64,4.77,4.77,0,0,1,.77.85l-4.49,5.41a1.4,1.4,0,0,0,.28.06h.28a2.54,2.54,0,0,0,.68-.09,2.8,2.8,0,0,0,.61-.28,2.32,2.32,0,0,0,.5-.44,2.43,2.43,0,0,0,.37-.57l1.75,1.76a4.77,4.77,0,0,1-.77.85,5.3,5.3,0,0,1-.93.64,5,5,0,0,1-1.06.4,5,5,0,0,1-1.15.13,4.69,4.69,0,0,1-3.39-1.39,5.11,5.11,0,0,1-1-1.56,5.2,5.2,0,0,1-.37-2,5.32,5.32,0,0,1,.37-2,4.71,4.71,0,0,1,4.42-2.94m-2.12,6.22,2.79-3.7a1.32,1.32,0,0,0-.33-.08l-.34,0a2.36,2.36,0,0,0-.92.18,2.31,2.31,0,0,0-.76.51,2.46,2.46,0,0,0-.5.81,2.89,2.89,0,0,0-.19,1c0,.09,0,.19,0,.3s0,.22,0,.34,0,.22.08.33a1.36,1.36,0,0,0,.11.28m2.12-6.72a5.43,5.43,0,0,0-2.05.4,5.22,5.22,0,0,0-1.69,1.11A5.36,5.36,0,0,0,82,52.46a5.93,5.93,0,0,0-.41,2.22A5.77,5.77,0,0,0,82,56.87a5.38,5.38,0,0,0,1.14,1.72,5.32,5.32,0,0,0,5,1.39,4.93,4.93,0,0,0,1.18-.44,5.5,5.5,0,0,0,1-.7,5.83,5.83,0,0,0,.85-.94l.24-.35-.3-.29L89.41,55.5,88.9,55l-.3.66a1.71,1.71,0,0,1-.28.45,1.9,1.9,0,0,1-.4.35,2,2,0,0,1-.49.22h0l3.81-4.6.25-.29-.22-.31a5.5,5.5,0,0,0-.85-.95,5.81,5.81,0,0,0-1-.71,5.4,5.4,0,0,0-1.18-.44,4.91,4.91,0,0,0-1.27-.16ZM85,54.76s0,0,0-.08a2.6,2.6,0,0,1,.15-.87,1.77,1.77,0,0,1,1-1,1.76,1.76,0,0,1,.45-.12L85,54.76Z"/><path class="cls-1" d="M91.46,59.71V56.82h5.72a.33.33,0,0,0,.25-.1.31.31,0,0,0,.1-.24s0-.1,0-.11a.93.93,0,0,0-.32,0H94.69a3.16,3.16,0,0,1-1.26-.26,3.35,3.35,0,0,1-1-.7,3.34,3.34,0,0,1-.94-2.29,3.29,3.29,0,0,1,.25-1.26,3.2,3.2,0,0,1,1.72-1.72,3.15,3.15,0,0,1,1.26-.25h5.1v2.88h-5.1a.3.3,0,0,0-.24.11.31.31,0,0,0-.1.24.35.35,0,0,0,.1.26.33.33,0,0,0,.24.1h2.49a3.47,3.47,0,0,1,1.25.23,3.08,3.08,0,0,1,1,.62,3,3,0,0,1,.69,1,2.84,2.84,0,0,1,.26,1.24,3,3,0,0,1-.26,1.26,3.23,3.23,0,0,1-.69,1,3.15,3.15,0,0,1-1,.7,3.33,3.33,0,0,1-1.26.25Z"/><path class="cls-2" d="M99.54,50.09v2.38H94.69a.58.58,0,0,0-.42.18.61.61,0,0,0-.17.42.61.61,0,0,0,.17.43.58.58,0,0,0,.42.18h2.49a3.19,3.19,0,0,1,1.16.21,3.12,3.12,0,0,1,1,.57,2.9,2.9,0,0,1,.64.89,2.78,2.78,0,0,1,.23,1.13,3,3,0,0,1-.23,1.16,3.45,3.45,0,0,1-.64,1,3.12,3.12,0,0,1-1,.64,3,3,0,0,1-1.16.23H91.71V57.07h5.47a.54.54,0,0,0,.42-.17.58.58,0,0,0,.18-.42.32.32,0,0,0-.18-.33.88.88,0,0,0-.42-.08H94.69a2.83,2.83,0,0,1-1.16-.24,3.12,3.12,0,0,1-1-.64,3,3,0,0,1-.63-1,2.83,2.83,0,0,1-.24-1.16A3,3,0,0,1,92.58,51a3.12,3.12,0,0,1,1-.64,3,3,0,0,1,1.16-.23h4.85m.5-.5H94.69a3.43,3.43,0,0,0-3.2,2.12,3.44,3.44,0,0,0,0,2.72,3.32,3.32,0,0,0,.74,1.11,3.52,3.52,0,0,0,1.1.75,3.45,3.45,0,0,0,1.36.28H91.21V60h6a3.47,3.47,0,0,0,1.36-.27,3.52,3.52,0,0,0,1.1-.75,3.74,3.74,0,0,0,.74-1.1,3.28,3.28,0,0,0,.28-1.36,3.16,3.16,0,0,0-.28-1.34,3.08,3.08,0,0,0-.76-1,3.49,3.49,0,0,0-1.1-.67,3.75,3.75,0,0,0-1.34-.24H94.69s0,0-.06,0a.1.1,0,0,1,0-.08.07.07,0,0,1,0-.07.07.07,0,0,1,.06,0H100V49.59Z"/><path class="cls-1" d="M37.26,53.16c-3.52,0-8.68-3.79-9.78-5.4a13.76,13.76,0,0,1-1.17-1.58,21.65,21.65,0,0,1-1.09-1.91c-.37-.72-.69-1.42-.95-2.08a18.08,18.08,0,0,1-.58-1.8,2.64,2.64,0,0,1,0-.47,1.06,1.06,0,0,1,.29-.78,2.39,2.39,0,0,1,.9-.46,5.79,5.79,0,0,0,1.27-.61A9.9,9.9,0,0,0,27.4,37a7.06,7.06,0,0,0,1.36-2.23,7.22,7.22,0,0,0,.48-2.14c0-.17,0-.32,0-.46a4.26,4.26,0,0,0-.35-1.81,2.55,2.55,0,0,0-.33-.53,3.67,3.67,0,0,0-2-1.11h0l-.28,1c-.34,1.23-.69,2.45-1,3.63-.57,2-1.14,3.92-1.7,5.77l-.38,1.37c-.63,2.17-1.17,3.8-1.59,4.86a7.08,7.08,0,0,1-1.34,2.28,7,7,0,0,1-2,1.3,5.7,5.7,0,0,1-2.21.64c-.79,0-1.73-.33-1.73-1.92a12.26,12.26,0,0,1,.41-2.41c.27-1.11.7-2.59,1.27-4.4s1.16-3.56,1.78-5.3,1.3-3.54,2-5.33l.34-.84-.69.11a5.7,5.7,0,0,1-1,.08,1,1,0,0,1-1.14-1.14,2.44,2.44,0,0,1,.25-1,2.57,2.57,0,0,1,.57-.87,5.06,5.06,0,0,1,2.36-.95c-.06-.34-.12-.69-.17-1.05a46,46,0,0,1-.46-5.7A41.12,41.12,0,0,1,20,13.43a15.51,15.51,0,0,1,.92-4A2.16,2.16,0,0,1,22.18,8a1.43,1.43,0,0,1,.5-.09,2,2,0,0,1,1,.3,4.4,4.4,0,0,1,1.39,1.4,10.55,10.55,0,0,1,1.11,2.23,22.69,22.69,0,0,1,1.22,5.55,16.79,16.79,0,0,1-.27,5.18,8,8,0,0,1-.6,1.86,2.36,2.36,0,0,1-.48.72l.6,0c.33-1,.76-2.07,1.26-3.2.77-1.72,1.65-3.45,2.61-5.14a48,48,0,0,1,2.94-4.55,16.66,16.66,0,0,1,2.68-3,2,2,0,0,1,1.26-.55,1.34,1.34,0,0,1,.35,0,1.43,1.43,0,0,1,.92,1,5.27,5.27,0,0,1,.2,1.93,12.53,12.53,0,0,1-.41,2.49,28.45,28.45,0,0,1-2,5.4,19.54,19.54,0,0,1-2.83,4.3,8.55,8.55,0,0,1-1.35,1.28,1.7,1.7,0,0,1-.94.4h0a.52.52,0,0,1-.18,0,.54.54,0,0,1-.39-.34.76.76,0,0,1,0-.34c-.11.36-.22.72-.32,1.09a11.33,11.33,0,0,1,2,1l.55.36a7,7,0,0,1,.6.48,7.73,7.73,0,0,1,1.61,1.85,5.62,5.62,0,0,1,.8,2.91,7,7,0,0,1-.69,3.1,7.51,7.51,0,0,1-2,2.5,8.21,8.21,0,0,1-1.57,1.08,12.65,12.65,0,0,1-1.77.69,6.7,6.7,0,0,0,.43.67,10.91,10.91,0,0,0,.86.94c2.43,2.43,9.47,4,13.24,4h.19l0,.17a3.32,3.32,0,0,1-.46,2.64,10.64,10.64,0,0,1-6,4.7A4,4,0,0,1,37.26,53.16ZM23,12.33c0,.18,0,.42,0,.75a24.82,24.82,0,0,0,.17,2.72c.24,2,.47,3.66.68,4.95s.43,2.39.63,3.23c.1.4.21.79.33,1.19h.13a.71.71,0,0,1-.12-.23,3.36,3.36,0,0,1-.08-1.17,28.28,28.28,0,0,0-.13-3.12c0-.13,0-.28,0-.43s0-.36-.08-.63c-.17-1.37-.42-2.81-.72-4.28C23.46,14.05,23.21,13.05,23,12.33ZM35.7,13.57c-.46.77-.9,1.59-1.29,2.42-.86,1.84-1.56,3.39-2.09,4.62s-.94,2.27-1.24,3.11c-.08.22-.15.44-.23.67.1-.19.23-.42.42-.72.38-.59.89-1.51,1.52-2.75l.19-.4c.07-.14.16-.33.27-.58.59-1.27,1.17-2.64,1.72-4.06.41-1.07.73-2,1-2.68Z"/><path class="cls-2" d="M22.68,8.17a1.73,1.73,0,0,1,.85.26,4.15,4.15,0,0,1,1.31,1.33,9.85,9.85,0,0,1,1.08,2.18,21.69,21.69,0,0,1,1.21,5.48,16.65,16.65,0,0,1-.26,5.11,8.47,8.47,0,0,1-.58,1.8,1.52,1.52,0,0,1-.73.84l-.16,0c-.17,0-.3-.12-.38-.35A3.21,3.21,0,0,1,25,23.77a28.78,28.78,0,0,0-.13-3.15c0-.14,0-.28,0-.44s-.05-.36-.09-.63c-.17-1.39-.41-2.82-.72-4.3a26.69,26.69,0,0,0-.87-3.34c-.06-.18-.13-.27-.19-.27h0c-.11,0-.17.52-.17,1.44a25.37,25.37,0,0,0,.17,2.75c.25,2,.47,3.66.69,5S24,23.18,24.2,24c.11.46.24.92.38,1.38l1,0c.42,0,.83,0,1.23.06a34.27,34.27,0,0,1,1.31-3.37A54.61,54.61,0,0,1,30.72,17a46.31,46.31,0,0,1,2.92-4.53A16.6,16.6,0,0,1,36.28,9.5,1.71,1.71,0,0,1,37.38,9a1,1,0,0,1,.29,0,1.13,1.13,0,0,1,.74.83,4.77,4.77,0,0,1,.19,1.84,12.19,12.19,0,0,1-.41,2.44,27.89,27.89,0,0,1-2,5.35,19.37,19.37,0,0,1-2.8,4.24A8.14,8.14,0,0,1,32.08,25a1.49,1.49,0,0,1-.79.35l-.12,0c-.22,0-.28-.24-.2-.57a4.61,4.61,0,0,1,.51-1A31.71,31.71,0,0,0,33,21l.2-.4c.07-.14.16-.34.27-.59.6-1.28,1.17-2.64,1.72-4.07a30.27,30.27,0,0,0,1.14-3.33c.06-.21.06-.33,0-.35h0c-.1,0-.38.39-.84,1.15s-.9,1.6-1.29,2.44q-1.3,2.79-2.1,4.63c-.53,1.24-.94,2.28-1.24,3.13s-.54,1.64-.77,2.5a11,11,0,0,1,2.21,1c.18.11.36.22.53.34s.4.31.59.47A7.47,7.47,0,0,1,35,29.77a5.31,5.31,0,0,1,.76,2.78,6.72,6.72,0,0,1-.67,3A7.11,7.11,0,0,1,33.17,38a8.37,8.37,0,0,1-1.52,1,13.31,13.31,0,0,1-2,.76,7.56,7.56,0,0,0,.61,1,10.8,10.8,0,0,0,.87,1c2.5,2.48,9.52,4,13.42,4,.79,2.34-3.12,6.24-6.24,7a3.75,3.75,0,0,1-1,.13c-3.47,0-8.54-3.77-9.58-5.29a13.83,13.83,0,0,1-1.16-1.57q-.54-.84-1.08-1.89c-.36-.71-.67-1.4-.93-2.06a13.62,13.62,0,0,1-.57-1.77,1.48,1.48,0,0,1,0-.41.78.78,0,0,1,.22-.6,1.89,1.89,0,0,1,.8-.4,6.12,6.12,0,0,0,1.33-.64,11.46,11.46,0,0,0,1.32-1.1A7.3,7.3,0,0,0,29,34.86a7.58,7.58,0,0,0,.49-2.21c0-.16,0-.32,0-.48a4.41,4.41,0,0,0-.38-1.92,2.83,2.83,0,0,0-.36-.58,4.06,4.06,0,0,0-2.22-1.22l-.14.08h0c-.11.39-.22.76-.32,1.14-.35,1.24-.69,2.45-1,3.64-.57,2-1.14,3.91-1.7,5.76L23,40.44Q22,43.7,21.36,45.27a6.78,6.78,0,0,1-1.27,2.21,6.7,6.7,0,0,1-2,1.24,5.59,5.59,0,0,1-2.11.62c-1,0-1.48-.56-1.48-1.67a12.05,12.05,0,0,1,.41-2.36c.27-1.11.69-2.57,1.25-4.37s1.17-3.57,1.79-5.3,1.28-3.49,2-5.32l.48-1.23c-.36,0-.73.1-1.12.17a5.17,5.17,0,0,1-1,.07.79.79,0,0,1-.89-.89,2.3,2.3,0,0,1,.23-.89,2.34,2.34,0,0,1,.51-.79,5.48,5.48,0,0,1,2.48-.94c-.08-.41-.15-.83-.21-1.28A45.33,45.33,0,0,1,20,18.87a40.51,40.51,0,0,1,.22-5.41,15.2,15.2,0,0,1,.9-4,2,2,0,0,1,1.13-1.24,1.23,1.23,0,0,1,.42-.07m0-.5h0a1.7,1.7,0,0,0-.59.1A2.45,2.45,0,0,0,20.66,9.3a15.69,15.69,0,0,0-.93,4.11,41.36,41.36,0,0,0-.22,5.47A48.5,48.5,0,0,0,20,24.62c.05.28.09.55.13.82a4.92,4.92,0,0,0-2.24,1,2.8,2.8,0,0,0-.63,1A2.75,2.75,0,0,0,17,28.44a1.28,1.28,0,0,0,1.39,1.39,6.24,6.24,0,0,0,1.09-.08l.24-.05-.17.44c-.7,1.81-1.38,3.6-2,5.33S16.28,39,15.72,40.79s-1,3.29-1.27,4.41A12.13,12.13,0,0,0,14,47.67c0,1.38.72,2.17,2,2.17a5.92,5.92,0,0,0,2.31-.66,7.25,7.25,0,0,0,2.12-1.35,7.17,7.17,0,0,0,1.39-2.37c.43-1.06,1-2.7,1.6-4.88l0-.1a14.62,14.62,0,0,0,.58,1.8c.26.67.58,1.38.95,2.11s.74,1.36,1.1,1.93a17.25,17.25,0,0,0,1.2,1.61c1.15,1.65,6.39,5.48,10,5.48a4.21,4.21,0,0,0,1.15-.15,10.93,10.93,0,0,0,6.11-4.82A3.59,3.59,0,0,0,45,45.6l-.11-.34h-.37c-3.73,0-10.68-1.53-13.06-3.91a9.13,9.13,0,0,1-.84-.91c-.08-.1-.16-.23-.26-.38a10.86,10.86,0,0,0,1.51-.61,8.24,8.24,0,0,0,1.62-1.11,7.62,7.62,0,0,0,2-2.58,7.26,7.26,0,0,0,.72-3.21,5.74,5.74,0,0,0-.84-3,8.36,8.36,0,0,0-2.28-2.41c-.17-.13-.36-.24-.54-.36a11.83,11.83,0,0,0-1.89-.92c0-.06,0-.12.05-.17a.85.85,0,0,0,.56.19,2,2,0,0,0,1.09-.45,9.06,9.06,0,0,0,1.39-1.32,19.52,19.52,0,0,0,2.86-4.35,28.21,28.21,0,0,0,2-5.44,14,14,0,0,0,.42-2.54,5.32,5.32,0,0,0-.22-2,1.62,1.62,0,0,0-1.09-1.16,1.84,1.84,0,0,0-.41-.05A2.23,2.23,0,0,0,36,9.13a17,17,0,0,0-2.71,3,48.61,48.61,0,0,0-3,4.58,55.74,55.74,0,0,0-2.63,5.16c-.1.22-.19.45-.29.67a17.2,17.2,0,0,0,.26-5.19,22.66,22.66,0,0,0-1.24-5.6,10.18,10.18,0,0,0-1.13-2.29A4.7,4.7,0,0,0,23.79,8a2.21,2.21,0,0,0-1.11-.33Zm1.77,15.21c-.13-.64-.26-1.36-.39-2.17-.21-1.29-.44-3-.68-5-.06-.48-.1-1-.13-1.47.08.33.15.69.23,1.06.31,1.46.55,2.89.72,4.26,0,.27.06.47.08.62s0,.31,0,.45c.07.86.11,1.6.12,2.2Zm7.8-1.46.3-.71c.5-1.16,1.16-2.63,2-4.35-.47,1.21-1,2.38-1.48,3.47-.12.25-.2.44-.27.58l-.2.41c-.1.21-.21.4-.31.6ZM23.92,38.83c.51-1.67,1-3.49,1.59-5.39.34-1.18.69-2.4,1-3.63l.12-.42.1-.36a3.26,3.26,0,0,1,1.63,1,2.09,2.09,0,0,1,.29.48,3.93,3.93,0,0,1,.33,1.7c0,.14,0,.27,0,.4a7.05,7.05,0,0,1-1.79,4.28,11,11,0,0,1-1.22,1,5.89,5.89,0,0,1-1.23.59,2.69,2.69,0,0,0-.83.38Z"/><path class="cls-1" d="M52.13,60a6.78,6.78,0,0,1-5.82-3.35A6.93,6.93,0,0,1,45.64,55a6.8,6.8,0,0,1,0-3.58,7,7,0,0,1,.67-1.6,6.72,6.72,0,0,1,5.82-3.34,6.8,6.8,0,0,1,2.33.41,6.91,6.91,0,0,1,2,1.19l.16.14-1.59,2.65-.22-.23a4.25,4.25,0,0,0-1.24-.86,3.68,3.68,0,0,0-1.47-.3,3.63,3.63,0,0,0-1.44.29,4,4,0,0,0-1.2.8,3.89,3.89,0,0,0-.8,1.19,3.52,3.52,0,0,0-.3,1.45,3.57,3.57,0,0,0,.3,1.46,3.92,3.92,0,0,0,.81,1.19,3.76,3.76,0,0,0,1.18.81,3.72,3.72,0,0,0,1.45.29,3.49,3.49,0,0,0,.86-.1,3.71,3.71,0,0,0,.66-.24V55H51.9V52.11h4.67V58.3l-.09.08A6.66,6.66,0,0,1,52.13,60Z"/><path class="cls-2" d="M52.13,46.75a6.35,6.35,0,0,1,2.25.4,6.49,6.49,0,0,1,1.95,1.14L55,50.48a4.3,4.3,0,0,0-1.32-.9,4,4,0,0,0-3.12,0,4.11,4.11,0,0,0-2.12,2.12,3.84,3.84,0,0,0-.32,1.55,3.92,3.92,0,0,0,.32,1.56,4.13,4.13,0,0,0,.86,1.27,4.09,4.09,0,0,0,1.26.86,3.87,3.87,0,0,0,1.55.31,4,4,0,0,0,.92-.11,4.13,4.13,0,0,0,.85-.32V54.74H52.15V52.36h4.17v.87h0v5a6.49,6.49,0,0,1-1.95,1.14,6.35,6.35,0,0,1-2.25.4,6.55,6.55,0,0,1-1.72-.23,6.89,6.89,0,0,1-1.55-.66,6.42,6.42,0,0,1-1.31-1,6.15,6.15,0,0,1-1-1.31A6.34,6.34,0,0,1,45.88,55a6.55,6.55,0,0,1,0-3.44A6.44,6.44,0,0,1,46.53,50a6.15,6.15,0,0,1,1-1.31,6.78,6.78,0,0,1,1.31-1A6.86,6.86,0,0,1,50.41,47a6.55,6.55,0,0,1,1.72-.23m0-.5a6.79,6.79,0,0,0-1.86.25,7.2,7.2,0,0,0-1.66.7,7.09,7.09,0,0,0-1.41,1.09,6.84,6.84,0,0,0-1.1,1.42,7.13,7.13,0,0,0-.7,1.66,7,7,0,0,0,0,3.72,7,7,0,0,0,.7,1.67,6.59,6.59,0,0,0,1.1,1.42,7.09,7.09,0,0,0,1.41,1.09,7,7,0,0,0,8-.7l.18-.15V52.73h0v-.87H51.65v3.38H53.4v1.24a3.68,3.68,0,0,1-.47.15,3.08,3.08,0,0,1-.8.1,3.31,3.31,0,0,1-1.34-.27,3.64,3.64,0,0,1-1.12-.76,3.56,3.56,0,0,1-.75-1.11,3.45,3.45,0,0,1-.28-1.36,3.4,3.4,0,0,1,.28-1.35,3.51,3.51,0,0,1,.75-1.11A3.79,3.79,0,0,1,50.79,50a3.31,3.31,0,0,1,1.34-.27A3.36,3.36,0,0,1,53.5,50a3.94,3.94,0,0,1,1.16.8l.45.46.33-.55,1.32-2.19.22-.36-.33-.28a6.95,6.95,0,0,0-4.52-1.66Z"/></svg>