<svg id="Layer_1" data-name="Layer 1" xmlns="http://www.w3.org/2000/svg" viewBox="0 0 27.99 27.99"><defs><style>.cls-1{fill:#010d26;}.cls-2{fill:none;stroke:#000;stroke-linecap:round;stroke-linejoin:round;stroke-width:0.73px;}</style></defs><path class="cls-1" d="M32.79,20.11a.23.23,0,0,1,.07.07,15.35,15.35,0,0,1-1.21,1.21,1,1,0,0,0-.37.85,9.51,9.51,0,0,1-7.12,9.16,9.63,9.63,0,0,1-6.71-.74L17,30.38a1.46,1.46,0,0,1-.13-.15,6.9,6.9,0,0,0,4.73-1.42,3.49,3.49,0,0,1-3.09-2.26l1.3-.07a3.64,3.64,0,0,1-2.5-3.3l1.33.34a.61.61,0,0,1,.07-.1,3.41,3.41,0,0,1-1.36-2.56,3.1,3.1,0,0,1,.44-1.79,9.61,9.61,0,0,0,6.87,3.46,8.61,8.61,0,0,1,0-1.25,3.34,3.34,0,0,1,5.48-2,.61.61,0,0,0,.66.15c.53-.2,1.07-.39,1.65-.59a4.08,4.08,0,0,1-1.23,1.72Z" transform="translate(-10.51 -10.78)"/><path class="cls-2" d="M10.88,24.74v-8.5A5.06,5.06,0,0,1,16,11.15H33a5.07,5.07,0,0,1,5.09,5.1v17A5.08,5.08,0,0,1,33,38.4H16a5.07,5.07,0,0,1-5.13-5.15Z" transform="translate(-10.51 -10.78)"/></svg>