<svg id="Layer_1" data-name="Layer 1" xmlns="http://www.w3.org/2000/svg" viewBox="0 0 20.76 30.58"><defs><style>.cls-1{fill:#a63838;}.cls-2{fill:#fff;}</style></defs><path class="cls-1" d="M19.84,32.73c-2.36,0-5.81-2.53-6.55-3.6a12.07,12.07,0,0,1-.78-1.06c-.24-.38-.49-.81-.73-1.28a15,15,0,0,1-.63-1.4,8.64,8.64,0,0,1-.39-1.2,1.3,1.3,0,0,1,0-.31.73.73,0,0,1,.19-.51,1.6,1.6,0,0,1,.59-.3,3.64,3.64,0,0,0,.86-.41,7.68,7.68,0,0,0,.87-.72,5,5,0,0,0,1.24-3c0-.11,0-.21,0-.31a2.82,2.82,0,0,0-.24-1.22A1.49,1.49,0,0,0,14,17.1a2.55,2.55,0,0,0-1.35-.76l0,0-.2.69c-.23.82-.45,1.64-.68,2.43-.39,1.34-.77,2.63-1.15,3.87l-.25.92a34.2,34.2,0,0,1-1.07,3.25,4.75,4.75,0,0,1-.89,1.53,5,5,0,0,1-1.36.87,3.83,3.83,0,0,1-1.47.42c-.52,0-1.14-.22-1.14-1.26a7.79,7.79,0,0,1,.28-1.62c.18-.74.46-1.73.84-2.94s.78-2.39,1.2-3.56.86-2.35,1.34-3.57l.24-.6-.5.08a3.29,3.29,0,0,1-.7.05.67.67,0,0,1-.74-.74,1.74,1.74,0,0,1,.17-.66A1.57,1.57,0,0,1,7,15a3.4,3.4,0,0,1,1.59-.64q-.06-.35-.12-.72a31.58,31.58,0,0,1-.31-3.82,26.52,26.52,0,0,1,.15-3.65,10.51,10.51,0,0,1,.61-2.71,1.46,1.46,0,0,1,.85-.91,1,1,0,0,1,.33-.06,1.32,1.32,0,0,1,.65.2,3,3,0,0,1,.92.93,6.55,6.55,0,0,1,.74,1.5,14.85,14.85,0,0,1,.82,3.71A11.2,11.2,0,0,1,13,12.25a5.48,5.48,0,0,1-.4,1.24,1.52,1.52,0,0,1-.36.51l.47,0c.23-.68.51-1.41.85-2.17a38.42,38.42,0,0,1,1.75-3.44,31.68,31.68,0,0,1,2-3,10.93,10.93,0,0,1,1.8-2A1.31,1.31,0,0,1,19.92,3a1.81,1.81,0,0,1,.23,0,.94.94,0,0,1,.6.66A3.51,3.51,0,0,1,20.88,5a8.23,8.23,0,0,1-.28,1.66,18.7,18.7,0,0,1-1.35,3.62,12.77,12.77,0,0,1-1.9,2.87,5.78,5.78,0,0,1-.9.86,1.09,1.09,0,0,1-.62.26h-.12a.35.35,0,0,1-.24-.22.57.57,0,0,1,0-.34,3,3,0,0,1,.36-.69c.25-.39.6-1,1-1.84l.13-.27.18-.39c.4-.86.78-1.77,1.15-2.72.31-.8.54-1.45.68-1.95l-.23.38c-.31.52-.6,1.07-.86,1.62-.58,1.24-1.05,2.28-1.4,3.1s-.64,1.53-.84,2.09-.33,1-.47,1.54a7.64,7.64,0,0,1,1.38.65c.14.09.26.16.36.24a4.47,4.47,0,0,1,.41.32A5,5,0,0,1,18.42,17,3.66,3.66,0,0,1,19,18.94,4.82,4.82,0,0,1,18.5,21a5.14,5.14,0,0,1-1.32,1.67,6.14,6.14,0,0,1-1,.72,8,8,0,0,1-1.21.46,4.16,4.16,0,0,0,.3.48,8.18,8.18,0,0,0,.58.63c1.64,1.63,6.36,2.67,8.9,2.67h.1l0,.11a2.25,2.25,0,0,1-.31,1.75,7.07,7.07,0,0,1-4,3.14A2.6,2.6,0,0,1,19.84,32.73ZM10.25,5.27c0,.13,0,.32,0,.61a15.74,15.74,0,0,0,.11,1.82c.16,1.35.32,2.45.46,3.33s.28,1.6.42,2.17c.07.27.14.54.22.81h.14a.74.74,0,0,1-.09-.18,2.27,2.27,0,0,1-.06-.77,19.63,19.63,0,0,0-.08-2.1l0-.29c0-.1,0-.24-.05-.42-.12-.92-.28-1.89-.49-2.87A21.53,21.53,0,0,0,10.25,5.27Z" transform="translate(-4.3 -2.3)"/><path class="cls-2" d="M10.06,2.59a1.2,1.2,0,0,1,.57.17,2.8,2.8,0,0,1,.88.9,6.41,6.41,0,0,1,.72,1.46,15,15,0,0,1,.82,3.67,11.18,11.18,0,0,1-.18,3.42,5.85,5.85,0,0,1-.39,1.22A1,1,0,0,1,12,14l-.11,0c-.11,0-.2-.08-.25-.24a2.09,2.09,0,0,1-.05-.72,19.88,19.88,0,0,0-.08-2.11,2.43,2.43,0,0,1,0-.3c0-.1,0-.24-.05-.42q-.18-1.4-.48-2.88a18.24,18.24,0,0,0-.59-2.24c0-.13-.08-.19-.13-.19h0c-.08,0-.12.35-.12,1a16.08,16.08,0,0,0,.11,1.84c.17,1.35.32,2.46.46,3.33s.29,1.6.43,2.18c.07.31.16.62.26.93l.67,0c.27,0,.55,0,.82,0a21.13,21.13,0,0,1,.88-2.26,38.13,38.13,0,0,1,1.74-3.43,31.26,31.26,0,0,1,2-3,10.72,10.72,0,0,1,1.77-2,1.16,1.16,0,0,1,.74-.33.63.63,0,0,1,.19,0,.76.76,0,0,1,.5.56A3.2,3.2,0,0,1,20.73,5a8.51,8.51,0,0,1-.27,1.63,18.81,18.81,0,0,1-1.34,3.59A13.16,13.16,0,0,1,17.24,13a5.39,5.39,0,0,1-.88.83,1,1,0,0,1-.53.24h-.08c-.14,0-.19-.17-.13-.38a3.15,3.15,0,0,1,.34-.65c.26-.4.6-1,1-1.86l.13-.27c0-.09.11-.22.18-.39.4-.86.79-1.77,1.16-2.73s.62-1.71.76-2.23q.06-.22,0-.24h0c-.07,0-.26.26-.57.77S18,7.2,17.77,7.76c-.58,1.24-1,2.28-1.4,3.1s-.63,1.53-.83,2.1A17.31,17.31,0,0,0,15,14.64a7,7,0,0,1,1.48.69l.36.23.4.31a5.1,5.1,0,0,1,1,1.2,3.6,3.6,0,0,1,.51,1.87,4.48,4.48,0,0,1-.45,2,4.84,4.84,0,0,1-1.27,1.62,5.13,5.13,0,0,1-1,.71,8.68,8.68,0,0,1-1.36.51,5.46,5.46,0,0,0,.41.65,6.61,6.61,0,0,0,.59.65c1.67,1.66,6.38,2.71,9,2.71.52,1.57-2.1,4.19-4.19,4.71a2.48,2.48,0,0,1-.68.09c-2.33,0-5.73-2.53-6.43-3.55A10.2,10.2,0,0,1,12.63,28a14.39,14.39,0,0,1-.72-1.27q-.36-.7-.63-1.38a9.9,9.9,0,0,1-.38-1.19,1.65,1.65,0,0,1,0-.27.6.6,0,0,1,.14-.41,1.5,1.5,0,0,1,.54-.26,4.2,4.2,0,0,0,.9-.43,7.16,7.16,0,0,0,.88-.74,4.79,4.79,0,0,0,.95-1.55A4.93,4.93,0,0,0,14.62,19c0-.1,0-.21,0-.32a2.89,2.89,0,0,0-.26-1.28,1.47,1.47,0,0,0-.24-.4,2.64,2.64,0,0,0-1.49-.81l-.09,0h0c-.07.26-.14.51-.22.77l-.68,2.43c-.39,1.34-.77,2.63-1.15,3.87l-.25.92c-.42,1.45-.78,2.53-1.06,3.24A4.87,4.87,0,0,1,8.32,29,4.49,4.49,0,0,1,7,29.78a3.6,3.6,0,0,1-1.41.41c-.66,0-1-.37-1-1.11a8,8,0,0,1,.28-1.58q.27-1.12.84-2.94c.38-1.21.78-2.39,1.2-3.55s.86-2.34,1.34-3.57l.32-.82a7.15,7.15,0,0,0-.75.11,3.73,3.73,0,0,1-.67.05.53.53,0,0,1-.59-.6,1.55,1.55,0,0,1,.15-.6,1.68,1.68,0,0,1,.35-.53,3.63,3.63,0,0,1,1.66-.62c-.05-.28-.1-.57-.14-.86a29.37,29.37,0,0,1-.31-3.81,26.08,26.08,0,0,1,.15-3.62A9.64,9.64,0,0,1,9,3.47a1.29,1.29,0,0,1,.76-.83.66.66,0,0,1,.28-.05m0-.29h0a1.21,1.21,0,0,0-.38.06,1.59,1.59,0,0,0-.94,1A10.27,10.27,0,0,0,8.13,6.1,26.89,26.89,0,0,0,8,9.77a30,30,0,0,0,.31,3.84l.09.59a3.31,3.31,0,0,0-1.52.64,1.87,1.87,0,0,0-.42.62,2,2,0,0,0-.17.72.81.81,0,0,0,.88.89A4.53,4.53,0,0,0,7.88,17L8.12,17,8,17.34c-.47,1.21-.92,2.41-1.34,3.57s-.82,2.36-1.2,3.56-.66,2.21-.85,3a7.78,7.78,0,0,0-.28,1.65c0,.91.46,1.41,1.29,1.41a4,4,0,0,0,1.53-.44,4.77,4.77,0,0,0,1.41-.9,5,5,0,0,0,.92-1.57c.29-.71.65-1.81,1.07-3.27l.07-.26q0,.11,0,.18A9.17,9.17,0,0,0,11,25.44c.18.45.39.93.64,1.41a14,14,0,0,0,.74,1.3,9.42,9.42,0,0,0,.8,1.08c.73,1.07,4.24,3.65,6.65,3.65a2.68,2.68,0,0,0,.76-.1,7.28,7.28,0,0,0,4.07-3.21A2.35,2.35,0,0,0,25,27.7l-.06-.2h-.21c-2.51,0-7.19-1-8.8-2.63-.26-.27-.45-.47-.56-.61a3.4,3.4,0,0,1-.2-.31,9.46,9.46,0,0,0,1-.42,5.64,5.64,0,0,0,1.08-.74,5.21,5.21,0,0,0,1.35-1.72,4.92,4.92,0,0,0,.47-2.13,3.86,3.86,0,0,0-.55-2,5.07,5.07,0,0,0-1.11-1.27,4.54,4.54,0,0,0-.41-.33l-.36-.24a8.24,8.24,0,0,0-1.3-.63l.06-.21a.52.52,0,0,0,.25.14l.15,0a1.29,1.29,0,0,0,.71-.29,6.56,6.56,0,0,0,.92-.88,13.11,13.11,0,0,0,1.92-2.91,18.91,18.91,0,0,0,1.36-3.64A7.82,7.82,0,0,0,21,5a3.41,3.41,0,0,0-.14-1.34,1.06,1.06,0,0,0-.7-.75,1.09,1.09,0,0,0-.26,0,1.42,1.42,0,0,0-.93.4,11.3,11.3,0,0,0-1.82,2,32.59,32.59,0,0,0-2,3.06,35.21,35.21,0,0,0-1.76,3.46c-.15.33-.29.65-.41,1l.12-.5a11.51,11.51,0,0,0,.19-3.52A15.56,15.56,0,0,0,12.51,5a6.83,6.83,0,0,0-.76-1.53,3.12,3.12,0,0,0-1-1,1.48,1.48,0,0,0-.72-.21Zm1.23,10.57c-.11-.52-.23-1.14-.35-1.86s-.29-2-.46-3.32c-.05-.47-.09-1-.1-1.43.08.33.17.71.26,1.14.2,1,.37,1.94.48,2.85,0,.18,0,.32.05.42l0,.3a18.56,18.56,0,0,1,.09,1.9Zm4.84-.66L16.64,11c.35-.82.82-1.86,1.4-3.1.11-.23.22-.45.34-.68l-.2.51c-.36,1-.75,1.87-1.14,2.72-.08.17-.14.29-.18.39s-.1.18-.14.27c-.22.43-.41.8-.59,1.12Zm-3.57,1.66a2.75,2.75,0,0,0,.15-.25l-.09.25Zm-1.75,9.41c.36-1.2.73-2.46,1.11-3.76.23-.79.46-1.61.69-2.44l.07-.27.08-.29a2.27,2.27,0,0,1,1.16.67,1.7,1.7,0,0,1,.2.33,2.73,2.73,0,0,1,.23,1.16,2.45,2.45,0,0,1,0,.27A4.51,4.51,0,0,1,14,20.38a4.94,4.94,0,0,1-.89,1.47,7,7,0,0,1-.84.68,3.38,3.38,0,0,1-.83.4,1.52,1.52,0,0,0-.64.34Z" transform="translate(-4.3 -2.3)"/></svg>